<svg width="88" height="88" viewBox="0 0 88 88" fill="none" xmlns="http://www.w3.org/2000/svg">
<g filter="url(#filter0_di_2129_4569)">
<path d="M4.00425 39.4203C4.32482 17.33 22.4834 -0.316532 44.5644 0.00430712C66.6438 0.325256 84.2897 18.4907 83.9691 40.581C83.6484 62.6689 65.4844 80.3166 43.4049 79.9957C21.3231 79.6749 3.68591 61.5088 4.00425 39.4203Z" fill="#E2E8F0"/>
<path d="M13.4518 14.1072C17.8474 8.9338 23.4981 4.94476 29.8161 2.56252L36.0742 4.7526L27.3811 16.49L13.4069 20.7305L13.4518 14.1072ZM61.1602 16.9808L52.8048 4.99373L59.1301 2.98438C65.364 5.55032 70.9025 9.70026 75.1512 14.9975L74.9981 21.6269L61.1602 16.9808ZM28.7718 44.6901L34.7908 27.0229L53.4517 27.2944L58.9513 45.1278L43.7033 55.8807L28.7718 44.6901ZM9.90589 60.9858C6.34882 55.2312 4.30879 48.6182 4.00067 41.844L8.00761 36.5741L16.4788 48.4726L16.1915 63.0849L9.90589 60.9858ZM71.1286 49.2654L79.9407 37.6197L83.8005 43.008C83.2908 49.7631 81.064 56.3162 77.3433 61.9646L70.9847 63.8794L71.1286 49.2654ZM53.372 78.8649C50.1054 79.6543 46.7336 80.0312 43.3541 79.9832C39.9722 79.9339 36.6132 79.4591 33.3651 78.5749L29.587 73.1163L43.5153 68.7372L57.3114 73.5178L53.372 78.8649Z" fill="#0A0A0A"/>
<path d="M52.3104 4.44461C51.694 4.30025 48.2434 3.5499 44.0222 3.48995C41.72 3.45566 39.1867 3.63054 36.7629 4.22155L30.959 2.18953C35.3273 0.670019 39.9105 -0.0618437 44.5991 0.00557631C49.2884 0.0721662 53.8456 0.939677 58.1689 2.58529L52.3104 4.44461ZM34.8022 26.3218L28.1231 16.8131L36.9399 4.9071C43.5916 3.30032 51.0581 4.88908 52.1108 5.12658L60.5789 17.2853L53.5947 26.5943L34.8022 26.3218ZM4.05177 40.7305C4.03993 40.302 4.04159 39.8639 4.0469 39.4216C4.17539 30.5355 7.28965 21.9108 12.8235 14.9996L12.7856 21.1269C12.2756 21.963 8.29867 28.7889 7.76031 35.8548L4.05177 40.7305ZM8.46836 35.8919C8.99696 29.0693 12.8178 22.4552 13.3678 21.5258L27.5415 17.2224L34.2252 26.7395L28.1572 44.5511L17.0641 47.9614L8.46836 35.8919ZM80.3749 36.9071C80.299 35.934 79.5032 28.0627 75.7862 22.0349L75.9202 15.9095C81.2566 22.9811 84.1246 31.6962 83.9961 40.5822C83.9887 41.0286 83.9711 41.4631 83.9525 41.8961L80.3749 36.9071ZM59.7309 44.974L54.1831 26.9927L61.1488 17.711L75.1931 22.427C78.7762 28.249 79.5671 35.8482 79.6667 36.9244L70.7312 48.7418L59.7309 44.974ZM29.1208 72.5549C22.8014 69.9485 17.696 64.2677 16.9879 63.4538L17.2706 48.6402L28.3698 45.2279L43.4374 56.5176L43.2558 68.1141L29.1208 72.5549ZM43.9642 68.1228L44.1503 56.5119L59.5449 45.6589L70.5041 49.4131L70.3631 64.2372C65.9298 69.4439 58.9554 72.5487 57.9611 72.9713L43.9642 68.1228ZM32.3749 78.2787C23.4273 75.5591 15.747 69.8063 10.5881 61.9519L16.4217 63.8912C17.0615 64.6288 22.3238 70.5286 28.8712 73.2199L32.3749 78.2787ZM58.2011 73.6446C59.0981 73.2611 66.3307 70.0768 70.9185 64.6805L76.7992 62.9133C71.4075 70.6189 63.5699 76.1442 54.5486 78.6006L58.2011 73.6446Z" fill="#F8FAFC"/>
</g>
<defs>
<filter id="filter0_di_2129_4569" x="0" y="-4" width="88.0002" height="92" filterUnits="userSpaceOnUse" color-interpolation-filters="sRGB">
<feFlood flood-opacity="0" result="BackgroundImageFix"/>
<feColorMatrix in="SourceAlpha" type="matrix" values="0 0 0 0 0 0 0 0 0 0 0 0 0 0 0 0 0 0 127 0" result="hardAlpha"/>
<feOffset dy="4"/>
<feGaussianBlur stdDeviation="2"/>
<feComposite in2="hardAlpha" operator="out"/>
<feColorMatrix type="matrix" values="0 0 0 0 0 0 0 0 0 0 0 0 0 0 0 0 0 0 0.16 0"/>
<feBlend mode="normal" in2="BackgroundImageFix" result="effect1_dropShadow_2129_4569"/>
<feBlend mode="normal" in="SourceGraphic" in2="effect1_dropShadow_2129_4569" result="shape"/>
<feColorMatrix in="SourceAlpha" type="matrix" values="0 0 0 0 0 0 0 0 0 0 0 0 0 0 0 0 0 0 127 0" result="hardAlpha"/>
<feOffset dy="-4"/>
<feGaussianBlur stdDeviation="2"/>
<feComposite in2="hardAlpha" operator="arithmetic" k2="-1" k3="1"/>
<feColorMatrix type="matrix" values="0 0 0 0 0 0 0 0 0 0 0 0 0 0 0 0 0 0 0.16 0"/>
<feBlend mode="normal" in2="shape" result="effect2_innerShadow_2129_4569"/>
</filter>
</defs>
</svg>
