<svg width="88" height="88" viewBox="0 0 88 88" fill="none" xmlns="http://www.w3.org/2000/svg">
<g filter="url(#filter0_di_2130_3571)">
<path d="M83.9961 40.5797C83.6755 62.67 65.5169 80.3165 43.4359 79.9957C21.3565 79.6747 3.71058 61.5093 4.03116 39.419C4.35189 17.3311 22.5159 -0.316639 44.5953 0.00430916C66.6772 0.325093 84.3144 18.4912 83.9961 40.5797Z" fill="white"/>
<path d="M74.5485 65.8928C70.1529 71.0662 64.5022 75.0552 58.1842 77.4375L51.926 75.2474L60.6192 63.51L74.5934 59.2695L74.5485 65.8928ZM26.8401 63.0192L35.1954 75.0063L28.8702 77.0156C22.6362 74.4497 17.0977 70.2997 12.849 65.0025L13.0022 58.3731L26.8401 63.0192ZM59.2285 35.3099L53.2095 52.9771L34.5486 52.7056L29.0489 34.8722L44.297 24.1193L59.2285 35.3099ZM78.0944 19.0142C81.6515 24.7688 83.6915 31.3818 83.9996 38.156L79.9927 43.426L71.5215 31.5274L71.8088 16.9151L78.0944 19.0142ZM16.8716 30.7346L8.05951 42.3803L4.19971 36.992C4.7094 30.2369 6.93624 23.6838 10.6569 18.0354L17.0155 16.1206L16.8716 30.7346ZM34.6282 1.13514C37.8948 0.345735 41.2667 -0.0311843 44.6462 0.0167544C48.0281 0.0661026 51.3871 0.540862 54.6352 1.42511L58.4133 6.88374L44.485 11.2628L30.6889 6.48224L34.6282 1.13514Z" fill="#E7000B"/>
<path d="M44.6462 0.0167544C41.2667 -0.0311843 37.8948 0.345735 34.6282 1.13514L30.6889 6.48224L44.485 11.2628L58.4133 6.88374L54.6352 1.42511C51.3871 0.540862 48.0281 0.0661026 44.6462 0.0167544Z" fill="#E7000B"/>
<path d="M35.1955 75.0062L26.8402 63.0192L13.0023 58.373L12.8491 65.0024C17.0978 70.2997 22.6363 74.4496 28.8703 77.0156L35.1955 75.0062Z" fill="#E7000B"/>
<path d="M84.0001 38.156C83.692 31.3817 81.652 24.7687 78.0949 19.0142L71.8093 16.915L71.522 31.5273L79.9932 43.4259L84.0001 38.156Z" fill="#00A5EB"/>
<path d="M44.6463 0.0167544C41.2668 -0.0311843 37.8949 0.345735 34.6283 1.13514L30.689 6.48224L44.4851 11.2628L58.4134 6.88374L54.6353 1.42511C51.3872 0.540862 48.0282 0.0661026 44.6463 0.0167544Z" fill="#E7000B"/>
<path d="M35.6899 75.5554C36.3063 75.6997 39.7569 76.4501 43.9781 76.5101C46.2803 76.5443 48.8136 76.3695 51.2374 75.7785L57.0413 77.8105C52.673 79.33 48.0898 80.0618 43.4012 79.9944C38.7119 79.9278 34.1547 79.0603 29.8313 77.4147L35.6899 75.5554ZM53.1981 53.6782L59.8772 63.1869L51.0604 75.0929C44.4087 76.6997 36.9422 75.1109 35.8895 74.8734L27.4213 62.7147L34.4056 53.4057L53.1981 53.6782ZM83.9486 39.2695C83.9604 39.698 83.9587 40.1361 83.9534 40.5784C83.8249 49.4645 80.7107 58.0892 75.1768 65.0004L75.2147 58.8731C75.7247 58.037 79.7017 51.2111 80.24 44.1452L83.9486 39.2695ZM79.532 44.1081C79.0034 50.9307 75.1825 57.5448 74.6325 58.4742L60.4588 62.7776L53.7751 53.2605L59.8431 35.4489L70.9362 32.0386L79.532 44.1081ZM7.62532 43.0929C7.7012 44.066 8.49701 51.9373 12.2141 57.9651L12.0801 64.0905C6.74366 57.0189 3.87565 48.3038 4.00414 39.4178C4.01152 38.9714 4.02918 38.5369 4.04773 38.1039L7.62532 43.0929ZM28.2694 35.026L33.8172 53.0073L26.8515 62.289L12.8071 57.573C9.22409 51.751 8.43313 44.1518 8.33351 43.0756L17.2691 31.2582L28.2694 35.026ZM58.8795 7.44508C65.1989 10.0515 70.3043 15.7323 71.0124 16.5462L70.7297 31.3598L59.6305 34.7721L44.5629 23.4824L44.7445 11.8859L58.8795 7.44508ZM44.0361 11.8772L43.85 23.4881L28.4554 34.3411L17.4961 30.5869L17.6371 15.7628C22.0704 10.5561 29.0449 7.45125 30.0391 7.02869L44.0361 11.8772ZM55.6254 1.72135C64.573 4.44089 72.2533 10.1937 77.4122 18.0481L71.5786 16.1088C70.9388 15.3712 65.6765 9.47138 59.1291 6.7801L55.6254 1.72135ZM29.7992 6.35542C28.9021 6.73889 21.6695 9.92325 17.0818 15.3195L11.201 17.0867C16.5927 9.38109 24.4304 3.85578 33.4517 1.39941L29.7992 6.35542Z" fill="white"/>
<path d="M53.2099 52.9769L59.2289 35.3097L44.2974 24.1191L29.0493 34.872L34.5489 52.7054L53.2099 52.9769Z" fill="#00A5EB"/>
<path d="M8.05951 42.3799L16.8716 30.7342L17.0155 16.1201L10.6569 18.0349C6.93624 23.6834 4.7094 30.2364 4.19971 36.9916L8.05951 42.3799Z" fill="#00A5EB"/>
<path d="M58.1844 77.4375C64.5024 75.0553 70.1532 71.0663 74.5487 65.8929L74.5936 59.2695L60.6194 63.51L51.9263 75.2475L58.1844 77.4375Z" fill="#E7000B"/>
</g>
<defs>
<filter id="filter0_di_2130_3571" x="0" y="-4" width="88.0002" height="92" filterUnits="userSpaceOnUse" color-interpolation-filters="sRGB">
<feFlood flood-opacity="0" result="BackgroundImageFix"/>
<feColorMatrix in="SourceAlpha" type="matrix" values="0 0 0 0 0 0 0 0 0 0 0 0 0 0 0 0 0 0 127 0" result="hardAlpha"/>
<feOffset dy="4"/>
<feGaussianBlur stdDeviation="2"/>
<feComposite in2="hardAlpha" operator="out"/>
<feColorMatrix type="matrix" values="0 0 0 0 0 0 0 0 0 0 0 0 0 0 0 0 0 0 0.16 0"/>
<feBlend mode="normal" in2="BackgroundImageFix" result="effect1_dropShadow_2130_3571"/>
<feBlend mode="normal" in="SourceGraphic" in2="effect1_dropShadow_2130_3571" result="shape"/>
<feColorMatrix in="SourceAlpha" type="matrix" values="0 0 0 0 0 0 0 0 0 0 0 0 0 0 0 0 0 0 127 0" result="hardAlpha"/>
<feOffset dy="-4"/>
<feGaussianBlur stdDeviation="2"/>
<feComposite in2="hardAlpha" operator="arithmetic" k2="-1" k3="1"/>
<feColorMatrix type="matrix" values="0 0 0 0 0 0 0 0 0 0 0 0 0 0 0 0 0 0 0.16 0"/>
<feBlend mode="normal" in2="shape" result="effect2_innerShadow_2130_3571"/>
</filter>
</defs>
</svg>
