<svg width="520" height="142" viewBox="0 0 520 142" fill="none" xmlns="http://www.w3.org/2000/svg">
<g filter="url(#filter0_di_2129_4573)">
<mask id="path-1-outside-1_2129_4573" maskUnits="userSpaceOnUse" x="3.82398" y="-6.03199e-05" width="513.808" height="136.19" fill="black">
<rect fill="white" x="3.82398" y="-6.03199e-05" width="513.808" height="136.19"/>
<path d="M14.427 129.724L8.2692 41.6635L48.777 38.8309C55.1509 38.3852 60.58 38.8905 65.0642 40.3467C69.6324 41.7971 73.16 44.0366 75.6473 47.0652C78.2184 50.0879 79.6536 53.7379 79.9526 58.0152C80.3221 63.2988 79.411 67.7449 77.2193 71.3535C75.1115 74.9563 71.7923 77.506 67.2617 79.0027L66.7171 76.6389C70.6395 77.2917 74.0998 78.5667 77.0979 80.464C80.0901 82.2774 82.4856 84.596 84.2843 87.42C86.0831 90.2439 87.1144 93.5429 87.3783 97.3169C87.7008 101.93 87.1437 106.014 85.7068 109.57C84.264 113.042 82.0703 116.018 79.1255 118.5C76.2646 120.975 72.8595 122.899 68.9101 124.271C65.0446 125.637 60.8055 126.481 56.1928 126.803L14.427 129.724ZM38.0917 106.578L53.9426 105.47C55.536 105.359 56.8603 105.013 57.9154 104.434C58.9646 103.77 59.7446 102.873 60.2555 101.742C60.7604 100.527 60.9572 99.1223 60.8458 97.5288C60.7461 96.1031 60.3285 94.9524 59.5931 94.0768C58.9356 93.1114 58.0022 92.4182 56.7929 91.9971C55.5777 91.4921 54.0895 91.3012 52.3283 91.4244L37.1064 92.4888L38.0917 106.578ZM35.8397 74.3735L46.5327 73.6258C48.4617 73.4909 49.9956 73.1308 51.1346 72.5455C52.3574 71.9543 53.1882 71.1799 53.6268 70.2221C54.1435 69.1747 54.352 67.9381 54.2523 66.5123C54.1175 64.5834 53.338 63.0788 51.914 61.9985C50.5681 60.8284 48.3855 60.349 45.3663 60.5601L34.9248 61.2902L35.8397 74.3735Z"/>
<path d="M135.795 121.996C128.163 122.529 121.267 121.537 115.107 119.018C109.025 116.409 104.125 112.622 100.407 107.657C96.6888 102.692 94.5951 96.8544 94.1259 90.145L90.3345 35.9249L117.759 34.0072L121.471 87.0951C121.641 89.5272 122.297 91.6726 123.438 93.5312C124.574 95.3059 126.06 96.6768 127.898 97.6439C129.819 98.6051 131.912 99.0066 134.176 98.8483C136.608 98.6782 138.709 97.9835 140.478 96.7642C142.247 95.5449 143.612 93.9746 144.573 92.0533C145.528 90.0481 145.921 87.8294 145.751 85.3973L142.039 32.3094L168.834 30.4357L172.626 84.6558C173.095 91.3651 171.834 97.437 168.843 102.871C165.852 108.306 161.484 112.741 155.741 116.176C150.075 119.522 143.427 121.462 135.795 121.996Z"/>
<path d="M226.583 115.647C218.951 116.181 212.055 115.188 205.895 112.669C199.813 110.06 194.913 106.274 191.195 101.308C187.477 96.3432 185.383 90.5059 184.914 83.7965L181.122 29.5764L208.547 27.6587L212.259 80.7466C212.429 83.1787 213.085 85.3241 214.226 87.1827C215.362 88.9574 216.848 90.3283 218.685 91.2954C220.607 92.2566 222.7 92.6581 224.964 92.4998C227.396 92.3297 229.497 91.635 231.266 90.4157C233.034 89.1964 234.399 87.6261 235.361 85.7048C236.316 83.6996 236.709 81.4809 236.539 79.0488L232.826 25.9609L259.622 24.0872L263.413 78.3073C263.883 85.0166 262.622 91.0885 259.63 96.5228C256.639 101.957 252.272 106.392 246.529 109.828C240.863 113.174 234.215 115.113 226.583 115.647Z"/>
<path d="M317.37 109.299C309.739 109.832 302.843 108.84 296.683 106.321C290.601 103.712 285.701 99.925 281.983 94.9598C278.264 89.9947 276.171 84.1574 275.702 77.448L271.91 23.2279L299.335 21.3102L303.047 74.3981C303.217 76.8302 303.873 78.9756 305.014 80.8342C306.149 82.6089 307.636 83.9798 309.473 84.9469C311.395 85.9081 313.487 86.3096 315.752 86.1513C318.184 85.9812 320.285 85.2865 322.053 84.0672C323.822 82.8479 325.187 81.2776 326.148 79.3563C327.104 77.3511 327.497 75.1324 327.326 72.7003L323.614 19.6124L350.41 17.7387L354.201 71.9588C354.67 78.6681 353.409 84.74 350.418 90.1743C347.427 95.6087 343.06 100.044 337.316 103.479C331.651 106.825 325.002 108.765 317.37 109.299Z"/>
<path d="M389.739 103.48L385.199 38.5665L358.026 40.4666L356.408 17.3192L438.682 11.5661L440.3 34.7134L412.372 36.6663L416.912 101.579L389.739 103.48Z"/>
<path d="M489.231 62.8958C488.131 58.0004 486.976 52.9402 485.768 47.7152C484.56 42.4903 483.48 37.2984 482.53 32.1397C481.657 26.8913 481.048 21.793 480.702 16.8448L479.954 6.15175L506.875 4.26922L507.623 14.9623C507.969 19.9104 508.033 25.0469 507.816 30.3715C507.676 35.6065 507.372 40.8951 506.902 46.2374C506.433 51.5797 505.994 56.7513 505.585 61.7522L489.231 62.8958ZM499.971 97.162C496.029 97.4376 492.892 96.5614 490.559 94.5333C488.226 92.5053 486.918 89.4784 486.637 85.4528C486.379 81.7627 487.3 78.6643 489.4 76.1576C491.584 73.6452 494.521 72.2599 498.212 72.0019C502.153 71.7262 505.291 72.6024 507.624 74.6305C509.957 76.6586 511.264 79.6854 511.545 83.711C511.804 87.4012 510.841 90.5025 508.656 93.015C506.556 95.5216 503.661 96.904 499.971 97.162Z"/>
</mask>
<path d="M14.427 129.724L8.2692 41.6635L48.777 38.8309C55.1509 38.3852 60.58 38.8905 65.0642 40.3467C69.6324 41.7971 73.16 44.0366 75.6473 47.0652C78.2184 50.0879 79.6536 53.7379 79.9526 58.0152C80.3221 63.2988 79.411 67.7449 77.2193 71.3535C75.1115 74.9563 71.7923 77.506 67.2617 79.0027L66.7171 76.6389C70.6395 77.2917 74.0998 78.5667 77.0979 80.464C80.0901 82.2774 82.4856 84.596 84.2843 87.42C86.0831 90.2439 87.1144 93.5429 87.3783 97.3169C87.7008 101.93 87.1437 106.014 85.7068 109.57C84.264 113.042 82.0703 116.018 79.1255 118.5C76.2646 120.975 72.8595 122.899 68.9101 124.271C65.0446 125.637 60.8055 126.481 56.1928 126.803L14.427 129.724ZM38.0917 106.578L53.9426 105.47C55.536 105.359 56.8603 105.013 57.9154 104.434C58.9646 103.77 59.7446 102.873 60.2555 101.742C60.7604 100.527 60.9572 99.1223 60.8458 97.5288C60.7461 96.1031 60.3285 94.9524 59.5931 94.0768C58.9356 93.1114 58.0022 92.4182 56.7929 91.9971C55.5777 91.4921 54.0895 91.3012 52.3283 91.4244L37.1064 92.4888L38.0917 106.578ZM35.8397 74.3735L46.5327 73.6258C48.4617 73.4909 49.9956 73.1308 51.1346 72.5455C52.3574 71.9543 53.1882 71.1799 53.6268 70.2221C54.1435 69.1747 54.352 67.9381 54.2523 66.5123C54.1175 64.5834 53.338 63.0788 51.914 61.9985C50.5681 60.8284 48.3855 60.349 45.3663 60.5601L34.9248 61.2902L35.8397 74.3735Z" fill="#00A63F"/>
<path d="M135.795 121.996C128.163 122.529 121.267 121.537 115.107 119.018C109.025 116.409 104.125 112.622 100.407 107.657C96.6888 102.692 94.5951 96.8544 94.1259 90.145L90.3345 35.9249L117.759 34.0072L121.471 87.0951C121.641 89.5272 122.297 91.6726 123.438 93.5312C124.574 95.3059 126.06 96.6768 127.898 97.6439C129.819 98.6051 131.912 99.0066 134.176 98.8483C136.608 98.6782 138.709 97.9835 140.478 96.7642C142.247 95.5449 143.612 93.9746 144.573 92.0533C145.528 90.0481 145.921 87.8294 145.751 85.3973L142.039 32.3094L168.834 30.4357L172.626 84.6558C173.095 91.3651 171.834 97.437 168.843 102.871C165.852 108.306 161.484 112.741 155.741 116.176C150.075 119.522 143.427 121.462 135.795 121.996Z" fill="#00A63F"/>
<path d="M226.583 115.647C218.951 116.181 212.055 115.188 205.895 112.669C199.813 110.06 194.913 106.274 191.195 101.308C187.477 96.3432 185.383 90.5059 184.914 83.7965L181.122 29.5764L208.547 27.6587L212.259 80.7466C212.429 83.1787 213.085 85.3241 214.226 87.1827C215.362 88.9574 216.848 90.3283 218.685 91.2954C220.607 92.2566 222.7 92.6581 224.964 92.4998C227.396 92.3297 229.497 91.635 231.266 90.4157C233.034 89.1964 234.399 87.6261 235.361 85.7048C236.316 83.6996 236.709 81.4809 236.539 79.0488L232.826 25.9609L259.622 24.0872L263.413 78.3073C263.883 85.0166 262.622 91.0885 259.63 96.5228C256.639 101.957 252.272 106.392 246.529 109.828C240.863 113.174 234.215 115.113 226.583 115.647Z" fill="#00A63F"/>
<path d="M317.37 109.299C309.739 109.832 302.843 108.84 296.683 106.321C290.601 103.712 285.701 99.925 281.983 94.9598C278.264 89.9947 276.171 84.1574 275.702 77.448L271.91 23.2279L299.335 21.3102L303.047 74.3981C303.217 76.8302 303.873 78.9756 305.014 80.8342C306.149 82.6089 307.636 83.9798 309.473 84.9469C311.395 85.9081 313.487 86.3096 315.752 86.1513C318.184 85.9812 320.285 85.2865 322.053 84.0672C323.822 82.8479 325.187 81.2776 326.148 79.3563C327.104 77.3511 327.497 75.1324 327.326 72.7003L323.614 19.6124L350.41 17.7387L354.201 71.9588C354.67 78.6681 353.409 84.74 350.418 90.1743C347.427 95.6087 343.06 100.044 337.316 103.479C331.651 106.825 325.002 108.765 317.37 109.299Z" fill="#00A63F"/>
<path d="M389.739 103.48L385.199 38.5665L358.026 40.4666L356.408 17.3192L438.682 11.5661L440.3 34.7134L412.372 36.6663L416.912 101.579L389.739 103.48Z" fill="#00A63F"/>
<path d="M489.231 62.8958C488.131 58.0004 486.976 52.9402 485.768 47.7152C484.56 42.4903 483.48 37.2984 482.53 32.1397C481.657 26.8913 481.048 21.793 480.702 16.8448L479.954 6.15175L506.875 4.26922L507.623 14.9623C507.969 19.9104 508.033 25.0469 507.816 30.3715C507.676 35.6065 507.372 40.8951 506.902 46.2374C506.433 51.5797 505.994 56.7513 505.585 61.7522L489.231 62.8958ZM499.971 97.162C496.029 97.4376 492.892 96.5614 490.559 94.5333C488.226 92.5053 486.918 89.4784 486.637 85.4528C486.379 81.7627 487.3 78.6643 489.4 76.1576C491.584 73.6452 494.521 72.2599 498.212 72.0019C502.153 71.7262 505.291 72.6024 507.624 74.6305C509.957 76.6586 511.264 79.6854 511.545 83.711C511.804 87.4012 510.841 90.5025 508.656 93.015C506.556 95.5216 503.661 96.904 499.971 97.162Z" fill="#00A63F"/>
<path d="M14.427 129.724L8.2692 41.6635L48.777 38.8309C55.1509 38.3852 60.58 38.8905 65.0642 40.3467C69.6324 41.7971 73.16 44.0366 75.6473 47.0652C78.2184 50.0879 79.6536 53.7379 79.9526 58.0152C80.3221 63.2988 79.411 67.7449 77.2193 71.3535C75.1115 74.9563 71.7923 77.506 67.2617 79.0027L66.7171 76.6389C70.6395 77.2917 74.0998 78.5667 77.0979 80.464C80.0901 82.2774 82.4856 84.596 84.2843 87.42C86.0831 90.2439 87.1144 93.5429 87.3783 97.3169C87.7008 101.93 87.1437 106.014 85.7068 109.57C84.264 113.042 82.0703 116.018 79.1255 118.5C76.2646 120.975 72.8595 122.899 68.9101 124.271C65.0446 125.637 60.8055 126.481 56.1928 126.803L14.427 129.724ZM38.0917 106.578L53.9426 105.47C55.536 105.359 56.8603 105.013 57.9154 104.434C58.9646 103.77 59.7446 102.873 60.2555 101.742C60.7604 100.527 60.9572 99.1223 60.8458 97.5288C60.7461 96.1031 60.3285 94.9524 59.5931 94.0768C58.9356 93.1114 58.0022 92.4182 56.7929 91.9971C55.5777 91.4921 54.0895 91.3012 52.3283 91.4244L37.1064 92.4888L38.0917 106.578ZM35.8397 74.3735L46.5327 73.6258C48.4617 73.4909 49.9956 73.1308 51.1346 72.5455C52.3574 71.9543 53.1882 71.1799 53.6268 70.2221C54.1435 69.1747 54.352 67.9381 54.2523 66.5123C54.1175 64.5834 53.338 63.0788 51.914 61.9985C50.5681 60.8284 48.3855 60.349 45.3663 60.5601L34.9248 61.2902L35.8397 74.3735Z" stroke="white" stroke-width="8" mask="url(#path-1-outside-1_2129_4573)"/>
<path d="M135.795 121.996C128.163 122.529 121.267 121.537 115.107 119.018C109.025 116.409 104.125 112.622 100.407 107.657C96.6888 102.692 94.5951 96.8544 94.1259 90.145L90.3345 35.9249L117.759 34.0072L121.471 87.0951C121.641 89.5272 122.297 91.6726 123.438 93.5312C124.574 95.3059 126.06 96.6768 127.898 97.6439C129.819 98.6051 131.912 99.0066 134.176 98.8483C136.608 98.6782 138.709 97.9835 140.478 96.7642C142.247 95.5449 143.612 93.9746 144.573 92.0533C145.528 90.0481 145.921 87.8294 145.751 85.3973L142.039 32.3094L168.834 30.4357L172.626 84.6558C173.095 91.3651 171.834 97.437 168.843 102.871C165.852 108.306 161.484 112.741 155.741 116.176C150.075 119.522 143.427 121.462 135.795 121.996Z" stroke="white" stroke-width="8" mask="url(#path-1-outside-1_2129_4573)"/>
<path d="M226.583 115.647C218.951 116.181 212.055 115.188 205.895 112.669C199.813 110.06 194.913 106.274 191.195 101.308C187.477 96.3432 185.383 90.5059 184.914 83.7965L181.122 29.5764L208.547 27.6587L212.259 80.7466C212.429 83.1787 213.085 85.3241 214.226 87.1827C215.362 88.9574 216.848 90.3283 218.685 91.2954C220.607 92.2566 222.7 92.6581 224.964 92.4998C227.396 92.3297 229.497 91.635 231.266 90.4157C233.034 89.1964 234.399 87.6261 235.361 85.7048C236.316 83.6996 236.709 81.4809 236.539 79.0488L232.826 25.9609L259.622 24.0872L263.413 78.3073C263.883 85.0166 262.622 91.0885 259.63 96.5228C256.639 101.957 252.272 106.392 246.529 109.828C240.863 113.174 234.215 115.113 226.583 115.647Z" stroke="white" stroke-width="8" mask="url(#path-1-outside-1_2129_4573)"/>
<path d="M317.37 109.299C309.739 109.832 302.843 108.84 296.683 106.321C290.601 103.712 285.701 99.925 281.983 94.9598C278.264 89.9947 276.171 84.1574 275.702 77.448L271.91 23.2279L299.335 21.3102L303.047 74.3981C303.217 76.8302 303.873 78.9756 305.014 80.8342C306.149 82.6089 307.636 83.9798 309.473 84.9469C311.395 85.9081 313.487 86.3096 315.752 86.1513C318.184 85.9812 320.285 85.2865 322.053 84.0672C323.822 82.8479 325.187 81.2776 326.148 79.3563C327.104 77.3511 327.497 75.1324 327.326 72.7003L323.614 19.6124L350.41 17.7387L354.201 71.9588C354.67 78.6681 353.409 84.74 350.418 90.1743C347.427 95.6087 343.06 100.044 337.316 103.479C331.651 106.825 325.002 108.765 317.37 109.299Z" stroke="white" stroke-width="8" mask="url(#path-1-outside-1_2129_4573)"/>
<path d="M389.739 103.48L385.199 38.5665L358.026 40.4666L356.408 17.3192L438.682 11.5661L440.3 34.7134L412.372 36.6663L416.912 101.579L389.739 103.48Z" stroke="white" stroke-width="8" mask="url(#path-1-outside-1_2129_4573)"/>
<path d="M489.231 62.8958C488.131 58.0004 486.976 52.9402 485.768 47.7152C484.56 42.4903 483.48 37.2984 482.53 32.1397C481.657 26.8913 481.048 21.793 480.702 16.8448L479.954 6.15175L506.875 4.26922L507.623 14.9623C507.969 19.9104 508.033 25.0469 507.816 30.3715C507.676 35.6065 507.372 40.8951 506.902 46.2374C506.433 51.5797 505.994 56.7513 505.585 61.7522L489.231 62.8958ZM499.971 97.162C496.029 97.4376 492.892 96.5614 490.559 94.5333C488.226 92.5053 486.918 89.4784 486.637 85.4528C486.379 81.7627 487.3 78.6643 489.4 76.1576C491.584 73.6452 494.521 72.2599 498.212 72.0019C502.153 71.7262 505.291 72.6024 507.624 74.6305C509.957 76.6586 511.264 79.6854 511.545 83.711C511.804 87.4012 510.841 90.5025 508.656 93.015C506.556 95.5216 503.661 96.904 499.971 97.162Z" stroke="white" stroke-width="8" mask="url(#path-1-outside-1_2129_4573)"/>
</g>
<defs>
<filter id="filter0_di_2129_4573" x="0" y="-4" width="519.586" height="145.993" filterUnits="userSpaceOnUse" color-interpolation-filters="sRGB">
<feFlood flood-opacity="0" result="BackgroundImageFix"/>
<feColorMatrix in="SourceAlpha" type="matrix" values="0 0 0 0 0 0 0 0 0 0 0 0 0 0 0 0 0 0 127 0" result="hardAlpha"/>
<feOffset dy="4"/>
<feGaussianBlur stdDeviation="2"/>
<feComposite in2="hardAlpha" operator="out"/>
<feColorMatrix type="matrix" values="0 0 0 0 0 0 0 0 0 0 0 0 0 0 0 0 0 0 0.16 0"/>
<feBlend mode="normal" in2="BackgroundImageFix" result="effect1_dropShadow_2129_4573"/>
<feBlend mode="normal" in="SourceGraphic" in2="effect1_dropShadow_2129_4573" result="shape"/>
<feColorMatrix in="SourceAlpha" type="matrix" values="0 0 0 0 0 0 0 0 0 0 0 0 0 0 0 0 0 0 127 0" result="hardAlpha"/>
<feOffset dy="-4"/>
<feGaussianBlur stdDeviation="2"/>
<feComposite in2="hardAlpha" operator="arithmetic" k2="-1" k3="1"/>
<feColorMatrix type="matrix" values="0 0 0 0 0 0 0 0 0 0 0 0 0 0 0 0 0 0 0.16 0"/>
<feBlend mode="normal" in2="shape" result="effect2_innerShadow_2129_4573"/>
</filter>
</defs>
</svg>
