<svg width="60" height="120" viewBox="0 0 60 120" fill="none" xmlns="http://www.w3.org/2000/svg">
<path d="M60 119.983H59.0684V120H0V0.0175781H59.0684V0H60V119.983ZM2.60547 117.599H5.29785V115.262H2.60547V117.599ZM5.62402 117.599H8.27734V115.262H5.62402V117.599ZM8.60352 117.599H11.2578V115.262H8.60352V117.599ZM11.584 117.599H14.2373V115.262H11.584V117.599ZM14.5635 117.599H17.2178V115.262H14.5635V117.599ZM17.5439 117.599H20.1982V115.262H17.5439V117.599ZM20.5234 117.599H23.1777V115.262H20.5234V117.599ZM23.5039 117.599H26.1582V115.262H23.5039V117.599ZM26.4834 117.599H29.1377V115.262H26.4834V117.599ZM29.4639 117.599H32.1182V115.262H29.4639V117.599ZM32.4443 117.599H35.0986V115.262H32.4443V117.599ZM35.4238 117.599H38.0781V115.262H35.4238V117.599ZM38.4043 117.599H41.0586V115.262H38.4043V117.599ZM41.3848 117.599H44.0391V115.262H41.3848V117.599ZM44.3643 117.599H47.0176V115.262H44.3643V117.599ZM47.3438 117.599H49.998V115.262H47.3438V117.599ZM50.3242 117.599H52.9785V115.262H50.3242V117.599ZM56.2842 114.962H59.0674V115.262H56.2842V117.599H59.0684V112.561H56.2842V114.962ZM53.3037 115.262V117.599H55.958V115.262H53.3037ZM53.3037 114.962H55.958V112.561H53.3037V114.962ZM2.60547 114.962H5.29785V112.561H2.60547V114.962ZM5.62402 114.962H8.27734V112.561H5.62402V114.962ZM8.60352 114.962H11.2578V112.561H8.60352V114.962ZM11.584 114.962H14.2373V112.561H11.584V114.962ZM14.5635 114.962H17.2178V112.561H14.5635V114.962ZM17.5439 114.962H20.1982V112.561H17.5439V114.962ZM20.5234 114.962H23.1777V112.561H20.5234V114.962ZM23.5039 114.962H26.1582V112.561H23.5039V114.962ZM26.4834 114.962H29.1377V112.561H26.4834V114.962ZM29.4639 114.962H32.1182V112.561H29.4639V114.962ZM32.4443 114.962H35.0986V112.561H32.4443V114.962ZM35.4238 114.962H38.0781V112.561H35.4238V114.962ZM38.4043 114.962H41.0586V112.561H38.4043V114.962ZM41.3848 114.962H44.0391V112.561H41.3848V114.962ZM44.3643 114.962H47.0176V112.561H44.3643V114.962ZM47.3438 114.962H49.998V112.561H47.3438V114.962ZM50.3242 114.962H52.9785V112.561H50.3242V114.962ZM2.60547 112.261H5.29785V109.859H2.60547V112.261ZM5.62402 112.261H8.27734V109.859H5.62402V112.261ZM8.60352 112.261H11.2578V109.859H8.60352V112.261ZM11.584 112.261H14.2373V109.859H11.584V112.261ZM14.5635 112.261H17.2178V109.859H14.5635V112.261ZM17.5439 112.261H20.1982V109.859H17.5439V112.261ZM20.5234 112.261H23.1777V109.859H20.5234V112.261ZM23.5039 112.261H26.1582V109.859H23.5039V112.261ZM26.4834 112.261H29.1377V109.859H26.4834V112.261ZM29.4639 112.261H32.1182V109.859H29.4639V112.261ZM32.4443 112.261H35.0986V109.859H32.4443V112.261ZM35.4238 112.261H38.0781V109.859H35.4238V112.261ZM38.4043 112.261H41.0586V109.859H38.4043V112.261ZM41.3848 112.261H44.0391V109.859H41.3848V112.261ZM44.3643 112.261H47.0176V109.859H44.3643V112.261ZM47.3438 112.261H49.998V109.859H47.3438V112.261ZM50.3242 112.261H52.9785V109.859H50.3242V112.261ZM56.2842 112.261H59.0684V109.859H56.2842V112.261ZM53.3037 112.261H55.958V109.859H53.3037V112.261ZM2.60547 109.56H5.29785V107.157H2.60547V109.56ZM5.62402 109.56H8.27734V107.157H5.62402V109.56ZM8.60352 109.56H11.2578V107.157H8.60352V109.56ZM11.584 109.56H14.2373V107.157H11.584V109.56ZM14.5635 109.56H17.2178V107.157H14.5635V109.56ZM17.5439 109.56H20.1982V107.157H17.5439V109.56ZM20.5234 109.56H23.1777V107.157H20.5234V109.56ZM23.5039 109.56H26.1582V107.157H23.5039V109.56ZM26.4834 109.56H29.1377V107.157H26.4834V109.56ZM29.4639 109.56H32.1182V107.157H29.4639V109.56ZM32.4443 109.56H35.0986V107.157H32.4443V109.56ZM35.4238 109.56H38.0781V107.157H35.4238V109.56ZM38.4043 109.56H41.0586V107.157H38.4043V109.56ZM41.3848 109.56H44.0391V107.157H41.3848V109.56ZM44.3643 109.56H47.0176V107.157H44.3643V109.56ZM47.3438 109.56H49.998V107.157H47.3438V109.56ZM50.3242 109.56H52.9785V107.157H50.3242V109.56ZM56.2842 106.857H59.0674V107.157H56.2842V109.56H59.0684V104.456H56.2842V106.857ZM53.3037 107.157V109.56H55.958V107.157H53.3037ZM53.3037 106.857H55.958V104.456H53.3037V106.857ZM2.60547 106.857H5.29785V104.456H2.60547V106.857ZM5.62402 106.857H8.27734V104.456H5.62402V106.857ZM8.60352 106.857H11.2578V104.456H8.60352V106.857ZM11.584 106.857H14.2373V104.456H11.584V106.857ZM14.5635 106.857H17.2178V104.456H14.5635V106.857ZM17.5439 106.857H20.1982V104.456H17.5439V106.857ZM20.5234 106.857H23.1777V104.456H20.5234V106.857ZM23.5039 106.857H26.1582V104.456H23.5039V106.857ZM26.4834 106.857H29.1377V104.456H26.4834V106.857ZM29.4639 106.857H32.1182V104.456H29.4639V106.857ZM32.4443 106.857H35.0986V104.456H32.4443V106.857ZM35.4238 106.857H38.0781V104.456H35.4238V106.857ZM38.4043 106.857H41.0586V104.456H38.4043V106.857ZM41.3848 106.857H44.0391V104.456H41.3848V106.857ZM44.3643 106.857H47.0176V104.456H44.3643V106.857ZM47.3438 106.857H49.998V104.456H47.3438V106.857ZM50.3242 106.857H52.9785V104.456H50.3242V106.857ZM2.60547 104.156H5.29785V101.755H2.60547V104.156ZM5.62402 104.156H8.27734V101.755H5.62402V104.156ZM8.60352 104.156H11.2578V101.755H8.60352V104.156ZM11.584 104.156H14.2373V101.755H11.584V104.156ZM14.5635 104.156H17.2178V101.755H14.5635V104.156ZM17.5439 104.156H20.1982V101.755H17.5439V104.156ZM20.5234 104.156H23.1777V101.755H20.5234V104.156ZM23.5039 104.156H26.1582V101.755H23.5039V104.156ZM26.4834 104.156H29.1377V101.755H26.4834V104.156ZM29.4639 104.156H32.1182V101.755H29.4639V104.156ZM32.4443 104.156H35.0986V101.755H32.4443V104.156ZM35.4238 104.156H38.0781V101.755H35.4238V104.156ZM38.4043 104.156H41.0586V101.755H38.4043V104.156ZM41.3848 104.156H44.0391V101.755H41.3848V104.156ZM44.3643 104.156H47.0176V101.755H44.3643V104.156ZM47.3438 104.156H49.998V101.755H47.3438V104.156ZM50.3242 104.156H52.9785V101.755H50.3242V104.156ZM56.2842 104.156H59.0684V101.755H56.2842V104.156ZM53.3037 104.156H55.958V101.755H53.3037V104.156ZM2.60547 101.454H5.29785V99.0527H2.60547V101.454ZM5.62402 101.454H8.27734V99.0527H5.62402V101.454ZM8.60352 101.454H11.2578V99.0527H8.60352V101.454ZM11.584 101.454H14.2373V99.0527H11.584V101.454ZM14.5635 101.454H17.2178V99.0527H14.5635V101.454ZM17.5439 101.454H20.1982V99.0527H17.5439V101.454ZM20.5234 101.454H23.1777V99.0527H20.5234V101.454ZM23.5039 101.454H26.1582V99.0527H23.5039V101.454ZM26.4834 101.454H29.1377V99.0527H26.4834V101.454ZM29.4639 101.454H32.1182V99.0527H29.4639V101.454ZM32.4443 101.454H35.0986V99.0527H32.4443V101.454ZM35.4238 101.454H38.0781V99.0527H35.4238V101.454ZM38.4043 101.454H41.0586V99.0527H38.4043V101.454ZM41.3848 101.454H44.0391V99.0527H41.3848V101.454ZM44.3643 101.454H47.0176V99.0527H44.3643V101.454ZM47.3438 101.454H49.998V99.0527H47.3438V101.454ZM50.3242 101.454H52.9785V99.0527H50.3242V101.454ZM56.2842 98.7529H59.0674V99.0527H56.2842V101.454H59.0684V96.3516H56.2842V98.7529ZM53.3037 99.0527V101.454H55.958V99.0527H53.3037ZM53.3037 98.7529H55.958V96.3516H53.3037V98.7529ZM2.60547 98.7529H5.29785V96.3516H2.60547V98.7529ZM5.62402 98.7529H8.27734V96.3516H5.62402V98.7529ZM8.60352 98.7529H11.2578V96.3516H8.60352V98.7529ZM11.584 98.7529H14.2373V96.3516H11.584V98.7529ZM14.5635 98.7529H17.2178V96.3516H14.5635V98.7529ZM17.5439 98.7529H20.1982V96.3516H17.5439V98.7529ZM20.5234 98.7529H23.1777V96.3516H20.5234V98.7529ZM23.5039 98.7529H26.1582V96.3516H23.5039V98.7529ZM26.4834 98.7529H29.1377V96.3516H26.4834V98.7529ZM29.4639 98.7529H32.1182V96.3516H29.4639V98.7529ZM32.4443 98.7529H35.0986V96.3516H32.4443V98.7529ZM35.4238 98.7529H38.0781V96.3516H35.4238V98.7529ZM38.4043 98.7529H41.0586V96.3516H38.4043V98.7529ZM41.3848 98.7529H44.0391V96.3516H41.3848V98.7529ZM44.3643 98.7529H47.0176V96.3516H44.3643V98.7529ZM47.3438 98.7529H49.998V96.3516H47.3438V98.7529ZM50.3242 98.7529H52.9785V96.3516H50.3242V98.7529ZM2.60547 96.0518H5.29785V93.6504H2.60547V96.0518ZM5.62402 96.0518H8.27734V93.6504H5.62402V96.0518ZM8.60352 96.0518H11.2578V93.6504H8.60352V96.0518ZM11.584 96.0518H14.2373V93.6504H11.584V96.0518ZM14.5635 96.0518H17.2178V93.6504H14.5635V96.0518ZM17.5439 96.0518H20.1982V93.6504H17.5439V96.0518ZM20.5234 96.0518H23.1777V93.6504H20.5234V96.0518ZM23.5039 96.0518H26.1582V93.6504H23.5039V96.0518ZM26.4834 96.0518H29.1377V93.6504H26.4834V96.0518ZM29.4639 96.0518H32.1182V93.6504H29.4639V96.0518ZM32.4443 96.0518H35.0986V93.6504H32.4443V96.0518ZM35.4238 96.0518H38.0781V93.6504H35.4238V96.0518ZM38.4043 96.0518H41.0586V93.6504H38.4043V96.0518ZM41.3848 96.0518H44.0391V93.6504H41.3848V96.0518ZM44.3643 96.0518H47.0176V93.6504H44.3643V96.0518ZM47.3438 96.0518H49.998V93.6504H47.3438V96.0518ZM50.3242 96.0518H52.9785V93.6504H50.3242V96.0518ZM56.2842 96.0518H59.0684V93.6504H56.2842V96.0518ZM53.3037 96.0518H55.958V93.6504H53.3037V96.0518ZM2.60547 93.3496H5.29785V90.9482H2.60547V93.3496ZM5.62402 93.3496H8.27734V90.9482H5.62402V93.3496ZM8.60352 93.3496H11.2578V90.9482H8.60352V93.3496ZM11.584 93.3496H14.2373V90.9482H11.584V93.3496ZM14.5635 93.3496H17.2178V90.9482H14.5635V93.3496ZM17.5439 93.3496H20.1982V90.9482H17.5439V93.3496ZM20.5234 93.3496H23.1777V90.9482H20.5234V93.3496ZM23.5039 93.3496H26.1582V90.9482H23.5039V93.3496ZM26.4834 93.3496H29.1377V90.9482H26.4834V93.3496ZM29.4639 93.3496H32.1182V90.9482H29.4639V93.3496ZM32.4443 93.3496H35.0986V90.9482H32.4443V93.3496ZM35.4238 93.3496H38.0781V90.9482H35.4238V93.3496ZM38.4043 93.3496H41.0586V90.9482H38.4043V93.3496ZM41.3848 93.3496H44.0391V90.9482H41.3848V93.3496ZM44.3643 93.3496H47.0176V90.9482H44.3643V93.3496ZM47.3438 93.3496H49.998V90.9482H47.3438V93.3496ZM50.3242 93.3496H52.9785V90.9482H50.3242V93.3496ZM56.2842 58.2295H59.0674V58.5303H56.2842V60.9316H59.0674V61.2324H56.2842V63.6328H59.0674V63.9336H56.2842V66.335H59.0674V66.6348H56.2842V69.0361H59.0674V69.3369H56.2842V71.7373H59.0674V72.0381H56.2842V74.4395H59.0674V74.7393H56.2842V77.1406H59.0674V77.4414H56.2842V79.8418H59.0674V80.1426H56.2842V82.5439H59.0674V82.8438H56.2842V85.2451H59.0674V85.5459H56.2842V87.9473H59.0674V88.2471H56.2842V90.6484H59.0674V90.9482H56.2842V93.3496H59.0684V55.8291H56.2842V58.2295ZM53.3037 90.9482V93.3496H55.958V90.9482H53.3037ZM53.3037 88.2471V90.6484H55.958V88.2471H53.3037ZM2.60547 90.6484H5.29785V88.2471H2.60547V90.6484ZM5.62402 90.6484H8.27734V88.2471H5.62402V90.6484ZM8.60352 90.6484H11.2578V88.2471H8.60352V90.6484ZM11.584 90.6484H14.2373V88.2471H11.584V90.6484ZM14.5635 90.6484H17.2178V88.2471H14.5635V90.6484ZM17.5439 90.6484H20.1982V88.2471H17.5439V90.6484ZM20.5234 90.6484H23.1777V88.2471H20.5234V90.6484ZM23.5039 90.6484H26.1582V88.2471H23.5039V90.6484ZM26.4834 90.6484H29.1377V88.2471H26.4834V90.6484ZM29.4639 90.6484H32.1182V88.2471H29.4639V90.6484ZM32.4443 90.6484H35.0986V88.2471H32.4443V90.6484ZM35.4238 90.6484H38.0781V88.2471H35.4238V90.6484ZM38.4043 90.6484H41.0586V88.2471H38.4043V90.6484ZM41.3848 90.6484H44.0391V88.2471H41.3848V90.6484ZM44.3643 90.6484H47.0176V88.2471H44.3643V90.6484ZM47.3438 90.6484H49.998V88.2471H47.3438V90.6484ZM50.3242 90.6484H52.9785V88.2471H50.3242V90.6484ZM53.3037 85.5459V87.9473H55.958V85.5459H53.3037ZM2.60547 87.9473H5.29785V85.5459H2.60547V87.9473ZM5.62402 87.9473H8.27734V85.5459H5.62402V87.9473ZM8.60352 87.9473H11.2578V85.5459H8.60352V87.9473ZM11.584 87.9473H14.2373V85.5459H11.584V87.9473ZM14.5635 87.9473H17.2178V85.5459H14.5635V87.9473ZM17.5439 87.9473H20.1982V85.5459H17.5439V87.9473ZM20.5234 87.9473H23.1777V85.5459H20.5234V87.9473ZM23.5039 87.9473H26.1582V85.5459H23.5039V87.9473ZM26.4834 87.9473H29.1377V85.5459H26.4834V87.9473ZM29.4639 87.9473H32.1182V85.5459H29.4639V87.9473ZM32.4443 87.9473H35.0986V85.5459H32.4443V87.9473ZM35.4238 87.9473H38.0781V85.5459H35.4238V87.9473ZM38.4043 87.9473H41.0586V85.5459H38.4043V87.9473ZM41.3848 87.9473H44.0391V85.5459H41.3848V87.9473ZM44.3643 87.9473H47.0176V85.5459H44.3643V87.9473ZM47.3438 87.9473H49.998V85.5459H47.3438V87.9473ZM50.3242 87.9473H52.9785V85.5459H50.3242V87.9473ZM53.3037 82.8438V85.2451H55.958V82.8438H53.3037ZM2.60547 85.2451H5.29785V82.8438H2.60547V85.2451ZM5.62402 85.2451H8.27734V82.8438H5.62402V85.2451ZM8.60352 85.2451H11.2578V82.8438H8.60352V85.2451ZM11.584 85.2451H14.2373V82.8438H11.584V85.2451ZM14.5635 85.2451H17.2178V82.8438H14.5635V85.2451ZM17.5439 85.2451H20.1982V82.8438H17.5439V85.2451ZM20.5234 85.2451H23.1777V82.8438H20.5234V85.2451ZM23.5039 85.2451H26.1582V82.8438H23.5039V85.2451ZM26.4834 85.2451H29.1377V82.8438H26.4834V85.2451ZM29.4639 85.2451H32.1182V82.8438H29.4639V85.2451ZM32.4443 85.2451H35.0986V82.8438H32.4443V85.2451ZM35.4238 85.2451H38.0781V82.8438H35.4238V85.2451ZM38.4043 85.2451H41.0586V82.8438H38.4043V85.2451ZM41.3848 85.2451H44.0391V82.8438H41.3848V85.2451ZM44.3643 85.2451H47.0176V82.8438H44.3643V85.2451ZM47.3438 85.2451H49.998V82.8438H47.3438V85.2451ZM50.3242 85.2451H52.9785V82.8438H50.3242V85.2451ZM53.3037 80.1426V82.5439H55.958V80.1426H53.3037ZM2.60547 82.5439H5.29785V80.1426H2.60547V82.5439ZM5.62402 82.5439H8.27734V80.1426H5.62402V82.5439ZM8.60352 82.5439H11.2578V80.1426H8.60352V82.5439ZM11.584 82.5439H14.2373V80.1426H11.584V82.5439ZM14.5635 82.5439H17.2178V80.1426H14.5635V82.5439ZM17.5439 82.5439H20.1982V80.1426H17.5439V82.5439ZM20.5234 82.5439H23.1777V80.1426H20.5234V82.5439ZM23.5039 82.5439H26.1582V80.1426H23.5039V82.5439ZM26.4834 82.5439H29.1377V80.1426H26.4834V82.5439ZM29.4639 82.5439H32.1182V80.1426H29.4639V82.5439ZM32.4443 82.5439H35.0986V80.1426H32.4443V82.5439ZM35.4238 82.5439H38.0781V80.1426H35.4238V82.5439ZM38.4043 82.5439H41.0586V80.1426H38.4043V82.5439ZM41.3848 82.5439H44.0391V80.1426H41.3848V82.5439ZM44.3643 82.5439H47.0176V80.1426H44.3643V82.5439ZM47.3438 82.5439H49.998V80.1426H47.3438V82.5439ZM50.3242 82.5439H52.9785V80.1426H50.3242V82.5439ZM53.3037 77.4414V79.8418H55.958V77.4414H53.3037ZM2.60547 79.8418H5.29785V77.4414H2.60547V79.8418ZM5.62402 79.8418H8.27734V77.4414H5.62402V79.8418ZM8.60352 79.8418H11.2578V77.4414H8.60352V79.8418ZM11.584 79.8418H14.2373V77.4414H11.584V79.8418ZM14.5635 79.8418H17.2178V77.4414H14.5635V79.8418ZM17.5439 79.8418H20.1982V77.4414H17.5439V79.8418ZM20.5234 79.8418H23.1777V77.4414H20.5234V79.8418ZM23.5039 79.8418H26.1582V77.4414H23.5039V79.8418ZM26.4834 79.8418H29.1377V77.4414H26.4834V79.8418ZM29.4639 79.8418H32.1182V77.4414H29.4639V79.8418ZM32.4443 79.8418H35.0986V77.4414H32.4443V79.8418ZM35.4238 79.8418H38.0781V77.4414H35.4238V79.8418ZM38.4043 79.8418H41.0586V77.4414H38.4043V79.8418ZM41.3848 79.8418H44.0391V77.4414H41.3848V79.8418ZM44.3643 79.8418H47.0176V77.4414H44.3643V79.8418ZM47.3438 79.8418H49.998V77.4414H47.3438V79.8418ZM50.3242 79.8418H52.9785V77.4414H50.3242V79.8418ZM53.3037 74.7393V77.1406H55.958V74.7393H53.3037ZM2.60547 77.1406H5.29785V74.7393H2.60547V77.1406ZM5.62402 77.1406H8.27734V74.7393H5.62402V77.1406ZM8.60352 77.1406H11.2578V74.7393H8.60352V77.1406ZM11.584 77.1406H14.2373V74.7393H11.584V77.1406ZM14.5635 77.1406H17.2178V74.7393H14.5635V77.1406ZM17.5439 77.1406H20.1982V74.7393H17.5439V77.1406ZM20.5234 77.1406H23.1777V74.7393H20.5234V77.1406ZM23.5039 77.1406H26.1582V74.7393H23.5039V77.1406ZM26.4834 77.1406H29.1377V74.7393H26.4834V77.1406ZM29.4639 77.1406H32.1182V74.7393H29.4639V77.1406ZM32.4443 77.1406H35.0986V74.7393H32.4443V77.1406ZM35.4238 77.1406H38.0781V74.7393H35.4238V77.1406ZM38.4043 77.1406H41.0586V74.7393H38.4043V77.1406ZM41.3848 77.1406H44.0391V74.7393H41.3848V77.1406ZM44.3643 77.1406H47.0176V74.7393H44.3643V77.1406ZM47.3438 77.1406H49.998V74.7393H47.3438V77.1406ZM50.3242 77.1406H52.9785V74.7393H50.3242V77.1406ZM53.3037 72.0381V74.4395H55.958V72.0381H53.3037ZM2.60547 74.4395H5.29785V72.0381H2.60547V74.4395ZM5.62402 74.4395H8.27734V72.0381H5.62402V74.4395ZM8.60352 74.4395H11.2578V72.0381H8.60352V74.4395ZM11.584 74.4395H14.2373V72.0381H11.584V74.4395ZM14.5635 74.4395H17.2178V72.0381H14.5635V74.4395ZM17.5439 74.4395H20.1982V72.0381H17.5439V74.4395ZM20.5234 74.4395H23.1777V72.0381H20.5234V74.4395ZM23.5039 74.4395H26.1582V72.0381H23.5039V74.4395ZM26.4834 74.4395H29.1377V72.0381H26.4834V74.4395ZM29.4639 74.4395H32.1182V72.0381H29.4639V74.4395ZM32.4443 74.4395H35.0986V72.0381H32.4443V74.4395ZM35.4238 74.4395H38.0781V72.0381H35.4238V74.4395ZM38.4043 74.4395H41.0586V72.0381H38.4043V74.4395ZM41.3848 74.4395H44.0391V72.0381H41.3848V74.4395ZM44.3643 74.4395H47.0176V72.0381H44.3643V74.4395ZM47.3438 74.4395H49.998V72.0381H47.3438V74.4395ZM50.3242 74.4395H52.9785V72.0381H50.3242V74.4395ZM53.3037 69.3369V71.7373H55.958V69.3369H53.3037ZM2.60547 71.7373H5.29785V69.3369H2.60547V71.7373ZM5.62402 71.7373H8.27734V69.3369H5.62402V71.7373ZM8.60352 71.7373H11.2578V69.3369H8.60352V71.7373ZM11.584 71.7373H14.2373V69.3369H11.584V71.7373ZM14.5635 71.7373H17.2178V69.3369H14.5635V71.7373ZM17.5439 71.7373H20.1982V69.3369H17.5439V71.7373ZM20.5234 71.7373H23.1777V69.3369H20.5234V71.7373ZM23.5039 71.7373H26.1582V69.3369H23.5039V71.7373ZM26.4834 71.7373H29.1377V69.3369H26.4834V71.7373ZM29.4639 71.7373H32.1182V69.3369H29.4639V71.7373ZM32.4443 71.7373H35.0986V69.3369H32.4443V71.7373ZM35.4238 71.7373H38.0781V69.3369H35.4238V71.7373ZM38.4043 71.7373H41.0586V69.3369H38.4043V71.7373ZM41.3848 71.7373H44.0391V69.3369H41.3848V71.7373ZM44.3643 71.7373H47.0176V69.3369H44.3643V71.7373ZM47.3438 71.7373H49.998V69.3369H47.3438V71.7373ZM50.3242 71.7373H52.9785V69.3369H50.3242V71.7373ZM53.3037 66.6348V69.0361H55.958V66.6348H53.3037ZM2.60547 69.0361H5.29785V66.6348H2.60547V69.0361ZM5.62402 69.0361H8.27734V66.6348H5.62402V69.0361ZM8.60352 69.0361H11.2578V66.6348H8.60352V69.0361ZM11.584 69.0361H14.2373V66.6348H11.584V69.0361ZM14.5635 69.0361H17.2178V66.6348H14.5635V69.0361ZM17.5439 69.0361H20.1982V66.6348H17.5439V69.0361ZM20.5234 69.0361H23.1777V66.6348H20.5234V69.0361ZM23.5039 69.0361H26.1582V66.6348H23.5039V69.0361ZM26.4834 69.0361H29.1377V66.6348H26.4834V69.0361ZM29.4639 69.0361H32.1182V66.6348H29.4639V69.0361ZM32.4443 69.0361H35.0986V66.6348H32.4443V69.0361ZM35.4238 69.0361H38.0781V66.6348H35.4238V69.0361ZM38.4043 69.0361H41.0586V66.6348H38.4043V69.0361ZM41.3848 69.0361H44.0391V66.6348H41.3848V69.0361ZM44.3643 69.0361H47.0176V66.6348H44.3643V69.0361ZM47.3438 69.0361H49.998V66.6348H47.3438V69.0361ZM50.3242 69.0361H52.9785V66.6348H50.3242V69.0361ZM53.3037 63.9336V66.335H55.958V63.9336H53.3037ZM2.60547 66.335H5.29785V63.9336H2.60547V66.335ZM5.62402 66.335H8.27734V63.9336H5.62402V66.335ZM8.60352 66.335H11.2578V63.9336H8.60352V66.335ZM11.584 66.335H14.2373V63.9336H11.584V66.335ZM14.5635 66.335H17.2178V63.9336H14.5635V66.335ZM17.5439 66.335H20.1982V63.9336H17.5439V66.335ZM20.5234 66.335H23.1777V63.9336H20.5234V66.335ZM23.5039 66.335H26.1582V63.9336H23.5039V66.335ZM26.4834 66.335H29.1377V63.9336H26.4834V66.335ZM29.4639 66.335H32.1182V63.9336H29.4639V66.335ZM32.4443 66.335H35.0986V63.9336H32.4443V66.335ZM35.4238 66.335H38.0781V63.9336H35.4238V66.335ZM38.4043 66.335H41.0586V63.9336H38.4043V66.335ZM41.3848 66.335H44.0391V63.9336H41.3848V66.335ZM44.3643 66.335H47.0176V63.9336H44.3643V66.335ZM47.3438 66.335H49.998V63.9336H47.3438V66.335ZM50.3242 66.335H52.9785V63.9336H50.3242V66.335ZM53.3037 61.2324V63.6328H55.958V61.2324H53.3037ZM2.60547 63.6328H5.29785V61.2324H2.60547V63.6328ZM5.62402 63.6328H8.27734V61.2324H5.62402V63.6328ZM8.60352 63.6328H11.2578V61.2324H8.60352V63.6328ZM11.584 63.6328H14.2373V61.2324H11.584V63.6328ZM14.5635 63.6328H17.2178V61.2324H14.5635V63.6328ZM17.5439 63.6328H20.1982V61.2324H17.5439V63.6328ZM20.5234 63.6328H23.1777V61.2324H20.5234V63.6328ZM23.5039 63.6328H26.1582V61.2324H23.5039V63.6328ZM26.4834 63.6328H29.1377V61.2324H26.4834V63.6328ZM29.4639 63.6328H32.1182V61.2324H29.4639V63.6328ZM32.4443 63.6328H35.0986V61.2324H32.4443V63.6328ZM35.4238 63.6328H38.0781V61.2324H35.4238V63.6328ZM38.4043 63.6328H41.0586V61.2324H38.4043V63.6328ZM41.3848 63.6328H44.0391V61.2324H41.3848V63.6328ZM44.3643 63.6328H47.0176V61.2324H44.3643V63.6328ZM47.3438 63.6328H49.998V61.2324H47.3438V63.6328ZM50.3242 63.6328H52.9785V61.2324H50.3242V63.6328ZM53.3037 58.5303V60.9316H55.958V58.5303H53.3037ZM2.60547 60.9316H5.29785V58.5303H2.60547V60.9316ZM5.62402 60.9316H8.27734V58.5303H5.62402V60.9316ZM8.60352 60.9316H11.2578V58.5303H8.60352V60.9316ZM11.584 60.9316H14.2373V58.5303H11.584V60.9316ZM14.5635 60.9316H17.2178V58.5303H14.5635V60.9316ZM17.5439 60.9316H20.1982V58.5303H17.5439V60.9316ZM20.5234 60.9316H23.1777V58.5303H20.5234V60.9316ZM23.5039 60.9316H26.1582V58.5303H23.5039V60.9316ZM26.4834 60.9316H29.1377V58.5303H26.4834V60.9316ZM29.4639 60.9316H32.1182V58.5303H29.4639V60.9316ZM32.4443 60.9316H35.0986V58.5303H32.4443V60.9316ZM35.4238 60.9316H38.0781V58.5303H35.4238V60.9316ZM38.4043 60.9316H41.0586V58.5303H38.4043V60.9316ZM41.3848 60.9316H44.0391V58.5303H41.3848V60.9316ZM44.3643 60.9316H47.0176V58.5303H44.3643V60.9316ZM47.3438 60.9316H49.998V58.5303H47.3438V60.9316ZM50.3242 60.9316H52.9785V58.5303H50.3242V60.9316ZM53.3037 58.2295H55.958V55.8291H53.3037V58.2295ZM2.60547 58.2295H5.29785V55.8291H2.60547V58.2295ZM5.62402 58.2295H8.27734V55.8291H5.62402V58.2295ZM8.60352 58.2295H11.2578V55.8291H8.60352V58.2295ZM11.584 58.2295H14.2373V55.8291H11.584V58.2295ZM14.5635 58.2295H17.2178V55.8291H14.5635V58.2295ZM17.5439 58.2295H20.1982V55.8291H17.5439V58.2295ZM20.5234 58.2295H23.1777V55.8291H20.5234V58.2295ZM23.5039 58.2295H26.1582V55.8291H23.5039V58.2295ZM26.4834 58.2295H29.1377V55.8291H26.4834V58.2295ZM29.4639 58.2295H32.1182V55.8291H29.4639V58.2295ZM32.4443 58.2295H35.0986V55.8291H32.4443V58.2295ZM35.4238 58.2295H38.0781V55.8291H35.4238V58.2295ZM38.4043 58.2295H41.0586V55.8291H38.4043V58.2295ZM41.3848 58.2295H44.0391V55.8291H41.3848V58.2295ZM44.3643 58.2295H47.0176V55.8291H44.3643V58.2295ZM47.3438 58.2295H49.998V55.8291H47.3438V58.2295ZM50.3242 58.2295H52.9785V55.8291H50.3242V58.2295ZM2.60547 55.5283H5.29785V53.127H2.60547V55.5283ZM5.62402 55.5283H8.27734V53.127H5.62402V55.5283ZM8.60352 55.5283H11.2578V53.127H8.60352V55.5283ZM11.584 55.5283H14.2373V53.127H11.584V55.5283ZM14.5635 55.5283H17.2178V53.127H14.5635V55.5283ZM17.5439 55.5283H20.1982V53.127H17.5439V55.5283ZM20.5234 55.5283H23.1777V53.127H20.5234V55.5283ZM23.5039 55.5283H26.1582V53.127H23.5039V55.5283ZM26.4834 55.5283H29.1377V53.127H26.4834V55.5283ZM29.4639 55.5283H32.1182V53.127H29.4639V55.5283ZM32.4443 55.5283H35.0986V53.127H32.4443V55.5283ZM35.4238 55.5283H38.0781V53.127H35.4238V55.5283ZM38.4043 55.5283H41.0586V53.127H38.4043V55.5283ZM41.3848 55.5283H44.0391V53.127H41.3848V55.5283ZM44.3643 55.5283H47.0176V53.127H44.3643V55.5283ZM47.3438 55.5283H49.998V53.127H47.3438V55.5283ZM50.3242 55.5283H52.9785V53.127H50.3242V55.5283ZM56.2842 55.5283H59.0684V53.127H56.2842V55.5283ZM53.3037 55.5283H55.958V53.127H53.3037V55.5283ZM2.60547 52.8271H5.29785V50.4258H2.60547V52.8271ZM5.62402 52.8271H8.27734V50.4258H5.62402V52.8271ZM8.60352 52.8271H11.2578V50.4258H8.60352V52.8271ZM11.584 52.8271H14.2373V50.4258H11.584V52.8271ZM14.5635 52.8271H17.2178V50.4258H14.5635V52.8271ZM17.5439 52.8271H20.1982V50.4258H17.5439V52.8271ZM20.5234 52.8271H23.1777V50.4258H20.5234V52.8271ZM23.5039 52.8271H26.1582V50.4258H23.5039V52.8271ZM26.4834 52.8271H29.1377V50.4258H26.4834V52.8271ZM29.4639 52.8271H32.1182V50.4258H29.4639V52.8271ZM32.4443 52.8271H35.0986V50.4258H32.4443V52.8271ZM35.4238 52.8271H38.0781V50.4258H35.4238V52.8271ZM38.4043 52.8271H41.0586V50.4258H38.4043V52.8271ZM41.3848 52.8271H44.0391V50.4258H41.3848V52.8271ZM44.3643 52.8271H47.0176V50.4258H44.3643V52.8271ZM47.3438 52.8271H49.998V50.4258H47.3438V52.8271ZM50.3242 52.8271H52.9785V50.4258H50.3242V52.8271ZM56.2842 50.125H59.0674V50.4258H56.2842V52.8271H59.0684V47.7246H56.2842V50.125ZM53.3037 50.4258V52.8271H55.958V50.4258H53.3037ZM53.3037 50.125H55.958V47.7246H53.3037V50.125ZM2.60547 50.125H5.29785V47.7246H2.60547V50.125ZM5.62402 50.125H8.27734V47.7246H5.62402V50.125ZM8.60352 50.125H11.2578V47.7246H8.60352V50.125ZM11.584 50.125H14.2373V47.7246H11.584V50.125ZM14.5635 50.125H17.2178V47.7246H14.5635V50.125ZM17.5439 50.125H20.1982V47.7246H17.5439V50.125ZM20.5234 50.125H23.1777V47.7246H20.5234V50.125ZM23.5039 50.125H26.1582V47.7246H23.5039V50.125ZM26.4834 50.125H29.1377V47.7246H26.4834V50.125ZM29.4639 50.125H32.1182V47.7246H29.4639V50.125ZM32.4443 50.125H35.0986V47.7246H32.4443V50.125ZM35.4238 50.125H38.0781V47.7246H35.4238V50.125ZM38.4043 50.125H41.0586V47.7246H38.4043V50.125ZM41.3848 50.125H44.0391V47.7246H41.3848V50.125ZM44.3643 50.125H47.0176V47.7246H44.3643V50.125ZM47.3438 50.125H49.998V47.7246H47.3438V50.125ZM50.3242 50.125H52.9785V47.7246H50.3242V50.125ZM2.60547 47.4238H5.29785V45.0225H2.60547V47.4238ZM5.62402 47.4238H8.27734V45.0225H5.62402V47.4238ZM8.60352 47.4238H11.2578V45.0225H8.60352V47.4238ZM11.584 47.4238H14.2373V45.0225H11.584V47.4238ZM14.5635 47.4238H17.2178V45.0225H14.5635V47.4238ZM17.5439 47.4238H20.1982V45.0225H17.5439V47.4238ZM20.5234 47.4238H23.1777V45.0225H20.5234V47.4238ZM23.5039 47.4238H26.1582V45.0225H23.5039V47.4238ZM26.4834 47.4238H29.1377V45.0225H26.4834V47.4238ZM29.4639 47.4238H32.1182V45.0225H29.4639V47.4238ZM32.4443 47.4238H35.0986V45.0225H32.4443V47.4238ZM35.4238 47.4238H38.0781V45.0225H35.4238V47.4238ZM38.4043 47.4238H41.0586V45.0225H38.4043V47.4238ZM41.3848 47.4238H44.0391V45.0225H41.3848V47.4238ZM44.3643 47.4238H47.0176V45.0225H44.3643V47.4238ZM47.3438 47.4238H49.998V45.0225H47.3438V47.4238ZM50.3242 47.4238H52.9785V45.0225H50.3242V47.4238ZM56.2842 47.4238H59.0684V45.0225H56.2842V47.4238ZM53.3037 47.4238H55.958V45.0225H53.3037V47.4238ZM2.60547 44.7227H5.29785V42.3213H2.60547V44.7227ZM5.62402 44.7227H8.27734V42.3213H5.62402V44.7227ZM8.60352 44.7227H11.2578V42.3213H8.60352V44.7227ZM11.584 44.7227H14.2373V42.3213H11.584V44.7227ZM14.5635 44.7227H17.2178V42.3213H14.5635V44.7227ZM17.5439 44.7227H20.1982V42.3213H17.5439V44.7227ZM20.5234 44.7227H23.1777V42.3213H20.5234V44.7227ZM23.5039 44.7227H26.1582V42.3213H23.5039V44.7227ZM26.4834 44.7227H29.1377V42.3213H26.4834V44.7227ZM29.4639 44.7227H32.1182V42.3213H29.4639V44.7227ZM32.4443 44.7227H35.0986V42.3213H32.4443V44.7227ZM35.4238 44.7227H38.0781V42.3213H35.4238V44.7227ZM38.4043 44.7227H41.0586V42.3213H38.4043V44.7227ZM41.3848 44.7227H44.0391V42.3213H41.3848V44.7227ZM44.3643 44.7227H47.0176V42.3213H44.3643V44.7227ZM47.3438 44.7227H49.998V42.3213H47.3438V44.7227ZM50.3242 44.7227H52.9785V42.3213H50.3242V44.7227ZM56.2842 42.0205H59.0674V42.3213H56.2842V44.7227H59.0684V39.6201H56.2842V42.0205ZM53.3037 42.3213V44.7227H55.958V42.3213H53.3037ZM53.3037 42.0205H55.958V39.6201H53.3037V42.0205ZM2.60547 42.0205H5.29785V39.6201H2.60547V42.0205ZM5.62402 42.0205H8.27734V39.6201H5.62402V42.0205ZM8.60352 42.0205H11.2578V39.6201H8.60352V42.0205ZM11.584 42.0205H14.2373V39.6201H11.584V42.0205ZM14.5635 42.0205H17.2178V39.6201H14.5635V42.0205ZM17.5439 42.0205H20.1982V39.6201H17.5439V42.0205ZM20.5234 42.0205H23.1777V39.6201H20.5234V42.0205ZM23.5039 42.0205H26.1582V39.6201H23.5039V42.0205ZM26.4834 42.0205H29.1377V39.6201H26.4834V42.0205ZM29.4639 42.0205H32.1182V39.6201H29.4639V42.0205ZM32.4443 42.0205H35.0986V39.6201H32.4443V42.0205ZM35.4238 42.0205H38.0781V39.6201H35.4238V42.0205ZM38.4043 42.0205H41.0586V39.6201H38.4043V42.0205ZM41.3848 42.0205H44.0391V39.6201H41.3848V42.0205ZM44.3643 42.0205H47.0176V39.6201H44.3643V42.0205ZM47.3438 42.0205H49.998V39.6201H47.3438V42.0205ZM50.3242 42.0205H52.9785V39.6201H50.3242V42.0205ZM2.60547 39.3193H5.29785V36.918H2.60547V39.3193ZM5.62402 39.3193H8.27734V36.918H5.62402V39.3193ZM8.60352 39.3193H11.2578V36.918H8.60352V39.3193ZM11.584 39.3193H14.2373V36.918H11.584V39.3193ZM14.5635 39.3193H17.2178V36.918H14.5635V39.3193ZM17.5439 39.3193H20.1982V36.918H17.5439V39.3193ZM20.5234 39.3193H23.1777V36.918H20.5234V39.3193ZM23.5039 39.3193H26.1582V36.918H23.5039V39.3193ZM26.4834 39.3193H29.1377V36.918H26.4834V39.3193ZM29.4639 39.3193H32.1182V36.918H29.4639V39.3193ZM32.4443 39.3193H35.0986V36.918H32.4443V39.3193ZM35.4238 39.3193H38.0781V36.918H35.4238V39.3193ZM38.4043 39.3193H41.0586V36.918H38.4043V39.3193ZM41.3848 39.3193H44.0391V36.918H41.3848V39.3193ZM44.3643 39.3193H47.0176V36.918H44.3643V39.3193ZM47.3438 39.3193H49.998V36.918H47.3438V39.3193ZM50.3242 39.3193H52.9785V36.918H50.3242V39.3193ZM56.2842 39.3193H59.0684V36.918H56.2842V39.3193ZM53.3037 39.3193H55.958V36.918H53.3037V39.3193ZM2.60547 36.6182H5.29785V34.2168H2.60547V36.6182ZM5.62402 36.6182H8.27734V34.2168H5.62402V36.6182ZM8.60352 36.6182H11.2578V34.2168H8.60352V36.6182ZM11.584 36.6182H14.2373V34.2168H11.584V36.6182ZM14.5635 36.6182H17.2178V34.2168H14.5635V36.6182ZM17.5439 36.6182H20.1982V34.2168H17.5439V36.6182ZM20.5234 36.6182H23.1777V34.2168H20.5234V36.6182ZM23.5039 36.6182H26.1582V34.2168H23.5039V36.6182ZM26.4834 36.6182H29.1377V34.2168H26.4834V36.6182ZM29.4639 36.6182H32.1182V34.2168H29.4639V36.6182ZM32.4443 36.6182H35.0986V34.2168H32.4443V36.6182ZM35.4238 36.6182H38.0781V34.2168H35.4238V36.6182ZM38.4043 36.6182H41.0586V34.2168H38.4043V36.6182ZM41.3848 36.6182H44.0391V34.2168H41.3848V36.6182ZM44.3643 36.6182H47.0176V34.2168H44.3643V36.6182ZM47.3438 36.6182H49.998V34.2168H47.3438V36.6182ZM50.3242 36.6182H52.9785V34.2168H50.3242V36.6182ZM56.2842 33.916H59.0674V34.2168H56.2842V36.6182H59.0684V31.5146H56.2842V33.916ZM53.3037 34.2168V36.6182H55.958V34.2168H53.3037ZM53.3037 33.916H55.958V31.5146H53.3037V33.916ZM2.60547 33.916H5.29785V31.5146H2.60547V33.916ZM5.62402 33.916H8.27734V31.5146H5.62402V33.916ZM8.60352 33.916H11.2578V31.5146H8.60352V33.916ZM11.584 33.916H14.2373V31.5146H11.584V33.916ZM14.5635 33.916H17.2178V31.5146H14.5635V33.916ZM17.5439 33.916H20.1982V31.5146H17.5439V33.916ZM20.5234 33.916H23.1777V31.5146H20.5234V33.916ZM23.5039 33.916H26.1582V31.5146H23.5039V33.916ZM26.4834 33.916H29.1377V31.5146H26.4834V33.916ZM29.4639 33.916H32.1182V31.5146H29.4639V33.916ZM32.4443 33.916H35.0986V31.5146H32.4443V33.916ZM35.4238 33.916H38.0781V31.5146H35.4238V33.916ZM38.4043 33.916H41.0586V31.5146H38.4043V33.916ZM41.3848 33.916H44.0391V31.5146H41.3848V33.916ZM44.3643 33.916H47.0176V31.5146H44.3643V33.916ZM47.3438 33.916H49.998V31.5146H47.3438V33.916ZM50.3242 33.916H52.9785V31.5146H50.3242V33.916ZM2.60547 31.2148H5.29785V28.8135H2.60547V31.2148ZM5.62402 31.2148H8.27734V28.8135H5.62402V31.2148ZM8.60352 31.2148H11.2578V28.8135H8.60352V31.2148ZM11.584 31.2148H14.2373V28.8135H11.584V31.2148ZM14.5635 31.2148H17.2178V28.8135H14.5635V31.2148ZM17.5439 31.2148H20.1982V28.8135H17.5439V31.2148ZM20.5234 31.2148H23.1777V28.8135H20.5234V31.2148ZM23.5039 31.2148H26.1582V28.8135H23.5039V31.2148ZM26.4834 31.2148H29.1377V28.8135H26.4834V31.2148ZM29.4639 31.2148H32.1182V28.8135H29.4639V31.2148ZM32.4443 31.2148H35.0986V28.8135H32.4443V31.2148ZM35.4238 31.2148H38.0781V28.8135H35.4238V31.2148ZM38.4043 31.2148H41.0586V28.8135H38.4043V31.2148ZM41.3848 31.2148H44.0391V28.8135H41.3848V31.2148ZM44.3643 31.2148H47.0176V28.8135H44.3643V31.2148ZM47.3438 31.2148H49.998V28.8135H47.3438V31.2148ZM50.3242 31.2148H52.9785V28.8135H50.3242V31.2148ZM56.2842 31.2148H59.0684V28.8135H56.2842V31.2148ZM53.3037 31.2148H55.958V28.8135H53.3037V31.2148ZM2.60547 28.5137H5.29785V26.1123H2.60547V28.5137ZM5.62402 28.5137H8.27734V26.1123H5.62402V28.5137ZM8.60352 28.5137H11.2578V26.1123H8.60352V28.5137ZM11.584 28.5137H14.2373V26.1123H11.584V28.5137ZM14.5635 28.5137H17.2178V26.1123H14.5635V28.5137ZM17.5439 28.5137H20.1982V26.1123H17.5439V28.5137ZM20.5234 28.5137H23.1777V26.1123H20.5234V28.5137ZM23.5039 28.5137H26.1582V26.1123H23.5039V28.5137ZM26.4834 28.5137H29.1377V26.1123H26.4834V28.5137ZM29.4639 28.5137H32.1182V26.1123H29.4639V28.5137ZM32.4443 28.5137H35.0986V26.1123H32.4443V28.5137ZM35.4238 28.5137H38.0781V26.1123H35.4238V28.5137ZM38.4043 28.5137H41.0586V26.1123H38.4043V28.5137ZM41.3848 28.5137H44.0391V26.1123H41.3848V28.5137ZM44.3643 28.5137H47.0176V26.1123H44.3643V28.5137ZM47.3438 28.5137H49.998V26.1123H47.3438V28.5137ZM50.3242 28.5137H52.9785V26.1123H50.3242V28.5137ZM56.2842 4.19922H59.0674V4.5H56.2842V6.90039H59.0674V7.20117H56.2842V9.60254H59.0674V9.90234H56.2842V12.3037H59.0674V12.6045H56.2842V15.0049H59.0674V15.3057H56.2842V17.707H59.0674V18.0068H56.2842V20.4092H59.0674V20.709H56.2842V23.1104H59.0674V23.4102H56.2842V25.8115H59.0674V26.1123H56.2842V28.5137H59.0684V2.41797H56.2842V4.19922ZM53.3037 26.1123V28.5137H55.958V26.1123H53.3037ZM53.3037 23.4102V25.8115H55.958V23.4102H53.3037ZM2.60547 25.8115H5.29785V23.4102H2.60547V25.8115ZM5.62402 25.8115H8.27734V23.4102H5.62402V25.8115ZM8.60352 25.8115H11.2578V23.4102H8.60352V25.8115ZM11.584 25.8115H14.2373V23.4102H11.584V25.8115ZM14.5635 25.8115H17.2178V23.4102H14.5635V25.8115ZM17.5439 25.8115H20.1982V23.4102H17.5439V25.8115ZM20.5234 25.8115H23.1777V23.4102H20.5234V25.8115ZM23.5039 25.8115H26.1582V23.4102H23.5039V25.8115ZM26.4834 25.8115H29.1377V23.4102H26.4834V25.8115ZM29.4639 25.8115H32.1182V23.4102H29.4639V25.8115ZM32.4443 25.8115H35.0986V23.4102H32.4443V25.8115ZM35.4238 25.8115H38.0781V23.4102H35.4238V25.8115ZM38.4043 25.8115H41.0586V23.4102H38.4043V25.8115ZM41.3848 25.8115H44.0391V23.4102H41.3848V25.8115ZM44.3643 25.8115H47.0176V23.4102H44.3643V25.8115ZM47.3438 25.8115H49.998V23.4102H47.3438V25.8115ZM50.3242 25.8115H52.9785V23.4102H50.3242V25.8115ZM53.3037 20.709V23.1104H55.958V20.709H53.3037ZM2.60547 23.1104H5.29785V20.709H2.60547V23.1104ZM5.62402 23.1104H8.27734V20.709H5.62402V23.1104ZM8.60352 23.1104H11.2578V20.709H8.60352V23.1104ZM11.584 23.1104H14.2373V20.709H11.584V23.1104ZM14.5635 23.1104H17.2178V20.709H14.5635V23.1104ZM17.5439 23.1104H20.1982V20.709H17.5439V23.1104ZM20.5234 23.1104H23.1777V20.709H20.5234V23.1104ZM23.5039 23.1104H26.1582V20.709H23.5039V23.1104ZM26.4834 23.1104H29.1377V20.709H26.4834V23.1104ZM29.4639 23.1104H32.1182V20.709H29.4639V23.1104ZM32.4443 23.1104H35.0986V20.709H32.4443V23.1104ZM35.4238 23.1104H38.0781V20.709H35.4238V23.1104ZM38.4043 23.1104H41.0586V20.709H38.4043V23.1104ZM41.3848 23.1104H44.0391V20.709H41.3848V23.1104ZM44.3643 23.1104H47.0176V20.709H44.3643V23.1104ZM47.3438 23.1104H49.998V20.709H47.3438V23.1104ZM50.3242 23.1104H52.9785V20.709H50.3242V23.1104ZM53.3037 18.0068V20.4092H55.958V18.0068H53.3037ZM2.60547 20.4092H5.29785V18.0068H2.60547V20.4092ZM5.62402 20.4092H8.27734V18.0068H5.62402V20.4092ZM8.60352 20.4092H11.2578V18.0068H8.60352V20.4092ZM11.584 20.4092H14.2373V18.0068H11.584V20.4092ZM14.5635 20.4092H17.2178V18.0068H14.5635V20.4092ZM17.5439 20.4092H20.1982V18.0068H17.5439V20.4092ZM20.5234 20.4092H23.1777V18.0068H20.5234V20.4092ZM23.5039 20.4092H26.1582V18.0068H23.5039V20.4092ZM26.4834 20.4092H29.1377V18.0068H26.4834V20.4092ZM29.4639 20.4092H32.1182V18.0068H29.4639V20.4092ZM32.4443 20.4092H35.0986V18.0068H32.4443V20.4092ZM35.4238 20.4092H38.0781V18.0068H35.4238V20.4092ZM38.4043 20.4092H41.0586V18.0068H38.4043V20.4092ZM41.3848 20.4092H44.0391V18.0068H41.3848V20.4092ZM44.3643 20.4092H47.0176V18.0068H44.3643V20.4092ZM47.3438 20.4092H49.998V18.0068H47.3438V20.4092ZM50.3242 20.4092H52.9785V18.0068H50.3242V20.4092ZM53.3037 15.3057V17.707H55.958V15.3057H53.3037ZM2.60547 17.707H5.29785V15.3057H2.60547V17.707ZM5.62402 17.707H8.27734V15.3057H5.62402V17.707ZM8.60352 17.707H11.2578V15.3057H8.60352V17.707ZM11.584 17.707H14.2373V15.3057H11.584V17.707ZM14.5635 17.707H17.2178V15.3057H14.5635V17.707ZM17.5439 17.707H20.1982V15.3057H17.5439V17.707ZM20.5234 17.707H23.1777V15.3057H20.5234V17.707ZM23.5039 17.707H26.1582V15.3057H23.5039V17.707ZM26.4834 17.707H29.1377V15.3057H26.4834V17.707ZM29.4639 17.707H32.1182V15.3057H29.4639V17.707ZM32.4443 17.707H35.0986V15.3057H32.4443V17.707ZM35.4238 17.707H38.0781V15.3057H35.4238V17.707ZM38.4043 17.707H41.0586V15.3057H38.4043V17.707ZM41.3848 17.707H44.0391V15.3057H41.3848V17.707ZM44.3643 17.707H47.0176V15.3057H44.3643V17.707ZM47.3438 17.707H49.998V15.3057H47.3438V17.707ZM50.3242 17.707H52.9785V15.3057H50.3242V17.707ZM53.3037 12.6045V15.0049H55.958V12.6045H53.3037ZM2.60547 15.0049H5.29785V12.6045H2.60547V15.0049ZM5.62402 15.0049H8.27734V12.6045H5.62402V15.0049ZM8.60352 15.0049H11.2578V12.6045H8.60352V15.0049ZM11.584 15.0049H14.2373V12.6045H11.584V15.0049ZM14.5635 15.0049H17.2178V12.6045H14.5635V15.0049ZM17.5439 15.0049H20.1982V12.6045H17.5439V15.0049ZM20.5234 15.0049H23.1777V12.6045H20.5234V15.0049ZM23.5039 15.0049H26.1582V12.6045H23.5039V15.0049ZM26.4834 15.0049H29.1377V12.6045H26.4834V15.0049ZM29.4639 15.0049H32.1182V12.6045H29.4639V15.0049ZM32.4443 15.0049H35.0986V12.6045H32.4443V15.0049ZM35.4238 15.0049H38.0781V12.6045H35.4238V15.0049ZM38.4043 15.0049H41.0586V12.6045H38.4043V15.0049ZM41.3848 15.0049H44.0391V12.6045H41.3848V15.0049ZM44.3643 15.0049H47.0176V12.6045H44.3643V15.0049ZM47.3438 15.0049H49.998V12.6045H47.3438V15.0049ZM50.3242 15.0049H52.9785V12.6045H50.3242V15.0049ZM53.3037 9.90234V12.3037H55.958V9.90234H53.3037ZM2.60547 12.3037H5.29785V9.90234H2.60547V12.3037ZM5.62402 12.3037H8.27734V9.90234H5.62402V12.3037ZM8.60352 12.3037H11.2578V9.90234H8.60352V12.3037ZM11.584 12.3037H14.2373V9.90234H11.584V12.3037ZM14.5635 12.3037H17.2178V9.90234H14.5635V12.3037ZM17.5439 12.3037H20.1982V9.90234H17.5439V12.3037ZM20.5234 12.3037H23.1777V9.90234H20.5234V12.3037ZM23.5039 12.3037H26.1582V9.90234H23.5039V12.3037ZM26.4834 12.3037H29.1377V9.90234H26.4834V12.3037ZM29.4639 12.3037H32.1182V9.90234H29.4639V12.3037ZM32.4443 12.3037H35.0986V9.90234H32.4443V12.3037ZM35.4238 12.3037H38.0781V9.90234H35.4238V12.3037ZM38.4043 12.3037H41.0586V9.90234H38.4043V12.3037ZM41.3848 12.3037H44.0391V9.90234H41.3848V12.3037ZM44.3643 12.3037H47.0176V9.90234H44.3643V12.3037ZM47.3438 12.3037H49.998V9.90234H47.3438V12.3037ZM50.3242 12.3037H52.9785V9.90234H50.3242V12.3037ZM53.3037 7.20117V9.60254H55.958V7.20117H53.3037ZM2.60547 9.60254H5.29785V7.20117H2.60547V9.60254ZM5.62402 9.60254H8.27734V7.20117H5.62402V9.60254ZM8.60352 9.60254H11.2578V7.20117H8.60352V9.60254ZM11.584 9.60254H14.2373V7.20117H11.584V9.60254ZM14.5635 9.60254H17.2178V7.20117H14.5635V9.60254ZM17.5439 9.60254H20.1982V7.20117H17.5439V9.60254ZM20.5234 9.60254H23.1777V7.20117H20.5234V9.60254ZM23.5039 9.60254H26.1582V7.20117H23.5039V9.60254ZM26.4834 9.60254H29.1377V7.20117H26.4834V9.60254ZM29.4639 9.60254H32.1182V7.20117H29.4639V9.60254ZM32.4443 9.60254H35.0986V7.20117H32.4443V9.60254ZM35.4238 9.60254H38.0781V7.20117H35.4238V9.60254ZM38.4043 9.60254H41.0586V7.20117H38.4043V9.60254ZM41.3848 9.60254H44.0391V7.20117H41.3848V9.60254ZM44.3643 9.60254H47.0176V7.20117H44.3643V9.60254ZM47.3438 9.60254H49.998V7.20117H47.3438V9.60254ZM50.3242 9.60254H52.9785V7.20117H50.3242V9.60254ZM53.3037 4.5V6.90039H55.958V4.5H53.3037ZM2.60547 6.90039H5.29785V4.5H2.60547V6.90039ZM5.62402 6.90039H8.27734V4.5H5.62402V6.90039ZM8.60352 6.90039H11.2578V4.5H8.60352V6.90039ZM11.584 6.90039H14.2373V4.5H11.584V6.90039ZM14.5635 6.90039H17.2178V4.5H14.5635V6.90039ZM17.5439 6.90039H20.1982V4.5H17.5439V6.90039ZM20.5234 6.90039H23.1777V4.5H20.5234V6.90039ZM23.5039 6.90039H26.1582V4.5H23.5039V6.90039ZM26.4834 6.90039H29.1377V4.5H26.4834V6.90039ZM29.4639 6.90039H32.1182V4.5H29.4639V6.90039ZM32.4443 6.90039H35.0986V4.5H32.4443V6.90039ZM35.4238 6.90039H38.0781V4.5H35.4238V6.90039ZM38.4043 6.90039H41.0586V4.5H38.4043V6.90039ZM41.3848 6.90039H44.0391V4.5H41.3848V6.90039ZM44.3643 6.90039H47.0176V4.5H44.3643V6.90039ZM47.3438 6.90039H49.998V4.5H47.3438V6.90039ZM50.3242 6.90039H52.9785V4.5H50.3242V6.90039ZM53.3037 4.19922H55.958V2.41797H53.3037V4.19922ZM2.60547 4.19922H5.29785V2.41797H2.60547V4.19922ZM5.62402 4.19922H8.27734V2.41797H5.62402V4.19922ZM8.60352 4.19922H11.2578V2.41797H8.60352V4.19922ZM11.584 4.19922H14.2373V2.41797H11.584V4.19922ZM14.5635 4.19922H17.2178V2.41797H14.5635V4.19922ZM17.5439 4.19922H20.1982V2.41797H17.5439V4.19922ZM20.5234 4.19922H23.1777V2.41797H20.5234V4.19922ZM23.5039 4.19922H26.1582V2.41797H23.5039V4.19922ZM26.4834 4.19922H29.1377V2.41797H26.4834V4.19922ZM29.4639 4.19922H32.1182V2.41797H29.4639V4.19922ZM32.4443 4.19922H35.0986V2.41797H32.4443V4.19922ZM35.4238 4.19922H38.0781V2.41797H35.4238V4.19922ZM38.4043 4.19922H41.0586V2.41797H38.4043V4.19922ZM41.3848 4.19922H44.0391V2.41797H41.3848V4.19922ZM44.3643 4.19922H47.0176V2.41797H44.3643V4.19922ZM47.3438 4.19922H49.998V2.41797H47.3438V4.19922ZM50.3242 4.19922H52.9785V2.41797H50.3242V4.19922Z" fill="#00A5EB"/>
</svg>
