<svg width="60" height="120" viewBox="0 0 60 120" fill="none" xmlns="http://www.w3.org/2000/svg">
<path d="M0 119.983H0.931641V120H60V0.0175781H0.931641V0H0V119.983ZM57.3945 117.599H54.7021V115.262H57.3945V117.599ZM54.376 117.599H51.7227V115.262H54.376V117.599ZM51.3965 117.599H48.7422V115.262H51.3965V117.599ZM48.416 117.599H45.7627V115.262H48.416V117.599ZM45.4365 117.599H42.7822V115.262H45.4365V117.599ZM42.4561 117.599H39.8018V115.262H42.4561V117.599ZM39.4766 117.599H36.8223V115.262H39.4766V117.599ZM36.4961 117.599H33.8418V115.262H36.4961V117.599ZM33.5166 117.599H30.8623V115.262H33.5166V117.599ZM30.5361 117.599H27.8818V115.262H30.5361V117.599ZM27.5557 117.599H24.9014V115.262H27.5557V117.599ZM24.5762 117.599H21.9219V115.262H24.5762V117.599ZM21.5957 117.599H18.9414V115.262H21.5957V117.599ZM18.6152 117.599H15.9609V115.262H18.6152V117.599ZM15.6357 117.599H12.9824V115.262H15.6357V117.599ZM12.6562 117.599H10.002V115.262H12.6562V117.599ZM9.67578 117.599H7.02148V115.262H9.67578V117.599ZM3.71582 114.962H0.932617V115.262H3.71582V117.599H0.931641V112.561H3.71582V114.962ZM6.69629 115.262V117.599H4.04199V115.262H6.69629ZM6.69629 114.962H4.04199V112.561H6.69629V114.962ZM57.3945 114.962H54.7021V112.561H57.3945V114.962ZM54.376 114.962H51.7227V112.561H54.376V114.962ZM51.3965 114.962H48.7422V112.561H51.3965V114.962ZM48.416 114.962H45.7627V112.561H48.416V114.962ZM45.4365 114.962H42.7822V112.561H45.4365V114.962ZM42.4561 114.962H39.8018V112.561H42.4561V114.962ZM39.4766 114.962H36.8223V112.561H39.4766V114.962ZM36.4961 114.962H33.8418V112.561H36.4961V114.962ZM33.5166 114.962H30.8623V112.561H33.5166V114.962ZM30.5361 114.962H27.8818V112.561H30.5361V114.962ZM27.5557 114.962H24.9014V112.561H27.5557V114.962ZM24.5762 114.962H21.9219V112.561H24.5762V114.962ZM21.5957 114.962H18.9414V112.561H21.5957V114.962ZM18.6152 114.962H15.9609V112.561H18.6152V114.962ZM15.6357 114.962H12.9824V112.561H15.6357V114.962ZM12.6562 114.962H10.002V112.561H12.6562V114.962ZM9.67578 114.962H7.02148V112.561H9.67578V114.962ZM57.3945 112.261H54.7021V109.859H57.3945V112.261ZM54.376 112.261H51.7227V109.859H54.376V112.261ZM51.3965 112.261H48.7422V109.859H51.3965V112.261ZM48.416 112.261H45.7627V109.859H48.416V112.261ZM45.4365 112.261H42.7822V109.859H45.4365V112.261ZM42.4561 112.261H39.8018V109.859H42.4561V112.261ZM39.4766 112.261H36.8223V109.859H39.4766V112.261ZM36.4961 112.261H33.8418V109.859H36.4961V112.261ZM33.5166 112.261H30.8623V109.859H33.5166V112.261ZM30.5361 112.261H27.8818V109.859H30.5361V112.261ZM27.5557 112.261H24.9014V109.859H27.5557V112.261ZM24.5762 112.261H21.9219V109.859H24.5762V112.261ZM21.5957 112.261H18.9414V109.859H21.5957V112.261ZM18.6152 112.261H15.9609V109.859H18.6152V112.261ZM15.6357 112.261H12.9824V109.859H15.6357V112.261ZM12.6562 112.261H10.002V109.859H12.6562V112.261ZM9.67578 112.261H7.02148V109.859H9.67578V112.261ZM3.71582 112.261H0.931641V109.859H3.71582V112.261ZM6.69629 112.261H4.04199V109.859H6.69629V112.261ZM57.3945 109.56H54.7021V107.157H57.3945V109.56ZM54.376 109.56H51.7227V107.157H54.376V109.56ZM51.3965 109.56H48.7422V107.157H51.3965V109.56ZM48.416 109.56H45.7627V107.157H48.416V109.56ZM45.4365 109.56H42.7822V107.157H45.4365V109.56ZM42.4561 109.56H39.8018V107.157H42.4561V109.56ZM39.4766 109.56H36.8223V107.157H39.4766V109.56ZM36.4961 109.56H33.8418V107.157H36.4961V109.56ZM33.5166 109.56H30.8623V107.157H33.5166V109.56ZM30.5361 109.56H27.8818V107.157H30.5361V109.56ZM27.5557 109.56H24.9014V107.157H27.5557V109.56ZM24.5762 109.56H21.9219V107.157H24.5762V109.56ZM21.5957 109.56H18.9414V107.157H21.5957V109.56ZM18.6152 109.56H15.9609V107.157H18.6152V109.56ZM15.6357 109.56H12.9824V107.157H15.6357V109.56ZM12.6562 109.56H10.002V107.157H12.6562V109.56ZM9.67578 109.56H7.02148V107.157H9.67578V109.56ZM3.71582 106.857H0.932617V107.157H3.71582V109.56H0.931641V104.456H3.71582V106.857ZM6.69629 107.157V109.56H4.04199V107.157H6.69629ZM6.69629 106.857H4.04199V104.456H6.69629V106.857ZM57.3945 106.857H54.7021V104.456H57.3945V106.857ZM54.376 106.857H51.7227V104.456H54.376V106.857ZM51.3965 106.857H48.7422V104.456H51.3965V106.857ZM48.416 106.857H45.7627V104.456H48.416V106.857ZM45.4365 106.857H42.7822V104.456H45.4365V106.857ZM42.4561 106.857H39.8018V104.456H42.4561V106.857ZM39.4766 106.857H36.8223V104.456H39.4766V106.857ZM36.4961 106.857H33.8418V104.456H36.4961V106.857ZM33.5166 106.857H30.8623V104.456H33.5166V106.857ZM30.5361 106.857H27.8818V104.456H30.5361V106.857ZM27.5557 106.857H24.9014V104.456H27.5557V106.857ZM24.5762 106.857H21.9219V104.456H24.5762V106.857ZM21.5957 106.857H18.9414V104.456H21.5957V106.857ZM18.6152 106.857H15.9609V104.456H18.6152V106.857ZM15.6357 106.857H12.9824V104.456H15.6357V106.857ZM12.6562 106.857H10.002V104.456H12.6562V106.857ZM9.67578 106.857H7.02148V104.456H9.67578V106.857ZM57.3945 104.156H54.7021V101.755H57.3945V104.156ZM54.376 104.156H51.7227V101.755H54.376V104.156ZM51.3965 104.156H48.7422V101.755H51.3965V104.156ZM48.416 104.156H45.7627V101.755H48.416V104.156ZM45.4365 104.156H42.7822V101.755H45.4365V104.156ZM42.4561 104.156H39.8018V101.755H42.4561V104.156ZM39.4766 104.156H36.8223V101.755H39.4766V104.156ZM36.4961 104.156H33.8418V101.755H36.4961V104.156ZM33.5166 104.156H30.8623V101.755H33.5166V104.156ZM30.5361 104.156H27.8818V101.755H30.5361V104.156ZM27.5557 104.156H24.9014V101.755H27.5557V104.156ZM24.5762 104.156H21.9219V101.755H24.5762V104.156ZM21.5957 104.156H18.9414V101.755H21.5957V104.156ZM18.6152 104.156H15.9609V101.755H18.6152V104.156ZM15.6357 104.156H12.9824V101.755H15.6357V104.156ZM12.6562 104.156H10.002V101.755H12.6562V104.156ZM9.67578 104.156H7.02148V101.755H9.67578V104.156ZM3.71582 104.156H0.931641V101.755H3.71582V104.156ZM6.69629 104.156H4.04199V101.755H6.69629V104.156ZM57.3945 101.454H54.7021V99.0527H57.3945V101.454ZM54.376 101.454H51.7227V99.0527H54.376V101.454ZM51.3965 101.454H48.7422V99.0527H51.3965V101.454ZM48.416 101.454H45.7627V99.0527H48.416V101.454ZM45.4365 101.454H42.7822V99.0527H45.4365V101.454ZM42.4561 101.454H39.8018V99.0527H42.4561V101.454ZM39.4766 101.454H36.8223V99.0527H39.4766V101.454ZM36.4961 101.454H33.8418V99.0527H36.4961V101.454ZM33.5166 101.454H30.8623V99.0527H33.5166V101.454ZM30.5361 101.454H27.8818V99.0527H30.5361V101.454ZM27.5557 101.454H24.9014V99.0527H27.5557V101.454ZM24.5762 101.454H21.9219V99.0527H24.5762V101.454ZM21.5957 101.454H18.9414V99.0527H21.5957V101.454ZM18.6152 101.454H15.9609V99.0527H18.6152V101.454ZM15.6357 101.454H12.9824V99.0527H15.6357V101.454ZM12.6562 101.454H10.002V99.0527H12.6562V101.454ZM9.67578 101.454H7.02148V99.0527H9.67578V101.454ZM3.71582 98.7529H0.932617V99.0527H3.71582V101.454H0.931641V96.3516H3.71582V98.7529ZM6.69629 99.0527V101.454H4.04199V99.0527H6.69629ZM6.69629 98.7529H4.04199V96.3516H6.69629V98.7529ZM57.3945 98.7529H54.7021V96.3516H57.3945V98.7529ZM54.376 98.7529H51.7227V96.3516H54.376V98.7529ZM51.3965 98.7529H48.7422V96.3516H51.3965V98.7529ZM48.416 98.7529H45.7627V96.3516H48.416V98.7529ZM45.4365 98.7529H42.7822V96.3516H45.4365V98.7529ZM42.4561 98.7529H39.8018V96.3516H42.4561V98.7529ZM39.4766 98.7529H36.8223V96.3516H39.4766V98.7529ZM36.4961 98.7529H33.8418V96.3516H36.4961V98.7529ZM33.5166 98.7529H30.8623V96.3516H33.5166V98.7529ZM30.5361 98.7529H27.8818V96.3516H30.5361V98.7529ZM27.5557 98.7529H24.9014V96.3516H27.5557V98.7529ZM24.5762 98.7529H21.9219V96.3516H24.5762V98.7529ZM21.5957 98.7529H18.9414V96.3516H21.5957V98.7529ZM18.6152 98.7529H15.9609V96.3516H18.6152V98.7529ZM15.6357 98.7529H12.9824V96.3516H15.6357V98.7529ZM12.6562 98.7529H10.002V96.3516H12.6562V98.7529ZM9.67578 98.7529H7.02148V96.3516H9.67578V98.7529ZM57.3945 96.0518H54.7021V93.6504H57.3945V96.0518ZM54.376 96.0518H51.7227V93.6504H54.376V96.0518ZM51.3965 96.0518H48.7422V93.6504H51.3965V96.0518ZM48.416 96.0518H45.7627V93.6504H48.416V96.0518ZM45.4365 96.0518H42.7822V93.6504H45.4365V96.0518ZM42.4561 96.0518H39.8018V93.6504H42.4561V96.0518ZM39.4766 96.0518H36.8223V93.6504H39.4766V96.0518ZM36.4961 96.0518H33.8418V93.6504H36.4961V96.0518ZM33.5166 96.0518H30.8623V93.6504H33.5166V96.0518ZM30.5361 96.0518H27.8818V93.6504H30.5361V96.0518ZM27.5557 96.0518H24.9014V93.6504H27.5557V96.0518ZM24.5762 96.0518H21.9219V93.6504H24.5762V96.0518ZM21.5957 96.0518H18.9414V93.6504H21.5957V96.0518ZM18.6152 96.0518H15.9609V93.6504H18.6152V96.0518ZM15.6357 96.0518H12.9824V93.6504H15.6357V96.0518ZM12.6562 96.0518H10.002V93.6504H12.6562V96.0518ZM9.67578 96.0518H7.02148V93.6504H9.67578V96.0518ZM3.71582 96.0518H0.931641V93.6504H3.71582V96.0518ZM6.69629 96.0518H4.04199V93.6504H6.69629V96.0518ZM57.3945 93.3496H54.7021V90.9482H57.3945V93.3496ZM54.376 93.3496H51.7227V90.9482H54.376V93.3496ZM51.3965 93.3496H48.7422V90.9482H51.3965V93.3496ZM48.416 93.3496H45.7627V90.9482H48.416V93.3496ZM45.4365 93.3496H42.7822V90.9482H45.4365V93.3496ZM42.4561 93.3496H39.8018V90.9482H42.4561V93.3496ZM39.4766 93.3496H36.8223V90.9482H39.4766V93.3496ZM36.4961 93.3496H33.8418V90.9482H36.4961V93.3496ZM33.5166 93.3496H30.8623V90.9482H33.5166V93.3496ZM30.5361 93.3496H27.8818V90.9482H30.5361V93.3496ZM27.5557 93.3496H24.9014V90.9482H27.5557V93.3496ZM24.5762 93.3496H21.9219V90.9482H24.5762V93.3496ZM21.5957 93.3496H18.9414V90.9482H21.5957V93.3496ZM18.6152 93.3496H15.9609V90.9482H18.6152V93.3496ZM15.6357 93.3496H12.9824V90.9482H15.6357V93.3496ZM12.6562 93.3496H10.002V90.9482H12.6562V93.3496ZM9.67578 93.3496H7.02148V90.9482H9.67578V93.3496ZM3.71582 58.2295H0.932617V58.5303H3.71582V60.9316H0.932617V61.2324H3.71582V63.6328H0.932617V63.9336H3.71582V66.335H0.932617V66.6348H3.71582V69.0361H0.932617V69.3369H3.71582V71.7373H0.932617V72.0381H3.71582V74.4395H0.932617V74.7393H3.71582V77.1406H0.932617V77.4414H3.71582V79.8418H0.932617V80.1426H3.71582V82.5439H0.932617V82.8438H3.71582V85.2451H0.932617V85.5459H3.71582V87.9473H0.932617V88.2471H3.71582V90.6484H0.932617V90.9482H3.71582V93.3496H0.931641V55.8291H3.71582V58.2295ZM6.69629 90.9482V93.3496H4.04199V90.9482H6.69629ZM6.69629 88.2471V90.6484H4.04199V88.2471H6.69629ZM57.3945 90.6484H54.7021V88.2471H57.3945V90.6484ZM54.376 90.6484H51.7227V88.2471H54.376V90.6484ZM51.3965 90.6484H48.7422V88.2471H51.3965V90.6484ZM48.416 90.6484H45.7627V88.2471H48.416V90.6484ZM45.4365 90.6484H42.7822V88.2471H45.4365V90.6484ZM42.4561 90.6484H39.8018V88.2471H42.4561V90.6484ZM39.4766 90.6484H36.8223V88.2471H39.4766V90.6484ZM36.4961 90.6484H33.8418V88.2471H36.4961V90.6484ZM33.5166 90.6484H30.8623V88.2471H33.5166V90.6484ZM30.5361 90.6484H27.8818V88.2471H30.5361V90.6484ZM27.5557 90.6484H24.9014V88.2471H27.5557V90.6484ZM24.5762 90.6484H21.9219V88.2471H24.5762V90.6484ZM21.5957 90.6484H18.9414V88.2471H21.5957V90.6484ZM18.6152 90.6484H15.9609V88.2471H18.6152V90.6484ZM15.6357 90.6484H12.9824V88.2471H15.6357V90.6484ZM12.6562 90.6484H10.002V88.2471H12.6562V90.6484ZM9.67578 90.6484H7.02148V88.2471H9.67578V90.6484ZM6.69629 85.5459V87.9473H4.04199V85.5459H6.69629ZM57.3945 87.9473H54.7021V85.5459H57.3945V87.9473ZM54.376 87.9473H51.7227V85.5459H54.376V87.9473ZM51.3965 87.9473H48.7422V85.5459H51.3965V87.9473ZM48.416 87.9473H45.7627V85.5459H48.416V87.9473ZM45.4365 87.9473H42.7822V85.5459H45.4365V87.9473ZM42.4561 87.9473H39.8018V85.5459H42.4561V87.9473ZM39.4766 87.9473H36.8223V85.5459H39.4766V87.9473ZM36.4961 87.9473H33.8418V85.5459H36.4961V87.9473ZM33.5166 87.9473H30.8623V85.5459H33.5166V87.9473ZM30.5361 87.9473H27.8818V85.5459H30.5361V87.9473ZM27.5557 87.9473H24.9014V85.5459H27.5557V87.9473ZM24.5762 87.9473H21.9219V85.5459H24.5762V87.9473ZM21.5957 87.9473H18.9414V85.5459H21.5957V87.9473ZM18.6152 87.9473H15.9609V85.5459H18.6152V87.9473ZM15.6357 87.9473H12.9824V85.5459H15.6357V87.9473ZM12.6562 87.9473H10.002V85.5459H12.6562V87.9473ZM9.67578 87.9473H7.02148V85.5459H9.67578V87.9473ZM6.69629 82.8438V85.2451H4.04199V82.8438H6.69629ZM57.3945 85.2451H54.7021V82.8438H57.3945V85.2451ZM54.376 85.2451H51.7227V82.8438H54.376V85.2451ZM51.3965 85.2451H48.7422V82.8438H51.3965V85.2451ZM48.416 85.2451H45.7627V82.8438H48.416V85.2451ZM45.4365 85.2451H42.7822V82.8438H45.4365V85.2451ZM42.4561 85.2451H39.8018V82.8438H42.4561V85.2451ZM39.4766 85.2451H36.8223V82.8438H39.4766V85.2451ZM36.4961 85.2451H33.8418V82.8438H36.4961V85.2451ZM33.5166 85.2451H30.8623V82.8438H33.5166V85.2451ZM30.5361 85.2451H27.8818V82.8438H30.5361V85.2451ZM27.5557 85.2451H24.9014V82.8438H27.5557V85.2451ZM24.5762 85.2451H21.9219V82.8438H24.5762V85.2451ZM21.5957 85.2451H18.9414V82.8438H21.5957V85.2451ZM18.6152 85.2451H15.9609V82.8438H18.6152V85.2451ZM15.6357 85.2451H12.9824V82.8438H15.6357V85.2451ZM12.6562 85.2451H10.002V82.8438H12.6562V85.2451ZM9.67578 85.2451H7.02148V82.8438H9.67578V85.2451ZM6.69629 80.1426V82.5439H4.04199V80.1426H6.69629ZM57.3945 82.5439H54.7021V80.1426H57.3945V82.5439ZM54.376 82.5439H51.7227V80.1426H54.376V82.5439ZM51.3965 82.5439H48.7422V80.1426H51.3965V82.5439ZM48.416 82.5439H45.7627V80.1426H48.416V82.5439ZM45.4365 82.5439H42.7822V80.1426H45.4365V82.5439ZM42.4561 82.5439H39.8018V80.1426H42.4561V82.5439ZM39.4766 82.5439H36.8223V80.1426H39.4766V82.5439ZM36.4961 82.5439H33.8418V80.1426H36.4961V82.5439ZM33.5166 82.5439H30.8623V80.1426H33.5166V82.5439ZM30.5361 82.5439H27.8818V80.1426H30.5361V82.5439ZM27.5557 82.5439H24.9014V80.1426H27.5557V82.5439ZM24.5762 82.5439H21.9219V80.1426H24.5762V82.5439ZM21.5957 82.5439H18.9414V80.1426H21.5957V82.5439ZM18.6152 82.5439H15.9609V80.1426H18.6152V82.5439ZM15.6357 82.5439H12.9824V80.1426H15.6357V82.5439ZM12.6562 82.5439H10.002V80.1426H12.6562V82.5439ZM9.67578 82.5439H7.02148V80.1426H9.67578V82.5439ZM6.69629 77.4414V79.8418H4.04199V77.4414H6.69629ZM57.3945 79.8418H54.7021V77.4414H57.3945V79.8418ZM54.376 79.8418H51.7227V77.4414H54.376V79.8418ZM51.3965 79.8418H48.7422V77.4414H51.3965V79.8418ZM48.416 79.8418H45.7627V77.4414H48.416V79.8418ZM45.4365 79.8418H42.7822V77.4414H45.4365V79.8418ZM42.4561 79.8418H39.8018V77.4414H42.4561V79.8418ZM39.4766 79.8418H36.8223V77.4414H39.4766V79.8418ZM36.4961 79.8418H33.8418V77.4414H36.4961V79.8418ZM33.5166 79.8418H30.8623V77.4414H33.5166V79.8418ZM30.5361 79.8418H27.8818V77.4414H30.5361V79.8418ZM27.5557 79.8418H24.9014V77.4414H27.5557V79.8418ZM24.5762 79.8418H21.9219V77.4414H24.5762V79.8418ZM21.5957 79.8418H18.9414V77.4414H21.5957V79.8418ZM18.6152 79.8418H15.9609V77.4414H18.6152V79.8418ZM15.6357 79.8418H12.9824V77.4414H15.6357V79.8418ZM12.6562 79.8418H10.002V77.4414H12.6562V79.8418ZM9.67578 79.8418H7.02148V77.4414H9.67578V79.8418ZM6.69629 74.7393V77.1406H4.04199V74.7393H6.69629ZM57.3945 77.1406H54.7021V74.7393H57.3945V77.1406ZM54.376 77.1406H51.7227V74.7393H54.376V77.1406ZM51.3965 77.1406H48.7422V74.7393H51.3965V77.1406ZM48.416 77.1406H45.7627V74.7393H48.416V77.1406ZM45.4365 77.1406H42.7822V74.7393H45.4365V77.1406ZM42.4561 77.1406H39.8018V74.7393H42.4561V77.1406ZM39.4766 77.1406H36.8223V74.7393H39.4766V77.1406ZM36.4961 77.1406H33.8418V74.7393H36.4961V77.1406ZM33.5166 77.1406H30.8623V74.7393H33.5166V77.1406ZM30.5361 77.1406H27.8818V74.7393H30.5361V77.1406ZM27.5557 77.1406H24.9014V74.7393H27.5557V77.1406ZM24.5762 77.1406H21.9219V74.7393H24.5762V77.1406ZM21.5957 77.1406H18.9414V74.7393H21.5957V77.1406ZM18.6152 77.1406H15.9609V74.7393H18.6152V77.1406ZM15.6357 77.1406H12.9824V74.7393H15.6357V77.1406ZM12.6562 77.1406H10.002V74.7393H12.6562V77.1406ZM9.67578 77.1406H7.02148V74.7393H9.67578V77.1406ZM6.69629 72.0381V74.4395H4.04199V72.0381H6.69629ZM57.3945 74.4395H54.7021V72.0381H57.3945V74.4395ZM54.376 74.4395H51.7227V72.0381H54.376V74.4395ZM51.3965 74.4395H48.7422V72.0381H51.3965V74.4395ZM48.416 74.4395H45.7627V72.0381H48.416V74.4395ZM45.4365 74.4395H42.7822V72.0381H45.4365V74.4395ZM42.4561 74.4395H39.8018V72.0381H42.4561V74.4395ZM39.4766 74.4395H36.8223V72.0381H39.4766V74.4395ZM36.4961 74.4395H33.8418V72.0381H36.4961V74.4395ZM33.5166 74.4395H30.8623V72.0381H33.5166V74.4395ZM30.5361 74.4395H27.8818V72.0381H30.5361V74.4395ZM27.5557 74.4395H24.9014V72.0381H27.5557V74.4395ZM24.5762 74.4395H21.9219V72.0381H24.5762V74.4395ZM21.5957 74.4395H18.9414V72.0381H21.5957V74.4395ZM18.6152 74.4395H15.9609V72.0381H18.6152V74.4395ZM15.6357 74.4395H12.9824V72.0381H15.6357V74.4395ZM12.6562 74.4395H10.002V72.0381H12.6562V74.4395ZM9.67578 74.4395H7.02148V72.0381H9.67578V74.4395ZM6.69629 69.3369V71.7373H4.04199V69.3369H6.69629ZM57.3945 71.7373H54.7021V69.3369H57.3945V71.7373ZM54.376 71.7373H51.7227V69.3369H54.376V71.7373ZM51.3965 71.7373H48.7422V69.3369H51.3965V71.7373ZM48.416 71.7373H45.7627V69.3369H48.416V71.7373ZM45.4365 71.7373H42.7822V69.3369H45.4365V71.7373ZM42.4561 71.7373H39.8018V69.3369H42.4561V71.7373ZM39.4766 71.7373H36.8223V69.3369H39.4766V71.7373ZM36.4961 71.7373H33.8418V69.3369H36.4961V71.7373ZM33.5166 71.7373H30.8623V69.3369H33.5166V71.7373ZM30.5361 71.7373H27.8818V69.3369H30.5361V71.7373ZM27.5557 71.7373H24.9014V69.3369H27.5557V71.7373ZM24.5762 71.7373H21.9219V69.3369H24.5762V71.7373ZM21.5957 71.7373H18.9414V69.3369H21.5957V71.7373ZM18.6152 71.7373H15.9609V69.3369H18.6152V71.7373ZM15.6357 71.7373H12.9824V69.3369H15.6357V71.7373ZM12.6562 71.7373H10.002V69.3369H12.6562V71.7373ZM9.67578 71.7373H7.02148V69.3369H9.67578V71.7373ZM6.69629 66.6348V69.0361H4.04199V66.6348H6.69629ZM57.3945 69.0361H54.7021V66.6348H57.3945V69.0361ZM54.376 69.0361H51.7227V66.6348H54.376V69.0361ZM51.3965 69.0361H48.7422V66.6348H51.3965V69.0361ZM48.416 69.0361H45.7627V66.6348H48.416V69.0361ZM45.4365 69.0361H42.7822V66.6348H45.4365V69.0361ZM42.4561 69.0361H39.8018V66.6348H42.4561V69.0361ZM39.4766 69.0361H36.8223V66.6348H39.4766V69.0361ZM36.4961 69.0361H33.8418V66.6348H36.4961V69.0361ZM33.5166 69.0361H30.8623V66.6348H33.5166V69.0361ZM30.5361 69.0361H27.8818V66.6348H30.5361V69.0361ZM27.5557 69.0361H24.9014V66.6348H27.5557V69.0361ZM24.5762 69.0361H21.9219V66.6348H24.5762V69.0361ZM21.5957 69.0361H18.9414V66.6348H21.5957V69.0361ZM18.6152 69.0361H15.9609V66.6348H18.6152V69.0361ZM15.6357 69.0361H12.9824V66.6348H15.6357V69.0361ZM12.6562 69.0361H10.002V66.6348H12.6562V69.0361ZM9.67578 69.0361H7.02148V66.6348H9.67578V69.0361ZM6.69629 63.9336V66.335H4.04199V63.9336H6.69629ZM57.3945 66.335H54.7021V63.9336H57.3945V66.335ZM54.376 66.335H51.7227V63.9336H54.376V66.335ZM51.3965 66.335H48.7422V63.9336H51.3965V66.335ZM48.416 66.335H45.7627V63.9336H48.416V66.335ZM45.4365 66.335H42.7822V63.9336H45.4365V66.335ZM42.4561 66.335H39.8018V63.9336H42.4561V66.335ZM39.4766 66.335H36.8223V63.9336H39.4766V66.335ZM36.4961 66.335H33.8418V63.9336H36.4961V66.335ZM33.5166 66.335H30.8623V63.9336H33.5166V66.335ZM30.5361 66.335H27.8818V63.9336H30.5361V66.335ZM27.5557 66.335H24.9014V63.9336H27.5557V66.335ZM24.5762 66.335H21.9219V63.9336H24.5762V66.335ZM21.5957 66.335H18.9414V63.9336H21.5957V66.335ZM18.6152 66.335H15.9609V63.9336H18.6152V66.335ZM15.6357 66.335H12.9824V63.9336H15.6357V66.335ZM12.6562 66.335H10.002V63.9336H12.6562V66.335ZM9.67578 66.335H7.02148V63.9336H9.67578V66.335ZM6.69629 61.2324V63.6328H4.04199V61.2324H6.69629ZM57.3945 63.6328H54.7021V61.2324H57.3945V63.6328ZM54.376 63.6328H51.7227V61.2324H54.376V63.6328ZM51.3965 63.6328H48.7422V61.2324H51.3965V63.6328ZM48.416 63.6328H45.7627V61.2324H48.416V63.6328ZM45.4365 63.6328H42.7822V61.2324H45.4365V63.6328ZM42.4561 63.6328H39.8018V61.2324H42.4561V63.6328ZM39.4766 63.6328H36.8223V61.2324H39.4766V63.6328ZM36.4961 63.6328H33.8418V61.2324H36.4961V63.6328ZM33.5166 63.6328H30.8623V61.2324H33.5166V63.6328ZM30.5361 63.6328H27.8818V61.2324H30.5361V63.6328ZM27.5557 63.6328H24.9014V61.2324H27.5557V63.6328ZM24.5762 63.6328H21.9219V61.2324H24.5762V63.6328ZM21.5957 63.6328H18.9414V61.2324H21.5957V63.6328ZM18.6152 63.6328H15.9609V61.2324H18.6152V63.6328ZM15.6357 63.6328H12.9824V61.2324H15.6357V63.6328ZM12.6562 63.6328H10.002V61.2324H12.6562V63.6328ZM9.67578 63.6328H7.02148V61.2324H9.67578V63.6328ZM6.69629 58.5303V60.9316H4.04199V58.5303H6.69629ZM57.3945 60.9316H54.7021V58.5303H57.3945V60.9316ZM54.376 60.9316H51.7227V58.5303H54.376V60.9316ZM51.3965 60.9316H48.7422V58.5303H51.3965V60.9316ZM48.416 60.9316H45.7627V58.5303H48.416V60.9316ZM45.4365 60.9316H42.7822V58.5303H45.4365V60.9316ZM42.4561 60.9316H39.8018V58.5303H42.4561V60.9316ZM39.4766 60.9316H36.8223V58.5303H39.4766V60.9316ZM36.4961 60.9316H33.8418V58.5303H36.4961V60.9316ZM33.5166 60.9316H30.8623V58.5303H33.5166V60.9316ZM30.5361 60.9316H27.8818V58.5303H30.5361V60.9316ZM27.5557 60.9316H24.9014V58.5303H27.5557V60.9316ZM24.5762 60.9316H21.9219V58.5303H24.5762V60.9316ZM21.5957 60.9316H18.9414V58.5303H21.5957V60.9316ZM18.6152 60.9316H15.9609V58.5303H18.6152V60.9316ZM15.6357 60.9316H12.9824V58.5303H15.6357V60.9316ZM12.6562 60.9316H10.002V58.5303H12.6562V60.9316ZM9.67578 60.9316H7.02148V58.5303H9.67578V60.9316ZM6.69629 58.2295H4.04199V55.8291H6.69629V58.2295ZM57.3945 58.2295H54.7021V55.8291H57.3945V58.2295ZM54.376 58.2295H51.7227V55.8291H54.376V58.2295ZM51.3965 58.2295H48.7422V55.8291H51.3965V58.2295ZM48.416 58.2295H45.7627V55.8291H48.416V58.2295ZM45.4365 58.2295H42.7822V55.8291H45.4365V58.2295ZM42.4561 58.2295H39.8018V55.8291H42.4561V58.2295ZM39.4766 58.2295H36.8223V55.8291H39.4766V58.2295ZM36.4961 58.2295H33.8418V55.8291H36.4961V58.2295ZM33.5166 58.2295H30.8623V55.8291H33.5166V58.2295ZM30.5361 58.2295H27.8818V55.8291H30.5361V58.2295ZM27.5557 58.2295H24.9014V55.8291H27.5557V58.2295ZM24.5762 58.2295H21.9219V55.8291H24.5762V58.2295ZM21.5957 58.2295H18.9414V55.8291H21.5957V58.2295ZM18.6152 58.2295H15.9609V55.8291H18.6152V58.2295ZM15.6357 58.2295H12.9824V55.8291H15.6357V58.2295ZM12.6562 58.2295H10.002V55.8291H12.6562V58.2295ZM9.67578 58.2295H7.02148V55.8291H9.67578V58.2295ZM57.3945 55.5283H54.7021V53.127H57.3945V55.5283ZM54.376 55.5283H51.7227V53.127H54.376V55.5283ZM51.3965 55.5283H48.7422V53.127H51.3965V55.5283ZM48.416 55.5283H45.7627V53.127H48.416V55.5283ZM45.4365 55.5283H42.7822V53.127H45.4365V55.5283ZM42.4561 55.5283H39.8018V53.127H42.4561V55.5283ZM39.4766 55.5283H36.8223V53.127H39.4766V55.5283ZM36.4961 55.5283H33.8418V53.127H36.4961V55.5283ZM33.5166 55.5283H30.8623V53.127H33.5166V55.5283ZM30.5361 55.5283H27.8818V53.127H30.5361V55.5283ZM27.5557 55.5283H24.9014V53.127H27.5557V55.5283ZM24.5762 55.5283H21.9219V53.127H24.5762V55.5283ZM21.5957 55.5283H18.9414V53.127H21.5957V55.5283ZM18.6152 55.5283H15.9609V53.127H18.6152V55.5283ZM15.6357 55.5283H12.9824V53.127H15.6357V55.5283ZM12.6562 55.5283H10.002V53.127H12.6562V55.5283ZM9.67578 55.5283H7.02148V53.127H9.67578V55.5283ZM3.71582 55.5283H0.931641V53.127H3.71582V55.5283ZM6.69629 55.5283H4.04199V53.127H6.69629V55.5283ZM57.3945 52.8271H54.7021V50.4258H57.3945V52.8271ZM54.376 52.8271H51.7227V50.4258H54.376V52.8271ZM51.3965 52.8271H48.7422V50.4258H51.3965V52.8271ZM48.416 52.8271H45.7627V50.4258H48.416V52.8271ZM45.4365 52.8271H42.7822V50.4258H45.4365V52.8271ZM42.4561 52.8271H39.8018V50.4258H42.4561V52.8271ZM39.4766 52.8271H36.8223V50.4258H39.4766V52.8271ZM36.4961 52.8271H33.8418V50.4258H36.4961V52.8271ZM33.5166 52.8271H30.8623V50.4258H33.5166V52.8271ZM30.5361 52.8271H27.8818V50.4258H30.5361V52.8271ZM27.5557 52.8271H24.9014V50.4258H27.5557V52.8271ZM24.5762 52.8271H21.9219V50.4258H24.5762V52.8271ZM21.5957 52.8271H18.9414V50.4258H21.5957V52.8271ZM18.6152 52.8271H15.9609V50.4258H18.6152V52.8271ZM15.6357 52.8271H12.9824V50.4258H15.6357V52.8271ZM12.6562 52.8271H10.002V50.4258H12.6562V52.8271ZM9.67578 52.8271H7.02148V50.4258H9.67578V52.8271ZM3.71582 50.125H0.932617V50.4258H3.71582V52.8271H0.931641V47.7246H3.71582V50.125ZM6.69629 50.4258V52.8271H4.04199V50.4258H6.69629ZM6.69629 50.125H4.04199V47.7246H6.69629V50.125ZM57.3945 50.125H54.7021V47.7246H57.3945V50.125ZM54.376 50.125H51.7227V47.7246H54.376V50.125ZM51.3965 50.125H48.7422V47.7246H51.3965V50.125ZM48.416 50.125H45.7627V47.7246H48.416V50.125ZM45.4365 50.125H42.7822V47.7246H45.4365V50.125ZM42.4561 50.125H39.8018V47.7246H42.4561V50.125ZM39.4766 50.125H36.8223V47.7246H39.4766V50.125ZM36.4961 50.125H33.8418V47.7246H36.4961V50.125ZM33.5166 50.125H30.8623V47.7246H33.5166V50.125ZM30.5361 50.125H27.8818V47.7246H30.5361V50.125ZM27.5557 50.125H24.9014V47.7246H27.5557V50.125ZM24.5762 50.125H21.9219V47.7246H24.5762V50.125ZM21.5957 50.125H18.9414V47.7246H21.5957V50.125ZM18.6152 50.125H15.9609V47.7246H18.6152V50.125ZM15.6357 50.125H12.9824V47.7246H15.6357V50.125ZM12.6562 50.125H10.002V47.7246H12.6562V50.125ZM9.67578 50.125H7.02148V47.7246H9.67578V50.125ZM57.3945 47.4238H54.7021V45.0225H57.3945V47.4238ZM54.376 47.4238H51.7227V45.0225H54.376V47.4238ZM51.3965 47.4238H48.7422V45.0225H51.3965V47.4238ZM48.416 47.4238H45.7627V45.0225H48.416V47.4238ZM45.4365 47.4238H42.7822V45.0225H45.4365V47.4238ZM42.4561 47.4238H39.8018V45.0225H42.4561V47.4238ZM39.4766 47.4238H36.8223V45.0225H39.4766V47.4238ZM36.4961 47.4238H33.8418V45.0225H36.4961V47.4238ZM33.5166 47.4238H30.8623V45.0225H33.5166V47.4238ZM30.5361 47.4238H27.8818V45.0225H30.5361V47.4238ZM27.5557 47.4238H24.9014V45.0225H27.5557V47.4238ZM24.5762 47.4238H21.9219V45.0225H24.5762V47.4238ZM21.5957 47.4238H18.9414V45.0225H21.5957V47.4238ZM18.6152 47.4238H15.9609V45.0225H18.6152V47.4238ZM15.6357 47.4238H12.9824V45.0225H15.6357V47.4238ZM12.6562 47.4238H10.002V45.0225H12.6562V47.4238ZM9.67578 47.4238H7.02148V45.0225H9.67578V47.4238ZM3.71582 47.4238H0.931641V45.0225H3.71582V47.4238ZM6.69629 47.4238H4.04199V45.0225H6.69629V47.4238ZM57.3945 44.7227H54.7021V42.3213H57.3945V44.7227ZM54.376 44.7227H51.7227V42.3213H54.376V44.7227ZM51.3965 44.7227H48.7422V42.3213H51.3965V44.7227ZM48.416 44.7227H45.7627V42.3213H48.416V44.7227ZM45.4365 44.7227H42.7822V42.3213H45.4365V44.7227ZM42.4561 44.7227H39.8018V42.3213H42.4561V44.7227ZM39.4766 44.7227H36.8223V42.3213H39.4766V44.7227ZM36.4961 44.7227H33.8418V42.3213H36.4961V44.7227ZM33.5166 44.7227H30.8623V42.3213H33.5166V44.7227ZM30.5361 44.7227H27.8818V42.3213H30.5361V44.7227ZM27.5557 44.7227H24.9014V42.3213H27.5557V44.7227ZM24.5762 44.7227H21.9219V42.3213H24.5762V44.7227ZM21.5957 44.7227H18.9414V42.3213H21.5957V44.7227ZM18.6152 44.7227H15.9609V42.3213H18.6152V44.7227ZM15.6357 44.7227H12.9824V42.3213H15.6357V44.7227ZM12.6562 44.7227H10.002V42.3213H12.6562V44.7227ZM9.67578 44.7227H7.02148V42.3213H9.67578V44.7227ZM3.71582 42.0205H0.932617V42.3213H3.71582V44.7227H0.931641V39.6201H3.71582V42.0205ZM6.69629 42.3213V44.7227H4.04199V42.3213H6.69629ZM6.69629 42.0205H4.04199V39.6201H6.69629V42.0205ZM57.3945 42.0205H54.7021V39.6201H57.3945V42.0205ZM54.376 42.0205H51.7227V39.6201H54.376V42.0205ZM51.3965 42.0205H48.7422V39.6201H51.3965V42.0205ZM48.416 42.0205H45.7627V39.6201H48.416V42.0205ZM45.4365 42.0205H42.7822V39.6201H45.4365V42.0205ZM42.4561 42.0205H39.8018V39.6201H42.4561V42.0205ZM39.4766 42.0205H36.8223V39.6201H39.4766V42.0205ZM36.4961 42.0205H33.8418V39.6201H36.4961V42.0205ZM33.5166 42.0205H30.8623V39.6201H33.5166V42.0205ZM30.5361 42.0205H27.8818V39.6201H30.5361V42.0205ZM27.5557 42.0205H24.9014V39.6201H27.5557V42.0205ZM24.5762 42.0205H21.9219V39.6201H24.5762V42.0205ZM21.5957 42.0205H18.9414V39.6201H21.5957V42.0205ZM18.6152 42.0205H15.9609V39.6201H18.6152V42.0205ZM15.6357 42.0205H12.9824V39.6201H15.6357V42.0205ZM12.6562 42.0205H10.002V39.6201H12.6562V42.0205ZM9.67578 42.0205H7.02148V39.6201H9.67578V42.0205ZM57.3945 39.3193H54.7021V36.918H57.3945V39.3193ZM54.376 39.3193H51.7227V36.918H54.376V39.3193ZM51.3965 39.3193H48.7422V36.918H51.3965V39.3193ZM48.416 39.3193H45.7627V36.918H48.416V39.3193ZM45.4365 39.3193H42.7822V36.918H45.4365V39.3193ZM42.4561 39.3193H39.8018V36.918H42.4561V39.3193ZM39.4766 39.3193H36.8223V36.918H39.4766V39.3193ZM36.4961 39.3193H33.8418V36.918H36.4961V39.3193ZM33.5166 39.3193H30.8623V36.918H33.5166V39.3193ZM30.5361 39.3193H27.8818V36.918H30.5361V39.3193ZM27.5557 39.3193H24.9014V36.918H27.5557V39.3193ZM24.5762 39.3193H21.9219V36.918H24.5762V39.3193ZM21.5957 39.3193H18.9414V36.918H21.5957V39.3193ZM18.6152 39.3193H15.9609V36.918H18.6152V39.3193ZM15.6357 39.3193H12.9824V36.918H15.6357V39.3193ZM12.6562 39.3193H10.002V36.918H12.6562V39.3193ZM9.67578 39.3193H7.02148V36.918H9.67578V39.3193ZM3.71582 39.3193H0.931641V36.918H3.71582V39.3193ZM6.69629 39.3193H4.04199V36.918H6.69629V39.3193ZM57.3945 36.6182H54.7021V34.2168H57.3945V36.6182ZM54.376 36.6182H51.7227V34.2168H54.376V36.6182ZM51.3965 36.6182H48.7422V34.2168H51.3965V36.6182ZM48.416 36.6182H45.7627V34.2168H48.416V36.6182ZM45.4365 36.6182H42.7822V34.2168H45.4365V36.6182ZM42.4561 36.6182H39.8018V34.2168H42.4561V36.6182ZM39.4766 36.6182H36.8223V34.2168H39.4766V36.6182ZM36.4961 36.6182H33.8418V34.2168H36.4961V36.6182ZM33.5166 36.6182H30.8623V34.2168H33.5166V36.6182ZM30.5361 36.6182H27.8818V34.2168H30.5361V36.6182ZM27.5557 36.6182H24.9014V34.2168H27.5557V36.6182ZM24.5762 36.6182H21.9219V34.2168H24.5762V36.6182ZM21.5957 36.6182H18.9414V34.2168H21.5957V36.6182ZM18.6152 36.6182H15.9609V34.2168H18.6152V36.6182ZM15.6357 36.6182H12.9824V34.2168H15.6357V36.6182ZM12.6562 36.6182H10.002V34.2168H12.6562V36.6182ZM9.67578 36.6182H7.02148V34.2168H9.67578V36.6182ZM3.71582 33.916H0.932617V34.2168H3.71582V36.6182H0.931641V31.5146H3.71582V33.916ZM6.69629 34.2168V36.6182H4.04199V34.2168H6.69629ZM6.69629 33.916H4.04199V31.5146H6.69629V33.916ZM57.3945 33.916H54.7021V31.5146H57.3945V33.916ZM54.376 33.916H51.7227V31.5146H54.376V33.916ZM51.3965 33.916H48.7422V31.5146H51.3965V33.916ZM48.416 33.916H45.7627V31.5146H48.416V33.916ZM45.4365 33.916H42.7822V31.5146H45.4365V33.916ZM42.4561 33.916H39.8018V31.5146H42.4561V33.916ZM39.4766 33.916H36.8223V31.5146H39.4766V33.916ZM36.4961 33.916H33.8418V31.5146H36.4961V33.916ZM33.5166 33.916H30.8623V31.5146H33.5166V33.916ZM30.5361 33.916H27.8818V31.5146H30.5361V33.916ZM27.5557 33.916H24.9014V31.5146H27.5557V33.916ZM24.5762 33.916H21.9219V31.5146H24.5762V33.916ZM21.5957 33.916H18.9414V31.5146H21.5957V33.916ZM18.6152 33.916H15.9609V31.5146H18.6152V33.916ZM15.6357 33.916H12.9824V31.5146H15.6357V33.916ZM12.6562 33.916H10.002V31.5146H12.6562V33.916ZM9.67578 33.916H7.02148V31.5146H9.67578V33.916ZM57.3945 31.2148H54.7021V28.8135H57.3945V31.2148ZM54.376 31.2148H51.7227V28.8135H54.376V31.2148ZM51.3965 31.2148H48.7422V28.8135H51.3965V31.2148ZM48.416 31.2148H45.7627V28.8135H48.416V31.2148ZM45.4365 31.2148H42.7822V28.8135H45.4365V31.2148ZM42.4561 31.2148H39.8018V28.8135H42.4561V31.2148ZM39.4766 31.2148H36.8223V28.8135H39.4766V31.2148ZM36.4961 31.2148H33.8418V28.8135H36.4961V31.2148ZM33.5166 31.2148H30.8623V28.8135H33.5166V31.2148ZM30.5361 31.2148H27.8818V28.8135H30.5361V31.2148ZM27.5557 31.2148H24.9014V28.8135H27.5557V31.2148ZM24.5762 31.2148H21.9219V28.8135H24.5762V31.2148ZM21.5957 31.2148H18.9414V28.8135H21.5957V31.2148ZM18.6152 31.2148H15.9609V28.8135H18.6152V31.2148ZM15.6357 31.2148H12.9824V28.8135H15.6357V31.2148ZM12.6562 31.2148H10.002V28.8135H12.6562V31.2148ZM9.67578 31.2148H7.02148V28.8135H9.67578V31.2148ZM3.71582 31.2148H0.931641V28.8135H3.71582V31.2148ZM6.69629 31.2148H4.04199V28.8135H6.69629V31.2148ZM57.3945 28.5137H54.7021V26.1123H57.3945V28.5137ZM54.376 28.5137H51.7227V26.1123H54.376V28.5137ZM51.3965 28.5137H48.7422V26.1123H51.3965V28.5137ZM48.416 28.5137H45.7627V26.1123H48.416V28.5137ZM45.4365 28.5137H42.7822V26.1123H45.4365V28.5137ZM42.4561 28.5137H39.8018V26.1123H42.4561V28.5137ZM39.4766 28.5137H36.8223V26.1123H39.4766V28.5137ZM36.4961 28.5137H33.8418V26.1123H36.4961V28.5137ZM33.5166 28.5137H30.8623V26.1123H33.5166V28.5137ZM30.5361 28.5137H27.8818V26.1123H30.5361V28.5137ZM27.5557 28.5137H24.9014V26.1123H27.5557V28.5137ZM24.5762 28.5137H21.9219V26.1123H24.5762V28.5137ZM21.5957 28.5137H18.9414V26.1123H21.5957V28.5137ZM18.6152 28.5137H15.9609V26.1123H18.6152V28.5137ZM15.6357 28.5137H12.9824V26.1123H15.6357V28.5137ZM12.6562 28.5137H10.002V26.1123H12.6562V28.5137ZM9.67578 28.5137H7.02148V26.1123H9.67578V28.5137ZM3.71582 4.19922H0.932617V4.5H3.71582V6.90039H0.932617V7.20117H3.71582V9.60254H0.932617V9.90234H3.71582V12.3037H0.932617V12.6045H3.71582V15.0049H0.932617V15.3057H3.71582V17.707H0.932617V18.0068H3.71582V20.4092H0.932617V20.709H3.71582V23.1104H0.932617V23.4102H3.71582V25.8115H0.932617V26.1123H3.71582V28.5137H0.931641V2.41797H3.71582V4.19922ZM6.69629 26.1123V28.5137H4.04199V26.1123H6.69629ZM6.69629 23.4102V25.8115H4.04199V23.4102H6.69629ZM57.3945 25.8115H54.7021V23.4102H57.3945V25.8115ZM54.376 25.8115H51.7227V23.4102H54.376V25.8115ZM51.3965 25.8115H48.7422V23.4102H51.3965V25.8115ZM48.416 25.8115H45.7627V23.4102H48.416V25.8115ZM45.4365 25.8115H42.7822V23.4102H45.4365V25.8115ZM42.4561 25.8115H39.8018V23.4102H42.4561V25.8115ZM39.4766 25.8115H36.8223V23.4102H39.4766V25.8115ZM36.4961 25.8115H33.8418V23.4102H36.4961V25.8115ZM33.5166 25.8115H30.8623V23.4102H33.5166V25.8115ZM30.5361 25.8115H27.8818V23.4102H30.5361V25.8115ZM27.5557 25.8115H24.9014V23.4102H27.5557V25.8115ZM24.5762 25.8115H21.9219V23.4102H24.5762V25.8115ZM21.5957 25.8115H18.9414V23.4102H21.5957V25.8115ZM18.6152 25.8115H15.9609V23.4102H18.6152V25.8115ZM15.6357 25.8115H12.9824V23.4102H15.6357V25.8115ZM12.6562 25.8115H10.002V23.4102H12.6562V25.8115ZM9.67578 25.8115H7.02148V23.4102H9.67578V25.8115ZM6.69629 20.709V23.1104H4.04199V20.709H6.69629ZM57.3945 23.1104H54.7021V20.709H57.3945V23.1104ZM54.376 23.1104H51.7227V20.709H54.376V23.1104ZM51.3965 23.1104H48.7422V20.709H51.3965V23.1104ZM48.416 23.1104H45.7627V20.709H48.416V23.1104ZM45.4365 23.1104H42.7822V20.709H45.4365V23.1104ZM42.4561 23.1104H39.8018V20.709H42.4561V23.1104ZM39.4766 23.1104H36.8223V20.709H39.4766V23.1104ZM36.4961 23.1104H33.8418V20.709H36.4961V23.1104ZM33.5166 23.1104H30.8623V20.709H33.5166V23.1104ZM30.5361 23.1104H27.8818V20.709H30.5361V23.1104ZM27.5557 23.1104H24.9014V20.709H27.5557V23.1104ZM24.5762 23.1104H21.9219V20.709H24.5762V23.1104ZM21.5957 23.1104H18.9414V20.709H21.5957V23.1104ZM18.6152 23.1104H15.9609V20.709H18.6152V23.1104ZM15.6357 23.1104H12.9824V20.709H15.6357V23.1104ZM12.6562 23.1104H10.002V20.709H12.6562V23.1104ZM9.67578 23.1104H7.02148V20.709H9.67578V23.1104ZM6.69629 18.0068V20.4092H4.04199V18.0068H6.69629ZM57.3945 20.4092H54.7021V18.0068H57.3945V20.4092ZM54.376 20.4092H51.7227V18.0068H54.376V20.4092ZM51.3965 20.4092H48.7422V18.0068H51.3965V20.4092ZM48.416 20.4092H45.7627V18.0068H48.416V20.4092ZM45.4365 20.4092H42.7822V18.0068H45.4365V20.4092ZM42.4561 20.4092H39.8018V18.0068H42.4561V20.4092ZM39.4766 20.4092H36.8223V18.0068H39.4766V20.4092ZM36.4961 20.4092H33.8418V18.0068H36.4961V20.4092ZM33.5166 20.4092H30.8623V18.0068H33.5166V20.4092ZM30.5361 20.4092H27.8818V18.0068H30.5361V20.4092ZM27.5557 20.4092H24.9014V18.0068H27.5557V20.4092ZM24.5762 20.4092H21.9219V18.0068H24.5762V20.4092ZM21.5957 20.4092H18.9414V18.0068H21.5957V20.4092ZM18.6152 20.4092H15.9609V18.0068H18.6152V20.4092ZM15.6357 20.4092H12.9824V18.0068H15.6357V20.4092ZM12.6562 20.4092H10.002V18.0068H12.6562V20.4092ZM9.67578 20.4092H7.02148V18.0068H9.67578V20.4092ZM6.69629 15.3057V17.707H4.04199V15.3057H6.69629ZM57.3945 17.707H54.7021V15.3057H57.3945V17.707ZM54.376 17.707H51.7227V15.3057H54.376V17.707ZM51.3965 17.707H48.7422V15.3057H51.3965V17.707ZM48.416 17.707H45.7627V15.3057H48.416V17.707ZM45.4365 17.707H42.7822V15.3057H45.4365V17.707ZM42.4561 17.707H39.8018V15.3057H42.4561V17.707ZM39.4766 17.707H36.8223V15.3057H39.4766V17.707ZM36.4961 17.707H33.8418V15.3057H36.4961V17.707ZM33.5166 17.707H30.8623V15.3057H33.5166V17.707ZM30.5361 17.707H27.8818V15.3057H30.5361V17.707ZM27.5557 17.707H24.9014V15.3057H27.5557V17.707ZM24.5762 17.707H21.9219V15.3057H24.5762V17.707ZM21.5957 17.707H18.9414V15.3057H21.5957V17.707ZM18.6152 17.707H15.9609V15.3057H18.6152V17.707ZM15.6357 17.707H12.9824V15.3057H15.6357V17.707ZM12.6562 17.707H10.002V15.3057H12.6562V17.707ZM9.67578 17.707H7.02148V15.3057H9.67578V17.707ZM6.69629 12.6045V15.0049H4.04199V12.6045H6.69629ZM57.3945 15.0049H54.7021V12.6045H57.3945V15.0049ZM54.376 15.0049H51.7227V12.6045H54.376V15.0049ZM51.3965 15.0049H48.7422V12.6045H51.3965V15.0049ZM48.416 15.0049H45.7627V12.6045H48.416V15.0049ZM45.4365 15.0049H42.7822V12.6045H45.4365V15.0049ZM42.4561 15.0049H39.8018V12.6045H42.4561V15.0049ZM39.4766 15.0049H36.8223V12.6045H39.4766V15.0049ZM36.4961 15.0049H33.8418V12.6045H36.4961V15.0049ZM33.5166 15.0049H30.8623V12.6045H33.5166V15.0049ZM30.5361 15.0049H27.8818V12.6045H30.5361V15.0049ZM27.5557 15.0049H24.9014V12.6045H27.5557V15.0049ZM24.5762 15.0049H21.9219V12.6045H24.5762V15.0049ZM21.5957 15.0049H18.9414V12.6045H21.5957V15.0049ZM18.6152 15.0049H15.9609V12.6045H18.6152V15.0049ZM15.6357 15.0049H12.9824V12.6045H15.6357V15.0049ZM12.6562 15.0049H10.002V12.6045H12.6562V15.0049ZM9.67578 15.0049H7.02148V12.6045H9.67578V15.0049ZM6.69629 9.90234V12.3037H4.04199V9.90234H6.69629ZM57.3945 12.3037H54.7021V9.90234H57.3945V12.3037ZM54.376 12.3037H51.7227V9.90234H54.376V12.3037ZM51.3965 12.3037H48.7422V9.90234H51.3965V12.3037ZM48.416 12.3037H45.7627V9.90234H48.416V12.3037ZM45.4365 12.3037H42.7822V9.90234H45.4365V12.3037ZM42.4561 12.3037H39.8018V9.90234H42.4561V12.3037ZM39.4766 12.3037H36.8223V9.90234H39.4766V12.3037ZM36.4961 12.3037H33.8418V9.90234H36.4961V12.3037ZM33.5166 12.3037H30.8623V9.90234H33.5166V12.3037ZM30.5361 12.3037H27.8818V9.90234H30.5361V12.3037ZM27.5557 12.3037H24.9014V9.90234H27.5557V12.3037ZM24.5762 12.3037H21.9219V9.90234H24.5762V12.3037ZM21.5957 12.3037H18.9414V9.90234H21.5957V12.3037ZM18.6152 12.3037H15.9609V9.90234H18.6152V12.3037ZM15.6357 12.3037H12.9824V9.90234H15.6357V12.3037ZM12.6562 12.3037H10.002V9.90234H12.6562V12.3037ZM9.67578 12.3037H7.02148V9.90234H9.67578V12.3037ZM6.69629 7.20117V9.60254H4.04199V7.20117H6.69629ZM57.3945 9.60254H54.7021V7.20117H57.3945V9.60254ZM54.376 9.60254H51.7227V7.20117H54.376V9.60254ZM51.3965 9.60254H48.7422V7.20117H51.3965V9.60254ZM48.416 9.60254H45.7627V7.20117H48.416V9.60254ZM45.4365 9.60254H42.7822V7.20117H45.4365V9.60254ZM42.4561 9.60254H39.8018V7.20117H42.4561V9.60254ZM39.4766 9.60254H36.8223V7.20117H39.4766V9.60254ZM36.4961 9.60254H33.8418V7.20117H36.4961V9.60254ZM33.5166 9.60254H30.8623V7.20117H33.5166V9.60254ZM30.5361 9.60254H27.8818V7.20117H30.5361V9.60254ZM27.5557 9.60254H24.9014V7.20117H27.5557V9.60254ZM24.5762 9.60254H21.9219V7.20117H24.5762V9.60254ZM21.5957 9.60254H18.9414V7.20117H21.5957V9.60254ZM18.6152 9.60254H15.9609V7.20117H18.6152V9.60254ZM15.6357 9.60254H12.9824V7.20117H15.6357V9.60254ZM12.6562 9.60254H10.002V7.20117H12.6562V9.60254ZM9.67578 9.60254H7.02148V7.20117H9.67578V9.60254ZM6.69629 4.5V6.90039H4.04199V4.5H6.69629ZM57.3945 6.90039H54.7021V4.5H57.3945V6.90039ZM54.376 6.90039H51.7227V4.5H54.376V6.90039ZM51.3965 6.90039H48.7422V4.5H51.3965V6.90039ZM48.416 6.90039H45.7627V4.5H48.416V6.90039ZM45.4365 6.90039H42.7822V4.5H45.4365V6.90039ZM42.4561 6.90039H39.8018V4.5H42.4561V6.90039ZM39.4766 6.90039H36.8223V4.5H39.4766V6.90039ZM36.4961 6.90039H33.8418V4.5H36.4961V6.90039ZM33.5166 6.90039H30.8623V4.5H33.5166V6.90039ZM30.5361 6.90039H27.8818V4.5H30.5361V6.90039ZM27.5557 6.90039H24.9014V4.5H27.5557V6.90039ZM24.5762 6.90039H21.9219V4.5H24.5762V6.90039ZM21.5957 6.90039H18.9414V4.5H21.5957V6.90039ZM18.6152 6.90039H15.9609V4.5H18.6152V6.90039ZM15.6357 6.90039H12.9824V4.5H15.6357V6.90039ZM12.6562 6.90039H10.002V4.5H12.6562V6.90039ZM9.67578 6.90039H7.02148V4.5H9.67578V6.90039ZM6.69629 4.19922H4.04199V2.41797H6.69629V4.19922ZM57.3945 4.19922H54.7021V2.41797H57.3945V4.19922ZM54.376 4.19922H51.7227V2.41797H54.376V4.19922ZM51.3965 4.19922H48.7422V2.41797H51.3965V4.19922ZM48.416 4.19922H45.7627V2.41797H48.416V4.19922ZM45.4365 4.19922H42.7822V2.41797H45.4365V4.19922ZM42.4561 4.19922H39.8018V2.41797H42.4561V4.19922ZM39.4766 4.19922H36.8223V2.41797H39.4766V4.19922ZM36.4961 4.19922H33.8418V2.41797H36.4961V4.19922ZM33.5166 4.19922H30.8623V2.41797H33.5166V4.19922ZM30.5361 4.19922H27.8818V2.41797H30.5361V4.19922ZM27.5557 4.19922H24.9014V2.41797H27.5557V4.19922ZM24.5762 4.19922H21.9219V2.41797H24.5762V4.19922ZM21.5957 4.19922H18.9414V2.41797H21.5957V4.19922ZM18.6152 4.19922H15.9609V2.41797H18.6152V4.19922ZM15.6357 4.19922H12.9824V2.41797H15.6357V4.19922ZM12.6562 4.19922H10.002V2.41797H12.6562V4.19922ZM9.67578 4.19922H7.02148V2.41797H9.67578V4.19922Z" fill="#00A5EB"/>
</svg>
