<svg width="852" height="122" viewBox="0 0 852 122" fill="none" xmlns="http://www.w3.org/2000/svg">
<path d="M556 119.912H550.797V114.262H546.105V119.912H545.455V114.262H540.252V119.913H539.602V114.262H534.398V119.913H533.748V114.262H528.546V119.912H527.896V114.262H522.591L522.092 119.996H852V122H0V119.996H329.909L329.409 114.262H324.477V119.912H323.826V114.262H318.625V119.913H317.975V114.262H312.771V119.913H312.121V114.262H306.918V119.912H306.268V114.262H301.204V119.912H296V0H556V119.912ZM331.853 119.826L329.953 119.996H522.06L520.148 119.824L520.633 114.262H515.994L515.491 119.938L514.843 119.878L515.341 114.262H510.387L509.894 119.946L509.246 119.889L509.734 114.262H504.828L504.357 119.934L503.709 119.878L504.175 114.262H499.221L498.782 119.942L498.135 119.891L498.569 114.262H493.559L493.165 119.936L492.517 119.89L492.906 114.262H487.95L487.623 119.923L486.974 119.885L487.298 114.262H482.231L482.025 119.921L481.375 119.896L481.58 114.262H476.606L476.509 119.922L475.858 119.91L475.956 114.262H470.97L470.927 119.907L470.276 119.902L470.319 114.262H465.339V119.911H464.688V114.262H459.766V119.911H459.115V114.262H454.192V119.911H453.542V114.262H448.618V119.911H447.968V114.262H443.046V119.911H442.396V114.262H437.473V119.911H436.822V114.262H431.898V119.911H431.248V114.262H426.325V119.911H425.675V114.262H420.752V119.91H420.102V114.262H415.179V119.91H414.527V114.262H409.604V119.91H408.954V114.262H404.03V119.91H403.38V114.262H398.458V119.91H397.808V114.262H392.885V119.91H392.233V114.262H387.312V119.91H386.661V114.262H381.701L381.746 119.917L381.096 119.922L381.051 114.262H376.057L376.157 119.894L375.507 119.905L375.406 114.262H370.384L370.586 119.887L369.936 119.911L369.732 114.262H364.696L365.021 119.894L364.371 119.932L364.044 114.262H359.05L359.436 119.898L358.787 119.944L358.397 114.262H353.437L353.871 119.876L353.224 119.928L352.785 114.262H347.834L348.301 119.894L347.652 119.949L347.181 114.262H342.234L342.719 119.885L342.071 119.942L341.582 114.262H336.647L337.143 119.881L336.495 119.94L335.994 114.262H331.368L331.853 119.826ZM301.204 113.601H306.268V108.212H301.204V113.601ZM306.918 113.601H312.121V108.212H306.918V113.601ZM312.771 113.601H317.975V108.212H312.771V113.601ZM318.625 113.601H323.826V108.212H318.625V113.601ZM324.477 113.601H329.352L328.883 108.212H324.477V113.601ZM331.311 113.601H335.937L335.461 108.212H330.842L331.311 113.601ZM336.589 113.601H341.525L341.062 108.212H336.114L336.589 113.601ZM342.178 113.601H347.126L346.68 108.212H341.714L342.178 113.601ZM347.779 113.601H352.733L352.316 108.212H347.333L347.779 113.601ZM353.385 113.601H358.353L357.983 108.212H352.968L353.385 113.601ZM359.004 113.601H364.006L363.696 108.212H358.635L359.004 113.601ZM364.658 113.601H369.709L369.516 108.212H364.348L364.658 113.601ZM370.36 113.601H375.394L375.298 108.212H370.167L370.36 113.601ZM376.045 113.601H381.045L381.002 108.212H375.948L376.045 113.601ZM381.695 113.601H386.661V108.212H381.653L381.695 113.601ZM387.312 113.601H392.233V108.212H387.312V113.601ZM392.885 113.601H397.808V108.212H392.885V113.601ZM398.458 113.601H403.38V108.212H398.458V113.601ZM404.03 113.601H408.954V108.212H404.03V113.601ZM409.604 113.601H414.527V108.212H409.604V113.601ZM415.179 113.601H420.102V108.212H415.179V113.601ZM420.752 113.601H425.675V108.212H420.752V113.601ZM426.325 113.601H431.248V108.212H426.325V113.601ZM431.898 113.601H436.822V108.212H431.898V113.601ZM437.473 113.601H442.396V108.212H437.473V113.601ZM443.046 113.601H447.968V108.212H443.046V113.601ZM448.618 113.601H453.542V108.212H448.618V113.601ZM454.192 113.601H459.115V108.212H454.192V113.601ZM459.766 113.601H464.688V108.212H459.766V113.601ZM465.339 113.601H470.325L470.366 108.212H465.339V113.601ZM470.976 113.601H475.967L476.06 108.212H471.017L470.976 113.601ZM476.617 113.601H481.604L481.801 108.212H476.71L476.617 113.601ZM482.256 113.601H487.337L487.647 108.212H482.452L482.256 113.601ZM487.988 113.601H492.952L493.326 108.212H488.299L487.988 113.601ZM493.604 113.601H498.62L499.036 108.212H493.978L493.604 113.601ZM499.271 113.601H504.229L504.677 108.212H499.688L499.271 113.601ZM504.883 113.601H509.792L510.26 108.212H505.329L504.883 113.601ZM510.444 113.601H515.399L515.877 108.212H510.912L510.444 113.601ZM516.053 113.601H520.689L521.158 108.212H516.531L516.053 113.601ZM522.648 113.601H527.896V108.212H523.117L522.648 113.601ZM528.546 113.601H533.748V108.212H528.546V113.601ZM534.398 113.601H539.602V108.212H534.398V113.601ZM540.252 113.601H545.455V108.212H540.252V113.601ZM546.105 113.601H550.797V108.212H546.105V113.601ZM301.204 107.55H306.268V102.163H301.204V107.55ZM306.918 107.55H312.121V102.163H306.918V107.55ZM312.771 107.55H317.975V102.163H312.771V107.55ZM318.625 107.55H323.826V102.163H318.625V107.55ZM324.477 107.55H328.825L328.356 102.163H324.477V107.55ZM330.784 107.55H335.402L334.928 102.163H330.315L330.784 107.55ZM336.056 107.55H341.005L340.541 102.163H335.581L336.056 107.55ZM341.657 107.55H346.625L346.179 102.163H341.193L341.657 107.55ZM347.277 107.55H352.266L351.849 102.163H346.831L347.277 107.55ZM352.917 107.55H357.938L357.569 102.163H352.5L352.917 107.55ZM358.59 107.55H363.657L363.348 102.163H358.221L358.59 107.55ZM364.31 107.55H369.492L369.298 102.163H363.999L364.31 107.55ZM370.143 107.55H375.286L375.189 102.163H369.949L370.143 107.55ZM375.937 107.55H380.997L380.954 102.163H375.84L375.937 107.55ZM381.647 107.55H386.661V102.163H381.604L381.647 107.55ZM387.312 107.55H392.233V102.163H387.312V107.55ZM392.885 107.55H397.808V102.163H392.885V107.55ZM398.458 107.55H403.38V102.163H398.458V107.55ZM404.03 107.55H408.954V102.163H404.03V107.55ZM409.604 107.55H414.527V102.163H409.604V107.55ZM415.179 107.55H420.102V102.163H415.179V107.55ZM420.752 107.55H425.675V102.163H420.752V107.55ZM426.325 107.55H431.248V102.163H426.325V107.55ZM431.898 107.55H436.822V102.163H431.898V107.55ZM437.473 107.55H442.396V102.163H437.473V107.55ZM443.046 107.55H447.968V102.163H443.046V107.55ZM448.618 107.55H453.542V102.163H448.618V107.55ZM454.192 107.55H459.115V102.163H454.192V107.55ZM459.766 107.55H464.688V102.163H459.766V107.55ZM465.339 107.55H470.371L470.412 102.163H465.339V107.55ZM471.021 107.55H476.071L476.164 102.163H471.062L471.021 107.55ZM476.722 107.55H481.824L482.021 102.163H476.814L476.722 107.55ZM482.476 107.55H487.686L487.997 102.163H482.672L482.476 107.55ZM488.338 107.55H493.372L493.745 102.163H488.648L488.338 107.55ZM494.023 107.55H499.087L499.503 102.163H494.397L494.023 107.55ZM499.738 107.55H504.731L505.178 102.163H500.154L499.738 107.55ZM505.385 107.55H510.317L510.784 102.163H505.831L505.385 107.55ZM510.97 107.55H515.937L516.414 102.163H511.438L510.97 107.55ZM516.59 107.55H521.216L521.685 102.163H517.067L516.59 107.55ZM523.175 107.55H527.896V102.163H523.644L523.175 107.55ZM528.546 107.55H533.748V102.163H528.546V107.55ZM534.398 107.55H539.602V102.163H534.398V107.55ZM540.252 107.55H545.455V102.163H540.252V107.55ZM546.105 107.55H550.797V102.163H546.105V107.55ZM301.204 101.501H306.268V96.1123H301.204V101.501ZM306.918 101.501H312.121V96.1123H306.918V101.501ZM312.771 101.501H317.975V96.1123H312.771V101.501ZM318.625 101.501H323.826V96.1123H318.625V101.501ZM324.477 101.501H328.299L327.83 96.1123H324.477V101.501ZM330.258 101.501H334.869L334.395 96.1123H329.789L330.258 101.501ZM335.522 101.501H340.484L340.021 96.1123H335.047L335.522 101.501ZM341.137 101.501H346.123L345.677 96.1123H340.673L341.137 101.501ZM346.776 101.501H351.797L351.38 96.1123H346.33L346.776 101.501ZM352.448 101.501H357.523L357.154 96.1123H352.031L352.448 101.501ZM358.176 101.501H363.31L362.999 96.1123H357.807L358.176 101.501ZM363.961 101.501H369.274L369.081 96.1123H363.65L363.961 101.501ZM369.926 101.501H375.178L375.081 96.1123H369.732L369.926 101.501ZM375.828 101.501H380.949L380.906 96.1123H375.731L375.828 101.501ZM381.6 101.501H386.661V96.1123H381.557L381.6 101.501ZM387.312 101.501H392.233V96.1123H387.312V101.501ZM392.885 101.501H397.808V96.1123H392.885V101.501ZM398.458 101.501H403.38V96.1123H398.458V101.501ZM404.03 101.501H408.954V96.1123H404.03V101.501ZM409.604 101.501H414.527V96.1123H409.604V101.501ZM415.179 101.501H420.102V96.1123H415.179V101.501ZM420.752 101.501H425.675V96.1123H420.752V101.501ZM426.325 101.501H431.248V96.1123H426.325V101.501ZM431.898 101.501H436.822V96.1123H431.898V101.501ZM437.473 101.501H442.396V96.1123H437.473V101.501ZM443.046 101.501H447.968V96.1123H443.046V101.501ZM448.618 101.501H453.542V96.1123H448.618V101.501ZM454.192 101.501H459.115V96.1123H454.192V101.501ZM459.766 101.501H464.688V96.1123H459.766V101.501ZM465.339 101.501H470.418L470.459 96.1123H465.339V101.501ZM471.068 101.501H476.176L476.269 96.1123H471.109L471.068 101.501ZM476.826 101.501H482.045L482.241 96.1123H476.919L476.826 101.501ZM482.696 101.501H488.035L488.346 96.1123H482.893L482.696 101.501ZM488.687 101.501H493.791L494.165 96.1123H488.998L488.687 101.501ZM494.443 101.501H499.554L499.97 96.1123H494.816L494.443 101.501ZM500.205 101.501H505.232L505.68 96.1123H500.621L500.205 101.501ZM505.886 101.501H510.842L511.31 96.1123H506.333L505.886 101.501ZM511.494 101.501H516.473L516.95 96.1123H511.962L511.494 101.501ZM517.126 101.501H521.742L522.211 96.1123H517.604L517.126 101.501ZM523.701 101.501H527.896V96.1123H524.17L523.701 101.501ZM528.546 101.501H533.748V96.1123H528.546V101.501ZM534.398 101.501H539.602V96.1123H534.398V101.501ZM540.252 101.501H545.455V96.1123H540.252V101.501ZM546.105 101.501H550.797V96.1123H546.105V101.501ZM301.204 95.4512H306.268V90.0635H301.204V95.4512ZM306.918 95.4512H312.121V90.0635H306.918V95.4512ZM312.771 95.4512H317.975V90.0635H312.771V95.4512ZM318.625 95.4512H323.826V90.0635H318.625V95.4512ZM324.477 95.4512H327.772L327.304 90.0635H324.477V95.4512ZM329.731 95.4512H334.336L333.861 90.0635H329.263L329.731 95.4512ZM334.989 95.4512H339.964L339.5 90.0635H334.514L334.989 95.4512ZM340.616 95.4512H345.622L345.176 90.0635H340.152L340.616 95.4512ZM346.275 95.4512H351.329L350.911 90.0635H345.828L346.275 95.4512ZM351.98 95.4512H357.109L356.74 90.0635H351.562L351.98 95.4512ZM357.761 95.4512H362.961L362.65 90.0635H357.392L357.761 95.4512ZM363.612 95.4512H369.058L368.864 90.0635H363.302L363.612 95.4512ZM369.708 95.4512H375.069L374.973 90.0635H369.515L369.708 95.4512ZM375.72 95.4512H380.9L380.857 90.0635H375.623L375.72 95.4512ZM381.551 95.4512H386.661V90.0635H381.509L381.551 95.4512ZM387.312 95.4512H392.233V90.0635H387.312V95.4512ZM392.885 95.4512H397.808V90.0635H392.885V95.4512ZM398.458 95.4512H403.38V90.0635H398.458V95.4512ZM404.03 95.4512H408.954V90.0635H404.03V95.4512ZM409.604 95.4512H414.527V90.0635H409.604V95.4512ZM415.179 95.4512H420.102V90.0635H415.179V95.4512ZM420.752 95.4512H425.675V90.0635H420.752V95.4512ZM426.325 95.4512H431.248V90.0635H426.325V95.4512ZM431.898 95.4512H436.822V90.0635H431.898V95.4512ZM437.473 95.4512H442.396V90.0635H437.473V95.4512ZM443.046 95.4512H447.968V90.0635H443.046V95.4512ZM448.618 95.4512H453.542V90.0635H448.618V95.4512ZM454.192 95.4512H459.115V90.0635H454.192V95.4512ZM459.766 95.4512H464.688V90.0635H459.766V95.4512ZM465.339 95.4512H470.464L470.505 90.0635H465.339V95.4512ZM471.114 95.4512H476.279L476.372 90.0635H471.155L471.114 95.4512ZM476.93 95.4512H482.266L482.462 90.0635H477.022L476.93 95.4512ZM482.917 95.4512H488.385L488.695 90.0635H483.112L482.917 95.4512ZM489.036 95.4512H494.211L494.584 90.0635H489.347L489.036 95.4512ZM494.862 95.4512H500.021L500.437 90.0635H495.236L494.862 95.4512ZM500.672 95.4512H505.734L506.182 90.0635H501.088L500.672 95.4512ZM506.388 95.4512H511.367L511.835 90.0635H506.834L506.388 95.4512ZM512.02 95.4512H517.009L517.487 90.0635H512.487L512.02 95.4512ZM517.663 95.4512H522.269L522.737 90.0635H518.141L517.663 95.4512ZM524.228 95.4512H527.896V90.0635H524.696L524.228 95.4512ZM528.546 95.4512H533.748V90.0635H528.546V95.4512ZM534.398 95.4512H539.602V90.0635H534.398V95.4512ZM540.252 95.4512H545.455V90.0635H540.252V95.4512ZM546.105 95.4512H550.797V90.0635H546.105V95.4512ZM301.204 89.4014H306.268V84.0137H301.204V89.4014ZM306.918 89.4014H312.121V84.0137H306.918V89.4014ZM312.771 89.4014H317.975V84.0137H312.771V89.4014ZM318.625 89.4014H323.826V84.0137H318.625V89.4014ZM324.477 89.4014H327.246L326.777 84.0137H324.477V89.4014ZM329.205 89.4014H333.803L333.328 84.0137H328.736L329.205 89.4014ZM334.456 89.4014H339.442L338.979 84.0137H333.98L334.456 89.4014ZM340.095 89.4014H345.12L344.674 84.0137H339.632L340.095 89.4014ZM345.773 89.4014H350.86L350.443 84.0137H345.327L345.773 89.4014ZM351.512 89.4014H356.695L356.326 84.0137H351.095L351.512 89.4014ZM357.347 89.4014H362.612L362.302 84.0137H356.978L357.347 89.4014ZM363.264 89.4014H368.84L368.646 84.0137H362.953L363.264 89.4014ZM369.491 89.4014H374.961L374.864 84.0137H369.298L369.491 89.4014ZM375.611 89.4014H380.853L380.81 84.0137H375.515L375.611 89.4014ZM381.503 89.4014H386.661V84.0137H381.46L381.503 89.4014ZM387.312 89.4014H392.233V84.0137H387.312V89.4014ZM392.885 89.4014H397.808V84.0137H392.885V89.4014ZM398.458 89.4014H403.38V84.0137H398.458V89.4014ZM404.03 89.4014H408.954V84.0137H404.03V89.4014ZM409.604 89.4014H414.527V84.0137H409.604V89.4014ZM415.179 89.4014H420.102V84.0137H415.179V89.4014ZM420.752 89.4014H425.675V84.0137H420.752V89.4014ZM426.325 89.4014H431.248V84.0137H426.325V89.4014ZM431.898 89.4014H436.822V84.0137H431.898V89.4014ZM437.473 89.4014H442.396V84.0137H437.473V89.4014ZM443.046 89.4014H447.968V84.0137H443.046V89.4014ZM448.618 89.4014H453.542V84.0137H448.618V89.4014ZM454.192 89.4014H459.115V84.0137H454.192V89.4014ZM459.766 89.4014H464.688V84.0137H459.766V89.4014ZM465.339 89.4014H470.511L470.552 84.0137H465.339V89.4014ZM471.161 89.4014H476.384L476.477 84.0137H471.202L471.161 89.4014ZM477.034 89.4014H482.485L482.682 84.0137H477.127L477.034 89.4014ZM483.137 89.4014H488.733L489.045 84.0137H483.333L483.137 89.4014ZM489.386 89.4014H494.63L495.004 84.0137H489.696L489.386 89.4014ZM495.282 89.4014H500.487L500.903 84.0137H495.655L495.282 89.4014ZM501.139 89.4014H506.236L506.683 84.0137H501.555L501.139 89.4014ZM506.89 89.4014H511.893L512.36 84.0137H507.336L506.89 89.4014ZM512.545 89.4014H517.546L518.023 84.0137H513.013L512.545 89.4014ZM518.199 89.4014H522.795L523.264 84.0137H518.677L518.199 89.4014ZM524.754 89.4014H527.896V84.0137H525.223L524.754 89.4014ZM528.546 89.4014H533.748V84.0137H528.546V89.4014ZM534.398 89.4014H539.602V84.0137H534.398V89.4014ZM540.252 89.4014H545.455V84.0137H540.252V89.4014ZM546.105 89.4014H550.797V84.0137H546.105V89.4014ZM301.204 83.3516H306.268V77.9648H301.204V83.3516ZM306.918 83.3516H312.121V77.9648H306.918V83.3516ZM312.771 83.3516H317.975V77.9648H312.771V83.3516ZM318.625 83.3516H323.826V77.9648H318.625V83.3516ZM324.477 83.3516H326.72L326.251 77.9648H324.477V83.3516ZM328.679 83.3516H333.27L332.795 77.9648H328.21L328.679 83.3516ZM333.923 83.3516H338.922L338.458 77.9648H333.447L333.923 83.3516ZM339.574 83.3516H344.619L344.173 77.9648H339.11L339.574 83.3516ZM345.272 83.3516H350.392L349.975 77.9648H344.826L345.272 83.3516ZM351.043 83.3516H356.28L355.911 77.9648H350.626L351.043 83.3516ZM356.933 83.3516H362.264L361.953 77.9648H356.563L356.933 83.3516ZM362.915 83.3516H368.623L368.43 77.9648H362.604L362.915 83.3516ZM369.273 83.3516H374.853L374.756 77.9648H369.08L369.273 83.3516ZM375.503 83.3516H380.805L380.762 77.9648H375.406L375.503 83.3516ZM381.455 83.3516H386.661V77.9648H381.412L381.455 83.3516ZM387.312 83.3516H392.233V77.9648H387.312V83.3516ZM392.885 83.3516H397.808V77.9648H392.885V83.3516ZM398.458 83.3516H403.38V77.9648H398.458V83.3516ZM404.03 83.3516H408.954V77.9648H404.03V83.3516ZM409.604 83.3516H414.527V77.9648H409.604V83.3516ZM415.179 83.3516H420.102V77.9648H415.179V83.3516ZM420.752 83.3516H425.675V77.9648H420.752V83.3516ZM426.325 83.3516H431.248V77.9648H426.325V83.3516ZM431.898 83.3516H436.822V77.9648H431.898V83.3516ZM437.473 83.3516H442.396V77.9648H437.473V83.3516ZM443.046 83.3516H447.968V77.9648H443.046V83.3516ZM448.618 83.3516H453.542V77.9648H448.618V83.3516ZM454.192 83.3516H459.115V77.9648H454.192V83.3516ZM459.766 83.3516H464.688V77.9648H459.766V83.3516ZM465.339 83.3516H470.557L470.598 77.9648H465.339V83.3516ZM471.207 83.3516H476.487L476.58 77.9648H471.249L471.207 83.3516ZM477.139 83.3516H482.706L482.902 77.9648H477.231L477.139 83.3516ZM483.357 83.3516H489.083L489.394 77.9648H483.554L483.357 83.3516ZM489.734 83.3516H495.05L495.423 77.9648H490.046L489.734 83.3516ZM495.701 83.3516H500.954L501.37 77.9648H496.075L495.701 83.3516ZM501.605 83.3516H506.737L507.185 77.9648H502.021L501.605 83.3516ZM507.391 83.3516H512.418L512.885 77.9648H507.838L507.391 83.3516ZM513.07 83.3516H518.082L518.56 77.9648H513.537L513.07 83.3516ZM518.736 83.3516H523.321L523.79 77.9648H519.214L518.736 83.3516ZM525.28 83.3516H527.896V77.9648H525.749L525.28 83.3516ZM528.546 83.3516H533.748V77.9648H528.546V83.3516ZM534.398 83.3516H539.602V77.9648H534.398V83.3516ZM540.252 83.3516H545.455V77.9648H540.252V83.3516ZM546.105 83.3516H550.797V77.9648H546.105V83.3516ZM301.204 77.3027H306.268V71.9141H301.204V77.3027ZM306.918 77.3027H312.121V71.9141H306.918V77.3027ZM312.771 77.3027H317.975V71.9141H312.771V77.3027ZM318.625 77.3027H323.826V71.9141H318.625V77.3027ZM324.477 77.3027H326.193L325.725 71.9141H324.477V77.3027ZM328.152 77.3027H332.736L332.261 71.9141H327.684L328.152 77.3027ZM333.39 77.3027H338.401L337.938 71.9141H332.914L333.39 77.3027ZM339.054 77.3027H344.118L343.671 71.9141H338.59L339.054 77.3027ZM344.771 77.3027H349.924L349.507 71.9141H344.324L344.771 77.3027ZM350.575 77.3027H355.866L355.497 71.9141H350.158L350.575 77.3027ZM356.518 77.3027H361.915L361.604 71.9141H356.148L356.518 77.3027ZM362.566 77.3027H368.405L368.212 71.9141H362.256L362.566 77.3027ZM369.057 77.3027H374.744L374.647 71.9141H368.863L369.057 77.3027ZM375.395 77.3027H380.756L380.713 71.9141H375.298L375.395 77.3027ZM381.406 77.3027H386.661V71.9141H381.363L381.406 77.3027ZM387.312 77.3027H392.233V71.9141H387.312V77.3027ZM392.885 77.3027H397.808V71.9141H392.885V77.3027ZM398.458 77.3027H403.38V71.9141H398.458V77.3027ZM404.03 77.3027H408.954V71.9141H404.03V77.3027ZM409.604 77.3027H414.527V71.9141H409.604V77.3027ZM415.179 77.3027H420.102V71.9141H415.179V77.3027ZM420.752 77.3027H425.675V71.9141H420.752V77.3027ZM426.325 77.3027H431.248V71.9141H426.325V77.3027ZM431.898 77.3027H436.822V71.9141H431.898V77.3027ZM437.473 77.3027H442.396V71.9141H437.473V77.3027ZM443.046 77.3027H447.968V71.9141H443.046V77.3027ZM448.618 77.3027H453.542V71.9141H448.618V77.3027ZM454.192 77.3027H459.115V71.9141H454.192V77.3027ZM459.766 77.3027H464.688V71.9141H459.766V77.3027ZM465.339 77.3027H470.604L470.645 71.9141H465.339V77.3027ZM471.254 77.3027H476.592L476.685 71.9141H471.295L471.254 77.3027ZM477.242 77.3027H482.926L483.122 71.9141H477.335L477.242 77.3027ZM483.577 77.3027H489.433L489.743 71.9141H483.773L483.577 77.3027ZM490.084 77.3027H495.469L495.842 71.9141H490.395L490.084 77.3027ZM496.121 77.3027H501.421L501.837 71.9141H496.494L496.121 77.3027ZM502.072 77.3027H507.239L507.687 71.9141H502.488L502.072 77.3027ZM507.893 77.3027H512.942L513.41 71.9141H508.339L507.893 77.3027ZM513.595 77.3027H518.619L519.097 71.9141H514.062L513.595 77.3027ZM519.272 77.3027H523.848L524.316 71.9141H519.75L519.272 77.3027ZM525.807 77.3027H527.896V71.9141H526.275L525.807 77.3027ZM528.546 77.3027H533.748V71.9141H528.546V77.3027ZM534.398 77.3027H539.602V71.9141H534.398V77.3027ZM540.252 77.3027H545.455V71.9141H540.252V77.3027ZM546.105 77.3027H550.797V71.9141H546.105V77.3027ZM301.204 71.252H306.268V65.8652H301.204V71.252ZM306.918 71.252H312.121V65.8652H306.918V71.252ZM312.771 71.252H317.975V65.8652H312.771V71.252ZM318.625 71.252H323.826V65.8652H318.625V71.252ZM324.477 71.252H325.667L325.198 65.8652H324.477V71.252ZM327.626 71.252H332.203L331.728 65.8652H327.157L327.626 71.252ZM332.855 71.252H337.881L337.417 65.8652H332.381L332.855 71.252ZM338.533 71.252H343.616L343.17 65.8652H338.069L338.533 71.252ZM344.27 71.252H349.455L349.038 65.8652H343.823L344.27 71.252ZM350.106 71.252H355.452L355.083 65.8652H349.689L350.106 71.252ZM356.104 71.252H361.566L361.256 65.8652H355.734L356.104 71.252ZM362.218 71.252H368.188L367.995 65.8652H361.907L362.218 71.252ZM368.839 71.252H374.636L374.539 65.8652H368.646L368.839 71.252ZM375.286 71.252H380.708L380.665 65.8652H375.19L375.286 71.252ZM381.358 71.252H386.661V65.8652H381.315L381.358 71.252ZM387.312 71.252H392.233V65.8652H387.312V71.252ZM392.885 71.252H397.808V65.8652H392.885V71.252ZM398.458 71.252H403.38V65.8652H398.458V71.252ZM404.03 71.252H408.954V65.8652H404.03V71.252ZM409.604 71.252H414.527V65.8652H409.604V71.252ZM415.179 71.252H420.102V65.8652H415.179V71.252ZM420.752 71.252H425.675V65.8652H420.752V71.252ZM426.325 71.252H431.248V65.8652H426.325V71.252ZM431.898 71.252H436.822V65.8652H431.898V71.252ZM437.473 71.252H442.396V65.8652H437.473V71.252ZM443.046 71.252H447.968V65.8652H443.046V71.252ZM448.618 71.252H453.542V65.8652H448.618V71.252ZM454.192 71.252H459.115V65.8652H454.192V71.252ZM459.766 71.252H464.688V65.8652H459.766V71.252ZM465.339 71.252H470.649L470.691 65.8652H465.339V71.252ZM471.3 71.252H476.696L476.789 65.8652H471.342L471.3 71.252ZM477.347 71.252H483.146L483.343 65.8652H477.439L477.347 71.252ZM483.798 71.252H489.781L490.093 65.8652H483.994L483.798 71.252ZM490.434 71.252H495.888L496.262 65.8652H490.744L490.434 71.252ZM496.54 71.252H501.888L502.304 65.8652H496.914L496.54 71.252ZM502.539 71.252H507.741L508.188 65.8652H502.955L502.539 71.252ZM508.395 71.252H513.468L513.936 65.8652H508.841L508.395 71.252ZM514.12 71.252H519.155L519.633 65.8652H514.588L514.12 71.252ZM519.809 71.252H524.374L524.843 65.8652H520.287L519.809 71.252ZM526.333 71.252H527.896V65.8652H526.802L526.333 71.252ZM528.546 71.252H533.748V65.8652H528.546V71.252ZM534.398 71.252H539.602V65.8652H534.398V71.252ZM540.252 71.252H545.455V65.8652H540.252V71.252ZM546.105 71.252H550.797V65.8652H546.105V71.252ZM301.204 65.2031H306.268V59.8145H301.204V65.2031ZM306.918 65.2031H312.121V59.8145H306.918V65.2031ZM312.771 65.2031H317.975V59.8145H312.771V65.2031ZM318.625 65.2031H323.826V59.8145H318.625V65.2031ZM324.477 65.2031H325.141L324.672 59.8145H324.477V65.2031ZM327.1 65.2031H331.67L331.194 59.8145H326.631L327.1 65.2031ZM332.322 65.2031H337.36L336.896 59.8145H331.848L332.322 65.2031ZM338.013 65.2031H343.115L342.668 59.8145H337.549L338.013 65.2031ZM343.768 65.2031H348.986L348.569 59.8145H343.321L343.768 65.2031ZM349.639 65.2031H355.037L354.668 59.8145H349.221L349.639 65.2031ZM355.689 65.2031H361.218L360.907 59.8145H355.32L355.689 65.2031ZM361.869 65.2031H367.972L367.777 59.8145H361.559L361.869 65.2031ZM368.622 65.2031H374.527L374.431 59.8145H368.429L368.622 65.2031ZM375.178 65.2031H380.66L380.617 59.8145H375.082L375.178 65.2031ZM381.311 65.2031H386.661V59.8145H381.268L381.311 65.2031ZM387.312 65.2031H392.233V59.8145H387.312V65.2031ZM392.885 65.2031H397.808V59.8145H392.885V65.2031ZM398.458 65.2031H403.38V59.8145H398.458V65.2031ZM404.03 65.2031H408.954V59.8145H404.03V65.2031ZM409.604 65.2031H414.527V59.8145H409.604V65.2031ZM415.179 65.2031H420.102V59.8145H415.179V65.2031ZM420.752 65.2031H425.675V59.8145H420.752V65.2031ZM426.325 65.2031H431.248V59.8145H426.325V65.2031ZM431.898 65.2031H436.822V59.8145H431.898V65.2031ZM437.473 65.2031H442.396V59.8145H437.473V65.2031ZM443.046 65.2031H447.968V59.8145H443.046V65.2031ZM448.618 65.2031H453.542V59.8145H448.618V65.2031ZM454.192 65.2031H459.115V59.8145H454.192V65.2031ZM459.766 65.2031H464.688V59.8145H459.766V65.2031ZM465.339 65.2031H470.696L470.737 59.8145H465.339V65.2031ZM471.347 65.2031H476.8L476.893 59.8145H471.388L471.347 65.2031ZM477.451 65.2031H483.367L483.563 59.8145H477.544L477.451 65.2031ZM484.019 65.2031H490.131L490.442 59.8145H484.215L484.019 65.2031ZM490.782 65.2031H496.308L496.681 59.8145H491.094L490.782 65.2031ZM496.96 65.2031H502.354L502.771 59.8145H497.333L496.96 65.2031ZM503.006 65.2031H508.243L508.689 59.8145H503.422L503.006 65.2031ZM508.896 65.2031H513.993L514.461 59.8145H509.343L508.896 65.2031ZM514.646 65.2031H519.691L520.17 59.8145H515.113L514.646 65.2031ZM520.346 65.2031H524.9L525.369 59.8145H520.823L520.346 65.2031ZM526.859 65.2031H527.896V59.8145H527.328L526.859 65.2031ZM528.546 65.2031H533.748V59.8145H528.546V65.2031ZM534.398 65.2031H539.602V59.8145H534.398V65.2031ZM540.252 65.2031H545.455V59.8145H540.252V65.2031ZM546.105 65.2031H550.797V59.8145H546.105V65.2031ZM301.204 59.1533H306.268V53.7656H301.204V59.1533ZM306.918 59.1533H312.121V53.7656H306.918V59.1533ZM312.771 59.1533H317.975V53.7656H312.771V59.1533ZM318.625 53.1045H323.798V53.7656H318.625V59.1533H323.826V50.0947L323.619 47.7148H318.625V53.1045ZM324.477 59.1533H324.614L324.477 57.5684V59.1533ZM326.573 59.1533H331.136L330.661 53.7656H326.104L326.573 59.1533ZM331.789 59.1533H336.839L336.376 53.7656H331.314L331.789 59.1533ZM337.492 59.1533H342.613L342.167 53.7656H337.028L337.492 59.1533ZM343.267 59.1533H348.519L348.102 53.7656H342.82L343.267 59.1533ZM349.17 59.1533H354.623L354.254 53.7656H348.753L349.17 59.1533ZM355.274 59.1533H360.869L360.559 53.7656H354.905L355.274 59.1533ZM361.521 59.1533H367.754L367.561 53.7656H361.211L361.521 59.1533ZM368.404 59.1533H374.419L374.323 53.7656H368.211L368.404 59.1533ZM375.07 59.1533H380.611L380.568 53.7656H374.974L375.07 59.1533ZM381.262 59.1533H386.661V53.7656H381.219L381.262 59.1533ZM387.312 59.1533H392.233V53.7656H387.312V59.1533ZM392.885 59.1533H397.808V53.7656H392.885V59.1533ZM398.458 59.1533H403.38V53.7656H398.458V59.1533ZM404.03 59.1533H408.954V53.7656H404.03V59.1533ZM409.604 59.1533H414.527V53.7656H409.604V59.1533ZM415.179 59.1533H420.102V53.7656H415.179V59.1533ZM420.752 59.1533H425.675V53.7656H420.752V59.1533ZM426.325 59.1533H431.248V53.7656H426.325V59.1533ZM431.898 59.1533H436.822V53.7656H431.898V59.1533ZM437.473 59.1533H442.396V53.7656H437.473V59.1533ZM443.046 59.1533H447.968V53.7656H443.046V59.1533ZM448.618 59.1533H453.542V53.7656H448.618V59.1533ZM454.192 59.1533H459.115V53.7656H454.192V59.1533ZM459.766 59.1533H464.688V53.7656H459.766V59.1533ZM465.339 59.1533H470.742L470.784 53.7656H465.339V59.1533ZM471.393 59.1533H476.904L476.997 53.7656H471.435L471.393 59.1533ZM477.555 59.1533H483.587L483.783 53.7656H477.647L477.555 59.1533ZM484.238 59.1533H490.48L490.791 53.7656H484.435L484.238 59.1533ZM491.132 59.1533H496.727L497.101 53.7656H491.442L491.132 59.1533ZM497.379 59.1533H502.821L503.237 53.7656H497.753L497.379 59.1533ZM503.473 59.1533H508.744L509.191 53.7656H503.889L503.473 59.1533ZM509.397 59.1533H514.518L514.985 53.7656H509.844L509.397 59.1533ZM515.17 59.1533H520.229L520.706 53.7656H515.638L515.17 59.1533ZM520.882 59.1533H525.427L525.896 53.7656H521.36L520.882 59.1533ZM527.386 59.1533H527.896V53.293L527.386 59.1533ZM528.546 59.1533H533.748V53.7656H528.546V59.1533ZM534.398 59.1533H539.602V53.7656H534.398V59.1533ZM540.252 59.1533H545.455V53.7656H540.252V59.1533ZM546.105 59.1533H550.797V53.7656H546.105V59.1533ZM301.204 53.1045H306.268V47.7148H301.204V53.1045ZM306.918 53.1045H312.121V47.7148H306.918V53.1045ZM312.771 53.1045H317.975V47.7148H312.771V53.1045ZM326.047 53.1045H330.603L330.128 47.7148H325.578L326.047 53.1045ZM331.256 53.1045H336.318L335.854 47.7148H330.781L331.256 53.1045ZM336.971 53.1045H342.112L341.666 47.7148H336.507L336.971 53.1045ZM342.766 53.1045H348.05L347.633 47.7148H342.318L342.766 53.1045ZM348.701 53.1045H354.209L353.84 47.7148H348.284L348.701 53.1045ZM354.86 53.1045H360.521L360.21 47.7148H354.491L354.86 53.1045ZM361.173 53.1045H367.537L367.344 47.7148H360.862L361.173 53.1045ZM368.188 53.1045H374.311L374.215 47.7148H367.994L368.188 53.1045ZM374.962 53.1045H380.563L380.521 47.7148H374.865L374.962 53.1045ZM381.214 53.1045H386.661V47.7148H381.171L381.214 53.1045ZM387.312 53.1045H392.233V47.7148H387.312V53.1045ZM392.885 53.1045H397.808V47.7148H392.885V53.1045ZM398.458 53.1045H403.38V47.7148H398.458V53.1045ZM404.03 53.1045H408.954V47.7148H404.03V53.1045ZM409.604 53.1045H414.527V47.7148H409.604V53.1045ZM415.179 53.1045H420.102V47.7148H415.179V53.1045ZM420.752 53.1045H425.675V47.7148H420.752V53.1045ZM426.325 53.1045H431.248V47.7148H426.325V53.1045ZM431.898 53.1045H436.822V47.7148H431.898V53.1045ZM437.473 53.1045H442.396V47.7148H437.473V53.1045ZM443.046 53.1045H447.968V47.7148H443.046V53.1045ZM448.618 53.1045H453.542V47.7148H448.618V53.1045ZM454.192 53.1045H459.115V47.7148H454.192V53.1045ZM459.766 53.1045H464.688V47.7148H459.766V53.1045ZM465.339 53.1045H470.789L470.83 47.7148H465.339V53.1045ZM471.439 53.1045H477.009L477.102 47.7148H471.48L471.439 53.1045ZM477.659 53.1045H483.808L484.004 47.7148H477.752L477.659 53.1045ZM484.459 53.1045H490.829L491.141 47.7148H484.655L484.459 53.1045ZM491.481 53.1045H497.146L497.52 47.7148H491.792L491.481 53.1045ZM497.799 53.1045H503.288L503.704 47.7148H498.172L497.799 53.1045ZM503.939 53.1045H509.246L509.692 47.7148H504.355L503.939 53.1045ZM509.899 53.1045H515.043L515.511 47.7148H510.346L509.899 53.1045ZM515.695 53.1045H520.765L521.243 47.7148H516.163L515.695 53.1045ZM521.419 53.1045H525.953L526.422 47.7148H521.896L521.419 53.1045ZM528.546 53.1045H533.748V47.7148H528.546V53.1045ZM534.398 53.1045H539.602V47.7148H534.398V53.1045ZM540.252 53.1045H545.455V47.7148H540.252V53.1045ZM546.105 53.1045H550.797V47.7148H546.105V53.1045ZM301.204 47.0537H306.268V41.665H301.204V47.0537ZM306.918 47.0537H312.121V41.665H306.918V47.0537ZM312.771 47.0537H317.975V41.665H312.771V47.0537ZM318.625 47.0537H323.562L323.093 41.665H318.625V47.0537ZM325.521 47.0537H330.069L329.595 41.665H325.052L325.521 47.0537ZM330.723 47.0537H335.798L335.334 41.665H330.248L330.723 47.0537ZM336.45 47.0537H341.61L341.164 41.665H335.986L336.45 47.0537ZM342.264 47.0537H347.582L347.164 41.665H341.817L342.264 47.0537ZM348.233 47.0537H353.794L353.425 41.665H347.816L348.233 47.0537ZM354.446 47.0537H360.172L359.861 41.665H354.077L354.446 47.0537ZM360.824 47.0537H367.319L367.126 41.665H360.514L360.824 47.0537ZM367.97 47.0537H374.202L374.106 41.665H367.776L367.97 47.0537ZM374.854 47.0537H380.516L380.473 41.665H374.757L374.854 47.0537ZM381.166 47.0537H386.661V41.665H381.123L381.166 47.0537ZM387.312 47.0537H392.233V41.665H387.312V47.0537ZM392.885 47.0537H397.808V41.665H392.885V47.0537ZM398.458 47.0537H403.38V41.665H398.458V47.0537ZM404.03 47.0537H408.954V41.665H404.03V47.0537ZM409.604 47.0537H414.527V41.665H409.604V47.0537ZM415.179 47.0537H420.102V41.665H415.179V47.0537ZM420.752 47.0537H425.675V41.665H420.752V47.0537ZM426.325 47.0537H431.248V41.665H426.325V47.0537ZM431.898 47.0537H436.822V41.665H431.898V47.0537ZM437.473 47.0537H442.396V41.665H437.473V47.0537ZM443.046 47.0537H447.968V41.665H443.046V47.0537ZM448.618 47.0537H453.542V41.665H448.618V47.0537ZM454.192 47.0537H459.115V41.665H454.192V47.0537ZM459.766 47.0537H464.688V41.665H459.766V47.0537ZM465.339 47.0537H470.835L470.877 41.665H465.339V47.0537ZM471.485 47.0537H477.112L477.205 41.665H471.527L471.485 47.0537ZM477.764 47.0537H484.028L484.224 41.665H477.856L477.764 47.0537ZM484.679 47.0537H491.179L491.49 41.665H484.875L484.679 47.0537ZM491.83 47.0537H497.565L497.939 41.665H492.142L491.83 47.0537ZM498.218 47.0537H503.755L504.171 41.665H498.592L498.218 47.0537ZM504.406 47.0537H509.748L510.194 41.665H504.822L504.406 47.0537ZM510.4 47.0537H515.568L516.036 41.665H510.848L510.4 47.0537ZM516.221 47.0537H521.302L521.779 41.665H516.688L516.221 47.0537ZM521.955 47.0537H526.479L526.948 41.665H522.433L521.955 47.0537ZM528.546 45.8174V47.0537H533.748V41.665H528.907L528.546 45.8174ZM534.398 47.0537H539.602V41.665H534.398V47.0537ZM540.252 47.0537H545.455V41.665H540.252V47.0537ZM546.105 47.0537H550.797V41.665H546.105V47.0537ZM301.204 41.0029H306.268V35.6162H301.204V41.0029ZM306.918 41.0029H312.121V35.6162H306.918V41.0029ZM312.771 41.0029H317.975V35.6162H312.771V41.0029ZM318.625 41.0029H323.035L322.566 35.6162H318.625V41.0029ZM324.994 41.0029H329.536L329.062 35.6162H324.525L324.994 41.0029ZM330.189 41.0029H335.277L334.813 35.6162H329.715L330.189 41.0029ZM335.93 41.0029H341.109L340.663 35.6162H335.466L335.93 41.0029ZM341.763 41.0029H347.113L346.696 35.6162H341.315L341.763 41.0029ZM347.765 41.0029H353.38L353.011 35.6162H347.348L347.765 41.0029ZM354.031 41.0029H359.823L359.513 35.6162H353.662L354.031 41.0029ZM360.476 41.0029H367.103L366.909 35.6162H360.165L360.476 41.0029ZM367.753 41.0029H374.095L373.998 35.6162H367.56L367.753 41.0029ZM374.745 41.0029H380.467L380.424 35.6162H374.648L374.745 41.0029ZM381.117 41.0029H386.661V35.6162H381.074L381.117 41.0029ZM387.312 41.0029H392.233V35.6162H387.312V41.0029ZM392.885 41.0029H397.808V35.6162H392.885V41.0029ZM398.458 41.0029H403.38V35.6162H398.458V41.0029ZM404.03 41.0029H408.954V35.6162H404.03V41.0029ZM409.604 41.0029H414.527V35.6162H409.604V41.0029ZM415.179 41.0029H420.102V35.6162H415.179V41.0029ZM420.752 41.0029H425.675V35.6162H420.752V41.0029ZM426.325 41.0029H431.248V35.6162H426.325V41.0029ZM431.898 41.0029H436.822V35.6162H431.898V41.0029ZM437.473 41.0029H442.396V35.6162H437.473V41.0029ZM443.046 41.0029H447.968V35.6162H443.046V41.0029ZM448.618 41.0029H453.542V35.6162H448.618V41.0029ZM454.192 41.0029H459.115V35.6162H454.192V41.0029ZM459.766 41.0029H464.688V35.6162H459.766V41.0029ZM465.339 41.0029H470.882L470.923 35.6162H465.339V41.0029ZM471.532 41.0029H477.217L477.31 35.6162H471.573L471.532 41.0029ZM477.867 41.0029H484.248L484.444 35.6162H477.96L477.867 41.0029ZM484.899 41.0029H491.528L491.839 35.6162H485.096L484.899 41.0029ZM492.18 41.0029H497.985L498.358 35.6162H492.49L492.18 41.0029ZM498.638 41.0029H504.222L504.638 35.6162H499.011L498.638 41.0029ZM504.873 41.0029H510.249L510.696 35.6162H505.289L504.873 41.0029ZM510.902 41.0029H516.094L516.561 35.6162H511.349L510.902 41.0029ZM516.746 41.0029H521.838L522.315 35.6162H517.213L516.746 41.0029ZM522.492 41.0029H527.006L527.475 35.6162H522.97L522.492 41.0029ZM528.965 41.0029H533.748V35.6162H529.434L528.965 41.0029ZM534.398 41.0029H539.602V35.6162H534.398V41.0029ZM540.252 41.0029H545.455V35.6162H540.252V41.0029ZM546.105 41.0029H550.797V35.6162H546.105V41.0029ZM301.204 34.9541H306.268V29.5654H301.204V34.9541ZM306.918 34.9541H312.121V29.5654H306.918V34.9541ZM312.771 34.9541H317.975V29.5654H312.771V34.9541ZM318.625 34.9541H322.509L322.04 29.5654H318.625V34.9541ZM324.468 34.9541H329.003L328.527 29.5654H323.999L324.468 34.9541ZM329.656 34.9541H334.757L334.293 29.5654H329.182L329.656 34.9541ZM335.409 34.9541H340.608L340.161 29.5654H334.945L335.409 34.9541ZM341.261 34.9541H346.645L346.228 29.5654H340.814L341.261 34.9541ZM347.296 34.9541H352.966L352.597 29.5654H346.879L347.296 34.9541ZM353.617 34.9541H359.475L359.164 29.5654H353.248L353.617 34.9541ZM360.127 34.9541H366.885L366.691 29.5654H359.816L360.127 34.9541ZM367.535 34.9541H373.986L373.89 29.5654H367.342L367.535 34.9541ZM374.637 34.9541H380.419L380.376 29.5654H374.54L374.637 34.9541ZM381.069 34.9541H386.661V29.5654H381.026L381.069 34.9541ZM387.312 34.9541H392.233V29.5654H387.312V34.9541ZM392.885 34.9541H397.808V29.5654H392.885V34.9541ZM398.458 34.9541H403.38V29.5654H398.458V34.9541ZM404.03 34.9541H408.954V29.5654H404.03V34.9541ZM409.604 34.9541H414.527V29.5654H409.604V34.9541ZM415.179 34.9541H420.102V29.5654H415.179V34.9541ZM420.752 34.9541H425.675V29.5654H420.752V34.9541ZM426.325 34.9541H431.248V29.5654H426.325V34.9541ZM431.898 34.9541H436.822V29.5654H431.898V34.9541ZM437.473 34.9541H442.396V29.5654H437.473V34.9541ZM443.046 34.9541H447.968V29.5654H443.046V34.9541ZM448.618 34.9541H453.542V29.5654H448.618V34.9541ZM454.192 34.9541H459.115V29.5654H454.192V34.9541ZM459.766 34.9541H464.688V29.5654H459.766V34.9541ZM465.339 34.9541H470.928L470.97 29.5654H465.339V34.9541ZM471.578 34.9541H477.321L477.414 29.5654H471.62L471.578 34.9541ZM477.972 34.9541H484.469L484.665 29.5654H478.064L477.972 34.9541ZM485.12 34.9541H491.877L492.188 29.5654H485.316L485.12 34.9541ZM492.529 34.9541H498.404L498.777 29.5654H492.84L492.529 34.9541ZM499.057 34.9541H504.688L505.104 29.5654H499.431L499.057 34.9541ZM505.34 34.9541H510.751L511.198 29.5654H505.756L505.34 34.9541ZM511.404 34.9541H516.618L517.086 29.5654H511.851L511.404 34.9541ZM517.271 34.9541H522.374L522.853 29.5654H517.738L517.271 34.9541ZM523.028 34.9541H527.532L528.001 29.5654H523.506L523.028 34.9541ZM529.491 34.9541H533.748V29.5654H529.96L529.491 34.9541ZM534.398 34.9541H539.602V29.5654H534.398V34.9541ZM540.252 34.9541H545.455V29.5654H540.252V34.9541ZM546.105 34.9541H550.797V29.5654H546.105V34.9541ZM301.204 28.9043H306.268V23.5166H301.204V28.9043ZM306.918 28.9043H312.121V23.5166H306.918V28.9043ZM312.771 28.9043H317.975V23.5166H312.771V28.9043ZM318.625 28.9043H321.982L321.737 26.0898C321.661 25.2166 321.515 24.3562 321.305 23.5166H318.625V28.9043ZM323.311 23.5166C323.485 24.3027 323.611 25.1031 323.682 25.9141L323.941 28.9043H328.47L327.994 23.5166H323.311ZM329.123 28.9043H334.236L333.772 23.5166H328.648L329.123 28.9043ZM334.889 28.9043H340.106L339.66 23.5166H334.425L334.889 28.9043ZM340.76 28.9043H346.177L345.76 23.5166H340.313L340.76 28.9043ZM346.828 28.9043H352.551L352.182 23.5166H346.411L346.828 28.9043ZM353.202 28.9043H359.126L358.816 23.5166H352.834L353.202 28.9043ZM359.778 28.9043H366.668L366.475 23.5166H359.468L359.778 28.9043ZM367.318 28.9043H373.878L373.781 23.5166H367.125L367.318 28.9043ZM374.528 28.9043H380.371L380.328 23.5166H374.432L374.528 28.9043ZM381.021 28.9043H386.661V23.5166H380.979L381.021 28.9043ZM387.312 28.9043H392.233V23.5166H387.312V28.9043ZM392.885 28.9043H397.808V23.5166H392.885V28.9043ZM398.458 28.9043H403.38V23.5166H398.458V28.9043ZM404.03 28.9043H408.954V23.5166H404.03V28.9043ZM409.604 28.9043H414.527V23.5166H409.604V28.9043ZM415.179 28.9043H420.102V23.5166H415.179V28.9043ZM420.752 28.9043H425.675V23.5166H420.752V28.9043ZM426.325 28.9043H431.248V23.5166H426.325V28.9043ZM431.898 28.9043H436.822V23.5166H431.898V28.9043ZM437.473 28.9043H442.396V23.5166H437.473V28.9043ZM443.046 28.9043H447.968V23.5166H443.046V28.9043ZM448.618 28.9043H453.542V23.5166H448.618V28.9043ZM454.192 28.9043H459.115V23.5166H454.192V28.9043ZM459.766 28.9043H464.688V23.5166H459.766V28.9043ZM465.339 28.9043H470.975L471.016 23.5166H465.339V28.9043ZM471.625 28.9043H477.425L477.518 23.5166H471.666L471.625 28.9043ZM478.076 28.9043H484.688L484.885 23.5166H478.169L478.076 28.9043ZM485.34 28.9043H492.227L492.538 23.5166H485.536L485.34 28.9043ZM492.878 28.9043H498.823L499.197 23.5166H493.189L492.878 28.9043ZM499.477 28.9043H505.155L505.571 23.5166H499.85L499.477 28.9043ZM505.807 28.9043H511.253L511.699 23.5166H506.223L505.807 28.9043ZM511.905 28.9043H517.144L517.611 23.5166H512.353L511.905 28.9043ZM517.796 28.9043H522.911L523.389 23.5166H518.264L517.796 28.9043ZM523.564 28.9043H528.059L528.319 25.9131C528.39 25.1026 528.515 24.3022 528.689 23.5166H524.043L523.564 28.9043ZM530.695 23.5166C530.486 24.3556 530.339 25.2153 530.263 26.0879L530.018 28.9043H533.748V23.5166H530.695ZM534.398 28.9043H539.602V23.5166H534.398V28.9043ZM540.252 28.9043H545.455V23.5166H540.252V28.9043ZM546.105 28.9043H550.797V23.5166H546.105V28.9043ZM301.204 22.8555H306.268V17.4678H301.204V22.8555ZM306.918 22.8555H312.121V17.4678H306.918V22.8555ZM312.771 22.8555H317.975V17.4678H312.771V22.8555ZM318.625 22.8555H321.125C320.586 21.0241 319.736 19.3026 318.625 17.7725V22.8555ZM320.79 17.4678C321.851 19.1175 322.652 20.9372 323.152 22.8555H327.879C327.369 20.7464 326.699 18.9972 325.836 17.4678H320.79ZM326.594 17.4678C327.412 19.0025 328.054 20.7565 328.549 22.8555H333.656C333.161 20.7471 332.615 18.9974 331.94 17.4678H326.594ZM332.663 17.4678C333.309 19.0028 333.839 20.7571 334.325 22.8555H339.543C339.05 20.7434 338.535 18.9941 337.907 17.4678H332.663ZM338.599 17.4678C339.215 19.0064 339.728 20.7618 340.212 22.8555H345.646C345.157 20.7429 344.669 18.9933 344.084 17.4678H338.599ZM344.771 17.4678C345.347 19.0055 345.832 20.7609 346.314 22.8555H352.084C351.648 20.7734 351.251 19.0238 350.752 17.4678H344.771ZM351.429 17.4678C351.922 19.0378 352.318 20.7914 352.749 22.8555H358.76C358.564 20.927 358.112 19.1296 357.485 17.4678H351.429ZM358.181 17.4678C358.789 19.1336 359.225 20.9311 359.414 22.8555H366.452C366.366 20.9964 365.888 19.1873 365.155 17.4678H358.181ZM365.86 17.4678C366.559 19.1751 367.021 20.9863 367.104 22.8555H373.776C373.731 20.9856 373.304 19.1787 372.628 17.4678H365.86ZM373.326 17.4678C373.97 19.1674 374.382 20.9764 374.426 22.8555H380.313C380.279 20.8804 379.94 19.1139 379.34 17.4678H373.326ZM380.037 17.4678C380.608 19.1126 380.932 20.8803 380.965 22.8555H386.634C386.479 20.9207 386.091 19.153 385.485 17.4678H380.037ZM386.18 17.4678C386.762 19.1504 387.136 20.9194 387.287 22.8555H392.225C392.166 21.1562 391.86 19.3637 391.3 17.4678H386.18ZM391.977 17.4678C392.521 19.3582 392.818 21.1508 392.875 22.8555H397.798C397.739 21.1342 397.491 19.3416 397.051 17.4678H391.977ZM397.72 17.4678C398.15 19.3378 398.39 21.1307 398.448 22.8555H403.369C403.306 21.1629 403.103 19.3707 402.757 17.4678H397.72ZM403.418 17.4678C403.759 19.3676 403.958 21.16 404.02 22.8555H408.955C408.966 21.1439 408.868 19.3515 408.655 17.4678H403.418ZM409.311 17.4678C409.52 19.3492 409.616 21.1417 409.605 22.8555H414.52C414.486 21.1529 414.387 19.3604 414.217 17.4678H409.311ZM414.869 17.4678C415.037 19.359 415.136 21.1515 415.17 22.8555H420.099C420.087 21.1037 420.041 19.3062 419.96 17.4678H414.869ZM420.609 17.4678C420.69 19.306 420.737 21.1035 420.749 22.8555H425.675V17.4678H420.609ZM426.325 22.8555H431.252C431.264 21.1036 431.309 19.3062 431.39 17.4678H426.325V22.8555ZM432.041 17.4678C431.96 19.3065 431.914 21.1039 431.902 22.8555H436.829C436.863 21.1512 436.962 19.3587 437.13 17.4678H432.041ZM437.783 17.4678C437.614 19.3601 437.513 21.1525 437.479 22.8555H442.395C442.384 21.1417 442.481 19.3492 442.69 17.4678H437.783ZM443.345 17.4678C443.132 19.3515 443.034 21.1438 443.045 22.8555H447.979C448.041 21.16 448.24 19.3676 448.581 17.4678H443.345ZM449.242 17.4678C448.896 19.3708 448.693 21.1631 448.63 22.8555H453.552C453.61 21.1308 453.852 19.3382 454.282 17.4678H449.242ZM454.95 17.4678C454.51 19.3418 454.262 21.1343 454.203 22.8555H459.126C459.182 21.1507 459.48 19.3582 460.024 17.4678H454.95ZM460.701 17.4678C460.141 19.3637 459.835 21.1562 459.776 22.8555H464.713C464.864 20.9193 465.238 19.1505 465.82 17.4678H460.701ZM466.515 17.4678C465.909 19.153 465.521 20.9207 465.366 22.8555H471.035C471.068 20.8803 471.392 19.1126 471.963 17.4678H466.515ZM472.66 17.4678C472.06 19.1139 471.721 20.8804 471.687 22.8555H477.575C477.619 20.9763 478.031 19.1674 478.675 17.4678H472.66ZM479.372 17.4678C478.696 19.1786 478.27 20.9856 478.225 22.8555H484.896C484.979 20.9863 485.441 19.1751 486.14 17.4678H479.372ZM486.845 17.4678C486.112 19.1873 485.633 20.9964 485.548 22.8555H492.586C492.775 20.9311 493.21 19.1336 493.818 17.4678H486.845ZM494.513 17.4678C493.886 19.1295 493.434 20.9271 493.239 22.8555H499.251C499.682 20.7915 500.077 19.0378 500.57 17.4678H494.513ZM501.248 17.4678C500.749 19.0238 500.352 20.7734 499.916 22.8555H505.686C506.168 20.7609 506.653 19.0055 507.229 17.4678H501.248ZM507.916 17.4678C507.331 18.9933 506.843 20.743 506.354 22.8555H511.789C512.273 20.762 512.784 19.0063 513.4 17.4678H507.916ZM514.094 17.4678C513.466 18.9941 512.951 20.7434 512.458 22.8555H517.675C518.161 20.757 518.691 19.0028 519.337 17.4678H514.094ZM520.06 17.4678C519.385 18.9974 518.839 20.747 518.344 22.8555H523.451C523.946 20.7565 524.588 19.0026 525.406 17.4678H520.06ZM526.164 17.4678C525.301 18.9972 524.631 20.7463 524.121 22.8555H528.373C528.876 20.7566 529.625 19.0019 530.611 17.4678H526.164ZM533.602 17.4678C532.379 19.0729 531.449 20.9013 530.874 22.8555H533.748V17.4678H533.602ZM534.398 22.8555H539.602V17.4678H534.398V22.8555ZM540.252 22.8555H545.455V17.4678H540.252V22.8555ZM546.105 22.8555H550.797V17.4678H546.105V22.8555ZM301.204 16.8057H306.268V11.418H301.204V16.8057ZM306.918 16.8057H312.121V12.2979L310.72 11.418H306.918V16.8057ZM312.771 16.8057H317.864C316.799 15.5478 315.544 14.447 314.13 13.5596L312.771 12.7061V16.8057ZM315.155 11.8721C317.209 13.1612 318.963 14.8499 320.343 16.8057H325.443C324.15 14.7437 322.469 13.0768 320.312 11.418H314.432L315.155 11.8721ZM321.384 11.418C323.407 13.0494 324.993 14.728 326.221 16.8057H331.634C330.629 14.741 329.346 13.0725 327.563 11.418H321.384ZM328.53 11.418C330.195 13.049 331.408 14.7273 332.37 16.8057H337.621C336.683 14.7339 335.493 13.0686 333.792 11.418H328.53ZM334.694 11.418C336.27 13.0437 337.409 14.7272 338.321 16.8057H343.818C342.944 14.7293 341.847 13.0639 340.234 11.418H334.694ZM341.11 11.418C342.608 13.0448 343.663 14.7266 344.513 16.8057H350.529C349.824 14.8114 348.902 13.1244 347.433 11.418H341.11ZM348.263 11.418C349.645 13.119 350.527 14.8211 351.211 16.8057H357.225C356.395 14.7975 355.318 12.9979 354.15 11.418H348.263ZM354.955 11.418C356.09 13.0089 357.129 14.8081 357.928 16.8057H364.858C363.947 14.8658 362.729 13.0499 361.415 11.418H354.955ZM362.262 11.418C363.5 13.0132 364.685 14.8332 365.574 16.8057H372.354C371.5 14.857 370.338 13.0432 369.072 11.418H362.262ZM369.909 11.418C371.101 13.0083 372.23 14.826 373.062 16.8057H379.083C378.297 14.9071 377.165 13.1584 375.768 11.418H369.909ZM376.605 11.418C377.953 13.1468 379.039 14.8976 379.792 16.8057H385.235C384.501 14.9596 383.504 13.2017 382.266 11.418H376.605ZM383.062 11.418C384.263 13.1921 385.229 14.9513 385.939 16.8057H391.095C390.543 15.0951 389.79 13.3015 388.833 11.418H383.062ZM389.562 11.418C390.5 13.298 391.239 15.0912 391.778 16.8057H396.888C396.445 15.0807 395.843 13.2873 395.078 11.418H389.562ZM395.781 11.418C396.533 13.2846 397.126 15.0778 397.561 16.8057H402.631C402.295 15.0997 401.847 13.3064 401.285 11.418H395.781ZM401.966 11.418C402.521 13.3042 402.964 15.0977 403.295 16.8057H408.574C408.359 15.0875 408.055 13.2938 407.654 11.418H401.966ZM408.318 11.418C408.715 13.2922 409.017 15.0857 409.23 16.8057H414.154C413.988 15.0933 413.768 13.2998 413.491 11.418H408.318ZM414.148 11.418C414.424 13.2988 414.643 15.0923 414.808 16.8057H419.929C419.843 15.0451 419.727 13.2479 419.579 11.418H414.148ZM420.231 11.418C420.378 13.2477 420.494 15.0449 420.579 16.8057H425.675V11.418H420.231ZM426.325 16.8057H431.421C431.506 15.0451 431.621 13.2478 431.768 11.418H426.325V16.8057ZM432.421 11.418C432.274 13.248 432.157 15.0453 432.072 16.8057H437.192C437.357 15.0921 437.575 13.2985 437.85 11.418H432.421ZM438.508 11.418C438.231 13.2995 438.012 15.093 437.846 16.8057H442.771C442.984 15.0858 443.285 13.2922 443.682 11.418H438.508ZM444.345 11.418C443.944 13.2937 443.641 15.0875 443.426 16.8057H448.705C449.036 15.0978 449.478 13.3041 450.033 11.418H444.345ZM450.714 11.418C450.152 13.3064 449.704 15.0997 449.368 16.8057H454.441C454.876 15.078 455.468 13.2847 456.22 11.418H450.714ZM456.922 11.418C456.157 13.2873 455.556 15.0809 455.113 16.8057H460.223C460.762 15.0912 461.501 13.298 462.439 11.418H456.922ZM463.169 11.418C462.211 13.3017 461.458 15.095 460.906 16.8057H466.061C466.771 14.9513 467.737 13.1921 468.938 11.418H463.169ZM469.734 11.418C468.496 13.2017 467.499 14.9596 466.765 16.8057H472.207C472.96 14.8974 474.047 13.1469 475.395 11.418H469.734ZM476.232 11.418C474.835 13.1584 473.703 14.907 472.917 16.8057H478.938C479.77 14.8258 480.9 13.0084 482.092 11.418H476.232ZM482.929 11.418C481.663 13.0433 480.501 14.8569 479.647 16.8057H486.425C487.314 14.8331 488.5 13.0134 489.738 11.418H482.929ZM490.584 11.418C489.27 13.0499 488.052 14.8659 487.142 16.8057H494.072C494.871 14.8082 495.909 13.0089 497.044 11.418H490.584ZM497.849 11.418C496.681 12.9979 495.604 14.7975 494.774 16.8057H500.789C501.473 14.8214 502.354 13.1189 503.735 11.418H497.849ZM504.567 11.418C503.098 13.1245 502.176 14.8114 501.471 16.8057H507.488C508.338 14.7267 509.392 13.0446 510.89 11.418H504.567ZM511.768 11.418C510.155 13.0642 509.056 14.7289 508.182 16.8057H513.679C514.59 14.7272 515.729 13.0436 517.305 11.418H511.768ZM518.208 11.418C516.507 13.0686 515.318 14.7339 514.38 16.8057H519.63C520.592 14.7272 521.805 13.0491 523.47 11.418H518.208ZM524.436 11.418C522.653 13.0724 521.371 14.7411 520.366 16.8057H525.779C527.008 14.7279 528.593 13.0494 530.616 11.418H524.436ZM531.687 11.418C529.53 13.0767 527.849 14.7439 526.557 16.8057H531.064C532.554 14.7268 534.505 13.0486 536.879 11.418H531.687ZM537.87 13.5576C536.571 14.3733 535.406 15.369 534.398 16.501V16.8057H539.602V12.4697L537.87 13.5576ZM540.252 12.0615V16.8057H545.455V11.418H541.277L540.252 12.0615ZM546.105 16.8057H550.797V11.418H546.105V16.8057ZM301.204 10.7559H306.268V8.62305L301.204 5.44434V10.7559ZM306.918 10.7559H309.665L306.918 9.03125V10.7559ZM313.377 10.7559H319.429C317.593 9.41909 315.444 8.05388 312.936 6.46191C312.341 6.08458 311.726 5.69358 311.091 5.28809H304.668L313.377 10.7559ZM313.28 5.90137C316.134 7.71249 318.53 9.23542 320.535 10.7559H326.821C324.902 9.09851 322.454 7.40333 319.259 5.28809H312.317C312.644 5.49577 312.965 5.70126 313.28 5.90137ZM320.45 5.28809C323.579 7.37413 325.962 9.06536 327.826 10.7559H333.079C331.238 9.10282 328.853 7.41115 325.668 5.28809H320.45ZM326.851 5.28809C329.924 7.35977 332.232 9.05127 334.024 10.7559H339.554C337.791 9.10088 335.474 7.41205 332.312 5.28809H326.851ZM333.489 5.28809C336.532 7.36255 338.766 9.05443 340.473 10.7559H346.837C345.268 9.08879 343.142 7.3645 340.155 5.28809H333.489ZM341.29 5.28809C344.154 7.33038 346.193 9.06016 347.7 10.7559H353.646C351.781 8.37643 349.75 6.54098 348.166 5.28809H341.29ZM349.207 5.28809C350.804 6.61557 352.722 8.44872 354.468 10.7559H360.868C358.936 8.47234 356.865 6.58976 355.291 5.28809H349.207ZM356.324 5.28809C357.43 6.23033 358.711 7.40556 359.987 8.7627C360.558 9.36941 361.149 10.0372 361.735 10.7559H368.54C366.658 8.46287 364.62 6.58463 363.061 5.28809H356.324ZM364.09 5.28809C365.16 6.20665 366.39 7.34783 367.613 8.66895C368.198 9.30052 368.803 9.99926 369.401 10.7559H375.222C373.74 8.99315 371.998 7.21952 370.079 5.28809H364.09ZM371.003 5.28809C372.903 7.20564 374.622 8.97901 376.076 10.7559H381.796C380.529 9.0067 379.035 7.21993 377.337 5.28809H371.003ZM378.209 5.28809C379.886 7.20998 381.358 8.99707 382.603 10.7559H388.489C387.569 9.01138 386.477 7.19045 385.21 5.28809H378.209ZM385.994 5.28809C387.243 7.18768 388.319 9.00877 389.225 10.7559H394.803C394.056 9.00159 393.169 7.18104 392.139 5.28809H385.994ZM392.881 5.28809C393.898 7.17884 394.773 8.99956 395.509 10.7559H401.083C400.547 9.01476 399.916 7.19393 399.188 5.28809H392.881ZM399.886 5.28809C400.608 7.19235 401.232 9.01332 401.764 10.7559H407.507C407.117 9.00632 406.649 7.18558 406.1 5.28809H399.886ZM406.777 5.28809C407.323 7.18436 407.787 9.00508 408.174 10.7559H413.392C413.126 9.0103 412.812 7.18965 412.451 5.28809H406.777ZM413.114 5.28809C413.474 7.18884 413.784 9.00963 414.049 10.7559H419.524C419.373 8.96271 419.193 7.13886 418.983 5.28809H413.114ZM419.638 5.28809C419.847 7.13863 420.026 8.96251 420.177 10.7559H425.675V5.28809H419.638ZM426.325 10.7559H431.822C431.973 8.96262 432.153 7.13881 432.362 5.28809H426.325V10.7559ZM433.017 5.28809C432.807 7.13893 432.627 8.96279 432.476 10.7559H437.949C438.214 9.00941 438.526 7.18874 438.885 5.28809H433.017ZM439.548 5.28809C439.187 7.18946 438.874 9.01014 438.608 10.7559H443.826C444.213 9.005 444.678 7.18445 445.224 5.28809H439.548ZM445.9 5.28809C445.351 7.18569 444.882 9.00632 444.492 10.7559H450.235C450.767 9.01319 451.392 7.1925 452.114 5.28809H445.9ZM452.811 5.28809C452.083 7.19391 451.452 9.01474 450.916 10.7559H456.492C457.228 8.99959 458.103 7.17893 459.12 5.28809H452.811ZM459.862 5.28809C458.833 7.1812 457.945 9.00159 457.198 10.7559H462.776C463.682 9.00878 464.758 7.18766 466.007 5.28809H459.862ZM466.791 5.28809C465.524 7.19036 464.433 9.01154 463.513 10.7559H469.397C470.642 8.99707 472.114 7.20998 473.791 5.28809H466.791ZM474.663 5.28809C472.965 7.21994 471.471 9.0067 470.204 10.7559H475.924C477.378 8.97901 479.097 7.20565 480.997 5.28809H474.663ZM481.92 5.28809C480.002 7.21942 478.26 8.99323 476.778 10.7559H482.6C483.198 9.99934 483.803 9.30046 484.388 8.66895C485.611 7.34766 486.841 6.20661 487.911 5.28809H481.92ZM488.939 5.28809C487.381 6.58454 485.342 8.46304 483.461 10.7559H490.264C490.851 10.0368 491.442 9.36887 492.013 8.76172C493.289 7.40473 494.57 6.23018 495.676 5.28809H488.939ZM496.707 5.28809C495.133 6.58993 493.062 8.47252 491.131 10.7559H497.531C499.278 8.44842 501.196 6.6156 502.793 5.28809H496.707ZM503.832 5.28809C502.248 6.54087 500.219 8.37696 498.354 10.7559H504.299C505.806 9.06024 507.845 7.33024 510.708 5.28809H503.832ZM511.844 5.28809C508.857 7.36455 506.731 9.08876 505.162 10.7559H511.528C513.235 9.05444 515.468 7.36246 518.511 5.28809H511.844ZM519.687 5.28809C516.526 7.41181 514.209 9.10101 512.447 10.7559H517.976C519.767 9.05123 522.076 7.35974 525.149 5.28809H519.687ZM526.332 5.28809C523.147 7.4112 520.762 9.10279 518.921 10.7559H524.174C526.038 9.06543 528.42 7.37412 531.549 5.28809H526.332ZM532.74 5.28809C529.545 7.40332 527.098 9.09854 525.179 10.7559H531.463C533.468 9.23519 535.866 7.7127 538.72 5.90137C539.035 5.70105 539.356 5.49593 539.683 5.28809H532.74ZM539.063 6.46191C536.555 8.05378 534.407 9.4192 532.571 10.7559H537.867C539.474 9.7063 541.254 8.65537 543.197 7.50977C544.367 6.8201 545.616 6.08435 546.926 5.28809H540.906C540.271 5.69325 539.658 6.08441 539.063 6.46191ZM542.332 10.7559H545.455V8.79492L542.332 10.7559ZM546.105 8.38672V10.7559H550.797V5.44238L546.105 8.38672Z" fill="#00A5EB"/>
</svg>
