<svg width="208" height="208" viewBox="0 0 208 208" fill="none" xmlns="http://www.w3.org/2000/svg">
<g filter="url(#filter0_di_2132_3723)">
<mask id="path-1-inside-1_2132_3723" fill="white">
<path d="M4 100C4 44.7715 48.7715 0 104 0V0C159.228 0 204 44.7715 204 100V100C204 155.228 159.228 200 104 200V200C48.7715 200 4 155.228 4 100V100Z"/>
</mask>
<path d="M4 100C4 44.7715 48.7715 0 104 0V0C159.228 0 204 44.7715 204 100V100C204 155.228 159.228 200 104 200V200C48.7715 200 4 155.228 4 100V100Z" fill="#E7000B"/>
<path d="M4 100M204 100M204 100M4 100M104 0M204 100M104 200M4 100M104 200V196C50.9807 196 8 153.019 8 100H4H0C0 157.438 46.5624 204 104 204V200ZM204 100H200C200 153.019 157.019 196 104 196V200V204C161.438 204 208 157.438 208 100H204ZM104 0V4C157.019 4 200 46.9807 200 100H204H208C208 42.5624 161.438 -4 104 -4V0ZM104 0V-4C46.5624 -4 0 42.5624 0 100H4H8C8 46.9807 50.9807 4 104 4V0Z" fill="white" mask="url(#path-1-inside-1_2132_3723)"/>
<path d="M130.738 64.3448C133.199 61.8839 137.19 61.8837 139.651 64.3448C142.112 66.806 142.112 70.7966 139.651 73.2579L112.911 99.9972L139.65 126.736C142.111 129.198 142.111 133.188 139.65 135.65C137.189 138.111 133.198 138.111 130.737 135.65L103.998 108.91L77.2594 135.65C74.7983 138.112 70.8077 138.111 68.3464 135.65C65.8851 133.189 65.8851 129.198 68.3464 126.736L95.0846 99.9972L68.3454 73.2579C65.8843 70.7966 65.8842 66.806 68.3454 64.3448C70.8066 61.8837 74.7972 61.8838 77.2585 64.3448L103.998 91.0841L130.738 64.3448Z" fill="white"/>
</g>
<defs>
<filter id="filter0_di_2132_3723" x="0" y="-4" width="208" height="212" filterUnits="userSpaceOnUse" color-interpolation-filters="sRGB">
<feFlood flood-opacity="0" result="BackgroundImageFix"/>
<feColorMatrix in="SourceAlpha" type="matrix" values="0 0 0 0 0 0 0 0 0 0 0 0 0 0 0 0 0 0 127 0" result="hardAlpha"/>
<feOffset dy="4"/>
<feGaussianBlur stdDeviation="2"/>
<feComposite in2="hardAlpha" operator="out"/>
<feColorMatrix type="matrix" values="0 0 0 0 0 0 0 0 0 0 0 0 0 0 0 0 0 0 0.16 0"/>
<feBlend mode="normal" in2="BackgroundImageFix" result="effect1_dropShadow_2132_3723"/>
<feBlend mode="normal" in="SourceGraphic" in2="effect1_dropShadow_2132_3723" result="shape"/>
<feColorMatrix in="SourceAlpha" type="matrix" values="0 0 0 0 0 0 0 0 0 0 0 0 0 0 0 0 0 0 127 0" result="hardAlpha"/>
<feOffset dy="-4"/>
<feGaussianBlur stdDeviation="2"/>
<feComposite in2="hardAlpha" operator="arithmetic" k2="-1" k3="1"/>
<feColorMatrix type="matrix" values="0 0 0 0 0 0 0 0 0 0 0 0 0 0 0 0 0 0 0.16 0"/>
<feBlend mode="normal" in2="shape" result="effect2_innerShadow_2132_3723"/>
</filter>
</defs>
</svg>
