<svg width="100" height="393" viewBox="0 0 100 393" fill="none" xmlns="http://www.w3.org/2000/svg">
<path d="M52 146.54C78.6871 147.59 100 169.556 100 196.5C100 223.444 78.687 245.409 52 246.459V393H48V246.459C21.313 245.409 0 223.444 0 196.5C0 169.556 21.3129 147.59 48 146.54V0H52V146.54ZM48 150.545C23.5228 151.592 4 171.765 4 196.5C4 221.235 23.5228 241.407 48 242.454V150.545ZM52 242.454C76.4772 241.407 96 221.235 96 196.5C96 171.765 76.4772 151.592 52 150.545V242.454Z" fill="#00A5EB"/>
</svg>
