<svg width="529" height="143" viewBox="0 0 529 143" fill="none" xmlns="http://www.w3.org/2000/svg">
<g filter="url(#filter0_di_2129_4575)">
<mask id="path-1-outside-1_2129_4575" maskUnits="userSpaceOnUse" x="0.61353" y="-0.0660704" width="526.846" height="138.095" fill="black">
<rect fill="white" x="0.61353" y="-0.0660704" width="526.846" height="138.095"/>
<path d="M506.891 73.0427C510.893 72.7628 514.079 73.6524 516.448 75.7116C518.817 77.7708 520.144 80.8445 520.43 84.9319C520.692 88.6785 519.714 91.8273 517.497 94.3783C515.364 96.9234 512.424 98.3267 508.677 98.5887C504.675 98.8685 501.49 97.9788 499.121 95.9197C496.752 93.8605 495.425 90.7876 495.139 86.7004C494.877 82.9535 495.812 79.8071 497.945 77.262C500.162 74.711 503.144 73.3048 506.891 73.0427ZM53.0387 36.6209C60.1062 36.1267 66.6156 36.8267 72.5667 38.7208C78.6032 40.6092 83.9396 43.4878 88.5743 47.3567C93.209 51.2256 96.8753 55.9327 99.5734 61.4773C102.351 66.9308 103.974 73.0212 104.445 79.7484C104.921 86.5607 104.167 92.9029 102.182 98.7749C100.281 104.641 97.3057 109.813 93.2547 114.289C89.2035 118.765 84.3197 122.359 78.6047 125.069C72.9751 127.773 66.6691 129.369 59.6866 129.857C52.6188 130.351 46.0664 129.654 40.03 127.766C33.9935 125.878 28.658 122.999 24.0233 119.13C19.3886 115.261 15.679 110.557 12.8956 105.018C10.1976 99.4739 8.61338 93.3379 8.14297 86.6108C7.66663 79.7984 8.3814 73.5018 10.2875 67.7208C12.2729 61.8487 15.2918 56.6741 19.343 52.1978C23.3941 47.7217 28.2771 44.1282 33.9919 41.4182C39.7068 38.7083 46.056 37.1092 53.0387 36.6209ZM151.582 29.7301C158.65 29.2358 165.16 29.9356 171.111 31.8299C177.148 33.7182 182.483 36.597 187.118 40.4658C191.753 44.3348 195.419 49.0419 198.117 54.5865C200.894 60.04 202.519 66.1303 202.989 72.8575C203.466 79.6699 202.71 86.012 200.725 91.8841C198.825 97.7503 195.849 102.922 191.798 107.398C187.747 111.874 182.864 115.468 177.149 118.178C171.519 120.882 165.213 122.478 158.23 122.966C151.162 123.46 144.61 122.763 138.574 120.875C132.537 118.987 127.202 116.108 122.567 112.239C117.932 108.37 114.223 103.666 111.44 98.1275C108.742 92.5829 107.157 86.4471 106.687 79.7199C106.21 72.9075 106.926 66.6109 108.832 60.8299C110.817 54.9578 113.835 49.7833 117.887 45.307C121.938 40.8307 126.821 37.2375 132.535 34.5274C138.25 31.8173 144.599 30.2183 151.582 29.7301ZM408.618 11.7564C415.345 11.286 421.009 11.532 425.612 12.4936C430.208 13.3702 434.12 14.851 437.347 16.9359C440.573 19.0206 443.4 21.5182 445.829 24.4289L430.815 41.0097C428.817 39.3526 426.757 38.0417 424.636 37.0777C422.509 36.0284 420.32 35.3261 418.071 34.9699C415.9 34.5227 413.75 34.3734 411.621 34.5223C409.663 34.6592 408.015 34.9462 406.676 35.382C405.331 35.7327 404.3 36.2753 403.581 37.0101C402.856 37.6597 402.533 38.5379 402.61 39.6448C402.687 40.7518 403.221 41.6562 404.211 42.3571C405.281 42.9668 406.557 43.477 408.04 43.8867C409.609 44.2904 411.129 44.6118 412.6 44.8512C414.151 44.9995 415.443 45.1225 416.477 45.2213C421.22 45.7454 425.604 46.6375 429.628 47.8964C433.647 49.0701 437.184 50.7053 440.24 52.8019C443.375 54.8075 445.829 57.46 447.6 60.7591C449.45 63.9669 450.535 67.8704 450.857 72.4686C451.315 79.0254 450.039 84.6341 447.027 89.2943C444.101 93.9485 439.951 97.6186 434.576 100.305C429.196 102.906 423.1 104.445 416.288 104.921C409.56 105.391 403.548 105.084 398.253 104C393.036 102.825 388.374 101.011 384.267 98.56C380.244 96.103 376.572 93.1507 373.25 89.7034L387.966 70.7048C392.605 75.8569 397.286 79.1664 402.01 80.6332C406.812 82.0087 411.257 82.5532 415.345 82.2675C416.963 82.1544 418.402 81.9257 419.662 81.5809C420.915 81.151 421.858 80.5718 422.492 79.8431C423.125 79.1142 423.401 78.1533 423.317 76.9611C423.24 75.8541 422.791 74.9438 421.971 74.231C421.236 73.5125 420.255 72.9397 419.028 72.5122C417.794 71.9995 416.441 71.6228 414.969 71.3834C413.577 71.0529 412.19 70.8075 410.81 70.6473C409.515 70.4812 408.348 70.3067 407.308 70.1227C402.115 69.2878 397.543 68.1529 393.592 66.7177C389.641 65.2826 386.305 63.4616 383.584 61.2561C380.862 59.0503 378.755 56.459 377.263 53.4827C375.857 50.5006 375.02 47.0936 374.752 43.2619C374.449 38.919 375.15 34.8907 376.859 31.1773C378.653 27.4578 381.121 24.2042 384.263 21.4173C387.491 18.6246 391.186 16.3983 395.348 14.7381C399.596 13.072 404.019 12.0779 408.618 11.7564ZM238.875 80.3609C239.047 82.8302 239.714 85.0086 240.872 86.8956C242.025 88.6974 243.535 90.0895 245.4 91.0714C247.351 92.0472 249.476 92.4545 251.774 92.2938C254.244 92.1211 256.377 91.4161 258.173 90.1783C259.969 88.9402 261.356 87.3459 262.332 85.3951C263.302 83.3592 263.7 81.1063 263.527 78.637L259.758 24.7335L286.965 22.831L290.815 77.884C291.291 84.6963 290.01 90.861 286.973 96.3787C283.936 101.897 279.502 106.4 273.67 109.888C267.918 113.286 261.167 115.255 253.418 115.797C245.669 116.339 238.667 115.331 232.413 112.773C226.238 110.125 221.262 106.279 217.487 101.238C213.712 96.1964 211.585 90.2697 211.109 83.4576L207.259 28.4045L235.105 26.4573L238.875 80.3609ZM339.678 19.1449C345.809 18.7162 351.351 19.6544 356.305 21.9607C361.258 24.267 365.258 27.6241 368.305 32.0319C371.351 36.4398 373.082 41.6245 373.499 47.5854C373.934 53.8016 372.959 59.4318 370.574 64.4761C368.188 69.5205 364.709 73.6149 360.136 76.7585C355.558 79.8169 350.204 81.5608 344.073 81.9895L331.427 82.8738L333.284 109.442L305.695 111.371L299.442 21.9585L339.678 19.1449ZM54.8251 62.1679C51.9298 62.3703 49.2826 63.0685 46.8845 64.263C44.5716 65.4516 42.5468 67.0906 40.8104 69.1802C39.1531 71.1786 37.9028 73.4909 37.0595 76.1169C36.3015 78.737 36.0299 81.5802 36.2443 84.6457C36.4586 87.7113 37.1232 90.4889 38.2386 92.9781C39.439 95.4612 41.0021 97.6194 42.9272 99.4529C44.9316 101.195 47.1619 102.494 49.6177 103.349C52.1586 104.198 54.8773 104.522 57.7726 104.32C60.6678 104.117 63.2718 103.421 65.5845 102.233C67.9825 101.038 70.0104 99.4416 71.6676 97.4432C73.404 95.3537 74.6515 92.9989 75.4095 90.3788C76.2527 87.7527 76.5668 84.9067 76.3524 81.8411C76.138 78.7756 75.431 76.0008 74.2305 73.5177C73.1151 71.0286 71.5551 68.9128 69.5507 67.1704C67.6255 65.3369 65.3923 63.9957 62.8514 63.1465C60.3957 62.2914 57.7202 61.9655 54.8251 62.1679ZM153.369 55.2771C150.473 55.4795 147.827 56.1777 145.429 57.3721C143.116 58.5607 141.091 60.1998 139.355 62.2893C137.698 64.2876 136.447 66.6 135.604 69.226C134.846 71.8461 134.573 74.6893 134.788 77.7549C135.002 80.8205 135.668 83.598 136.783 86.0872C137.984 88.5703 139.547 90.7285 141.472 92.562C143.476 94.3044 145.706 95.6032 148.162 96.4583C150.703 97.3074 153.421 97.6314 156.316 97.429C159.211 97.2266 161.815 96.5304 164.128 95.3419C166.526 94.1473 168.554 92.5508 170.211 90.5524C171.948 88.4628 173.195 86.1081 173.953 83.488C174.796 80.8619 175.111 78.0158 174.897 74.9502C174.683 71.8847 173.975 69.11 172.774 66.6268C171.659 64.1378 170.099 62.0219 168.094 60.2796C166.169 58.4462 163.936 57.1048 161.395 56.2557C158.939 55.4006 156.264 55.0746 153.369 55.2771ZM516.447 15.1266C516.799 20.1506 516.864 25.3658 516.643 30.7721C516.501 36.0875 516.192 41.4576 515.715 46.8819C515.239 52.3063 514.794 57.5579 514.379 62.6356L497.774 63.7968C496.656 58.8262 495.483 53.6878 494.256 48.3825C493.029 43.0773 491.933 37.8054 490.968 32.5675C490.082 27.2386 489.464 22.062 489.113 17.038L488.354 6.18071L515.688 4.26929L516.447 15.1266ZM329.273 59.4063L337.319 58.8436C338.937 58.7305 340.364 58.331 341.6 57.6456C342.829 56.8752 343.744 55.8703 344.341 54.6306C345.025 53.3849 345.303 51.867 345.178 50.0788C345.053 48.2907 344.569 46.8696 343.725 45.8162C342.966 44.757 341.93 44.0166 340.617 43.595C339.298 43.0883 337.83 42.8913 336.212 43.0044L328.165 43.5671L329.273 59.4063Z"/>
</mask>
<path d="M506.891 73.0427C510.893 72.7628 514.079 73.6524 516.448 75.7116C518.817 77.7708 520.144 80.8445 520.43 84.9319C520.692 88.6785 519.714 91.8273 517.497 94.3783C515.364 96.9234 512.424 98.3267 508.677 98.5887C504.675 98.8685 501.49 97.9788 499.121 95.9197C496.752 93.8605 495.425 90.7876 495.139 86.7004C494.877 82.9535 495.812 79.8071 497.945 77.262C500.162 74.711 503.144 73.3048 506.891 73.0427ZM53.0387 36.6209C60.1062 36.1267 66.6156 36.8267 72.5667 38.7208C78.6032 40.6092 83.9396 43.4878 88.5743 47.3567C93.209 51.2256 96.8753 55.9327 99.5734 61.4773C102.351 66.9308 103.974 73.0212 104.445 79.7484C104.921 86.5607 104.167 92.9029 102.182 98.7749C100.281 104.641 97.3057 109.813 93.2547 114.289C89.2035 118.765 84.3197 122.359 78.6047 125.069C72.9751 127.773 66.6691 129.369 59.6866 129.857C52.6188 130.351 46.0664 129.654 40.03 127.766C33.9935 125.878 28.658 122.999 24.0233 119.13C19.3886 115.261 15.679 110.557 12.8956 105.018C10.1976 99.4739 8.61338 93.3379 8.14297 86.6108C7.66663 79.7984 8.3814 73.5018 10.2875 67.7208C12.2729 61.8487 15.2918 56.6741 19.343 52.1978C23.3941 47.7217 28.2771 44.1282 33.9919 41.4182C39.7068 38.7083 46.056 37.1092 53.0387 36.6209ZM151.582 29.7301C158.65 29.2358 165.16 29.9356 171.111 31.8299C177.148 33.7182 182.483 36.597 187.118 40.4658C191.753 44.3348 195.419 49.0419 198.117 54.5865C200.894 60.04 202.519 66.1303 202.989 72.8575C203.466 79.6699 202.71 86.012 200.725 91.8841C198.825 97.7503 195.849 102.922 191.798 107.398C187.747 111.874 182.864 115.468 177.149 118.178C171.519 120.882 165.213 122.478 158.23 122.966C151.162 123.46 144.61 122.763 138.574 120.875C132.537 118.987 127.202 116.108 122.567 112.239C117.932 108.37 114.223 103.666 111.44 98.1275C108.742 92.5829 107.157 86.4471 106.687 79.7199C106.21 72.9075 106.926 66.6109 108.832 60.8299C110.817 54.9578 113.835 49.7833 117.887 45.307C121.938 40.8307 126.821 37.2375 132.535 34.5274C138.25 31.8173 144.599 30.2183 151.582 29.7301ZM408.618 11.7564C415.345 11.286 421.009 11.532 425.612 12.4936C430.208 13.3702 434.12 14.851 437.347 16.9359C440.573 19.0206 443.4 21.5182 445.829 24.4289L430.815 41.0097C428.817 39.3526 426.757 38.0417 424.636 37.0777C422.509 36.0284 420.32 35.3261 418.071 34.9699C415.9 34.5227 413.75 34.3734 411.621 34.5223C409.663 34.6592 408.015 34.9462 406.676 35.382C405.331 35.7327 404.3 36.2753 403.581 37.0101C402.856 37.6597 402.533 38.5379 402.61 39.6448C402.687 40.7518 403.221 41.6562 404.211 42.3571C405.281 42.9668 406.557 43.477 408.04 43.8867C409.609 44.2904 411.129 44.6118 412.6 44.8512C414.151 44.9995 415.443 45.1225 416.477 45.2213C421.22 45.7454 425.604 46.6375 429.628 47.8964C433.647 49.0701 437.184 50.7053 440.24 52.8019C443.375 54.8075 445.829 57.46 447.6 60.7591C449.45 63.9669 450.535 67.8704 450.857 72.4686C451.315 79.0254 450.039 84.6341 447.027 89.2943C444.101 93.9485 439.951 97.6186 434.576 100.305C429.196 102.906 423.1 104.445 416.288 104.921C409.56 105.391 403.548 105.084 398.253 104C393.036 102.825 388.374 101.011 384.267 98.56C380.244 96.103 376.572 93.1507 373.25 89.7034L387.966 70.7048C392.605 75.8569 397.286 79.1664 402.01 80.6332C406.812 82.0087 411.257 82.5532 415.345 82.2675C416.963 82.1544 418.402 81.9257 419.662 81.5809C420.915 81.151 421.858 80.5718 422.492 79.8431C423.125 79.1142 423.401 78.1533 423.317 76.9611C423.24 75.8541 422.791 74.9438 421.971 74.231C421.236 73.5125 420.255 72.9397 419.028 72.5122C417.794 71.9995 416.441 71.6228 414.969 71.3834C413.577 71.0529 412.19 70.8075 410.81 70.6473C409.515 70.4812 408.348 70.3067 407.308 70.1227C402.115 69.2878 397.543 68.1529 393.592 66.7177C389.641 65.2826 386.305 63.4616 383.584 61.2561C380.862 59.0503 378.755 56.459 377.263 53.4827C375.857 50.5006 375.02 47.0936 374.752 43.2619C374.449 38.919 375.15 34.8907 376.859 31.1773C378.653 27.4578 381.121 24.2042 384.263 21.4173C387.491 18.6246 391.186 16.3983 395.348 14.7381C399.596 13.072 404.019 12.0779 408.618 11.7564ZM238.875 80.3609C239.047 82.8302 239.714 85.0086 240.872 86.8956C242.025 88.6974 243.535 90.0895 245.4 91.0714C247.351 92.0472 249.476 92.4545 251.774 92.2938C254.244 92.1211 256.377 91.4161 258.173 90.1783C259.969 88.9402 261.356 87.3459 262.332 85.3951C263.302 83.3592 263.7 81.1063 263.527 78.637L259.758 24.7335L286.965 22.831L290.815 77.884C291.291 84.6963 290.01 90.861 286.973 96.3787C283.936 101.897 279.502 106.4 273.67 109.888C267.918 113.286 261.167 115.255 253.418 115.797C245.669 116.339 238.667 115.331 232.413 112.773C226.238 110.125 221.262 106.279 217.487 101.238C213.712 96.1964 211.585 90.2697 211.109 83.4576L207.259 28.4045L235.105 26.4573L238.875 80.3609ZM339.678 19.1449C345.809 18.7162 351.351 19.6544 356.305 21.9607C361.258 24.267 365.258 27.6241 368.305 32.0319C371.351 36.4398 373.082 41.6245 373.499 47.5854C373.934 53.8016 372.959 59.4318 370.574 64.4761C368.188 69.5205 364.709 73.6149 360.136 76.7585C355.558 79.8169 350.204 81.5608 344.073 81.9895L331.427 82.8738L333.284 109.442L305.695 111.371L299.442 21.9585L339.678 19.1449ZM54.8251 62.1679C51.9298 62.3703 49.2826 63.0685 46.8845 64.263C44.5716 65.4516 42.5468 67.0906 40.8104 69.1802C39.1531 71.1786 37.9028 73.4909 37.0595 76.1169C36.3015 78.737 36.0299 81.5802 36.2443 84.6457C36.4586 87.7113 37.1232 90.4889 38.2386 92.9781C39.439 95.4612 41.0021 97.6194 42.9272 99.4529C44.9316 101.195 47.1619 102.494 49.6177 103.349C52.1586 104.198 54.8773 104.522 57.7726 104.32C60.6678 104.117 63.2718 103.421 65.5845 102.233C67.9825 101.038 70.0104 99.4416 71.6676 97.4432C73.404 95.3537 74.6515 92.9989 75.4095 90.3788C76.2527 87.7527 76.5668 84.9067 76.3524 81.8411C76.138 78.7756 75.431 76.0008 74.2305 73.5177C73.1151 71.0286 71.5551 68.9128 69.5507 67.1704C67.6255 65.3369 65.3923 63.9957 62.8514 63.1465C60.3957 62.2914 57.7202 61.9655 54.8251 62.1679ZM153.369 55.2771C150.473 55.4795 147.827 56.1777 145.429 57.3721C143.116 58.5607 141.091 60.1998 139.355 62.2893C137.698 64.2876 136.447 66.6 135.604 69.226C134.846 71.8461 134.573 74.6893 134.788 77.7549C135.002 80.8205 135.668 83.598 136.783 86.0872C137.984 88.5703 139.547 90.7285 141.472 92.562C143.476 94.3044 145.706 95.6032 148.162 96.4583C150.703 97.3074 153.421 97.6314 156.316 97.429C159.211 97.2266 161.815 96.5304 164.128 95.3419C166.526 94.1473 168.554 92.5508 170.211 90.5524C171.948 88.4628 173.195 86.1081 173.953 83.488C174.796 80.8619 175.111 78.0158 174.897 74.9502C174.683 71.8847 173.975 69.11 172.774 66.6268C171.659 64.1378 170.099 62.0219 168.094 60.2796C166.169 58.4462 163.936 57.1048 161.395 56.2557C158.939 55.4006 156.264 55.0746 153.369 55.2771ZM516.447 15.1266C516.799 20.1506 516.864 25.3658 516.643 30.7721C516.501 36.0875 516.192 41.4576 515.715 46.8819C515.239 52.3063 514.794 57.5579 514.379 62.6356L497.774 63.7968C496.656 58.8262 495.483 53.6878 494.256 48.3825C493.029 43.0773 491.933 37.8054 490.968 32.5675C490.082 27.2386 489.464 22.062 489.113 17.038L488.354 6.18071L515.688 4.26929L516.447 15.1266ZM329.273 59.4063L337.319 58.8436C338.937 58.7305 340.364 58.331 341.6 57.6456C342.829 56.8752 343.744 55.8703 344.341 54.6306C345.025 53.3849 345.303 51.867 345.178 50.0788C345.053 48.2907 344.569 46.8696 343.725 45.8162C342.966 44.757 341.93 44.0166 340.617 43.595C339.298 43.0883 337.83 42.8913 336.212 43.0044L328.165 43.5671L329.273 59.4063Z" fill="#E7000B"/>
<path d="M506.891 73.0427L506.612 69.0524L506.612 69.0524L506.891 73.0427ZM516.448 75.7116L519.072 72.6928L519.072 72.6928L516.448 75.7116ZM520.43 84.9319L524.42 84.653L524.42 84.6529L520.43 84.9319ZM517.497 94.3783L514.478 91.7541L514.454 91.7815L514.431 91.8093L517.497 94.3783ZM508.677 98.5887L508.956 102.579L508.956 102.579L508.677 98.5887ZM499.121 95.9197L496.497 98.9385L496.497 98.9385L499.121 95.9197ZM495.139 86.7004L491.149 86.9794L491.149 86.9795L495.139 86.7004ZM497.945 77.262L494.926 74.6377L494.902 74.6652L494.879 74.693L497.945 77.262ZM53.0387 36.6209L52.7597 32.6306L52.7596 32.6306L53.0387 36.6209ZM72.5667 38.7208L71.3535 42.5324L71.363 42.5354L71.3725 42.5384L72.5667 38.7208ZM88.5743 47.3567L91.1377 44.286L91.1377 44.286L88.5743 47.3567ZM99.5734 61.4773L95.9767 63.2276L95.9926 63.2602L96.009 63.2926L99.5734 61.4773ZM104.445 79.7484L108.435 79.4694L108.435 79.4694L104.445 79.7484ZM102.182 98.7749L98.3922 97.4938L98.3841 97.518L98.3762 97.5423L102.182 98.7749ZM93.2547 114.289L96.2204 116.973L96.2205 116.973L93.2547 114.289ZM78.6047 125.069L76.8908 121.454L76.8818 121.459L76.8729 121.463L78.6047 125.069ZM59.6866 129.857L59.9656 133.847L59.9656 133.847L59.6866 129.857ZM40.03 127.766L38.8358 131.584L38.8358 131.584L40.03 127.766ZM24.0233 119.13L21.46 122.201L21.46 122.201L24.0233 119.13ZM12.8956 105.018L9.29887 106.769L9.31006 106.792L9.32154 106.814L12.8956 105.018ZM8.14297 86.6108L4.15272 86.8898L4.15272 86.8898L8.14297 86.6108ZM10.2875 67.7208L6.49826 66.4396L6.49343 66.4539L6.48871 66.4682L10.2875 67.7208ZM19.343 52.1978L16.3772 49.5137L16.3772 49.5137L19.343 52.1978ZM33.9919 41.4182L32.2781 37.804L32.2781 37.804L33.9919 41.4182ZM151.582 29.7301L151.303 25.7398V25.7398L151.582 29.7301ZM171.111 31.8299L169.898 35.6415L169.908 35.6445L169.917 35.6475L171.111 31.8299ZM187.118 40.4658L189.681 37.3951L189.681 37.3951L187.118 40.4658ZM198.117 54.5865L194.52 56.3368L194.536 56.3694L194.553 56.4018L198.117 54.5865ZM202.989 72.8575L206.98 72.5785L206.98 72.5785L202.989 72.8575ZM200.725 91.8841L196.936 90.603L196.928 90.6271L196.92 90.6514L200.725 91.8841ZM191.798 107.398L194.764 110.082L194.764 110.082L191.798 107.398ZM177.149 118.178L175.435 114.563L175.426 114.568L175.417 114.572L177.149 118.178ZM158.23 122.966L158.509 126.956L158.509 126.956L158.23 122.966ZM138.574 120.875L137.379 124.693L137.379 124.693L138.574 120.875ZM122.567 112.239L120.004 115.31L120.004 115.31L122.567 112.239ZM111.44 98.1275L107.843 99.8778L107.855 99.9007L107.866 99.9236L111.44 98.1275ZM106.687 79.7199L102.696 79.9989L102.696 79.999L106.687 79.7199ZM108.832 60.8299L105.043 59.5487L105.038 59.563L105.033 59.5773L108.832 60.8299ZM117.887 45.307L114.921 42.6229L114.921 42.6229L117.887 45.307ZM132.535 34.5274L130.822 30.9132L130.822 30.9132L132.535 34.5274ZM408.618 11.7564L408.339 7.76614V7.76614L408.618 11.7564ZM425.612 12.4936L424.794 16.4091L424.828 16.4163L424.863 16.4228L425.612 12.4936ZM437.347 16.9359L439.518 13.5763L439.518 13.5762L437.347 16.9359ZM445.829 24.4289L448.794 27.1137L451.128 24.5363L448.9 21.8664L445.829 24.4289ZM430.815 41.0097L428.262 44.0888L431.209 46.5333L433.78 43.6946L430.815 41.0097ZM424.636 37.0777L422.866 40.665L422.923 40.693L422.981 40.7192L424.636 37.0777ZM418.071 34.9699L417.263 38.8877L417.354 38.9063L417.445 38.9208L418.071 34.9699ZM411.621 34.5223L411.342 30.532L411.342 30.532L411.621 34.5223ZM406.676 35.382L407.686 39.2525L407.801 39.2224L407.914 39.1855L406.676 35.382ZM403.581 37.0101L406.251 39.9885L406.349 39.901L406.44 39.8072L403.581 37.0101ZM402.61 39.6448L398.62 39.9236L398.62 39.9238L402.61 39.6448ZM404.211 42.3571L401.9 45.622L402.06 45.7351L402.23 45.832L404.211 42.3571ZM408.04 43.8867L406.975 47.7423L407.009 47.7516L407.043 47.7604L408.04 43.8867ZM412.6 44.8512L411.958 48.7993L412.088 48.8205L412.219 48.833L412.6 44.8512ZM416.477 45.2213L416.916 41.2455L416.887 41.2423L416.858 41.2395L416.477 45.2213ZM429.628 47.8964L428.434 51.714L428.47 51.7253L428.507 51.7359L429.628 47.8964ZM440.24 52.8019L437.977 56.1003L438.03 56.1367L438.084 56.1715L440.24 52.8019ZM447.6 60.7591L444.075 62.651L444.104 62.7046L444.135 62.7574L447.6 60.7591ZM450.857 72.4686L454.847 72.1896L454.847 72.1895L450.857 72.4686ZM447.027 89.2943L443.668 87.1233L443.654 87.1442L443.641 87.1652L447.027 89.2943ZM434.576 100.305L436.317 103.906L436.341 103.895L436.365 103.883L434.576 100.305ZM416.288 104.921L416.567 108.911V108.911L416.288 104.921ZM398.253 104L397.373 107.902L397.412 107.911L397.45 107.919L398.253 104ZM384.267 98.56L382.182 101.974L382.199 101.984L382.217 101.995L384.267 98.56ZM373.25 89.7034L370.088 87.2539L367.97 89.9882L370.37 92.4789L373.25 89.7034ZM387.966 70.7048L390.939 68.0283L387.736 64.4706L384.804 68.2553L387.966 70.7048ZM402.01 80.6332L400.823 84.4532L400.866 84.4663L400.908 84.4785L402.01 80.6332ZM415.345 82.2675L415.624 86.2578L415.624 86.2578L415.345 82.2675ZM419.662 81.5809L420.718 85.4389L420.84 85.4055L420.96 85.3645L419.662 81.5809ZM422.492 79.8431L425.51 82.4677L425.511 82.4673L422.492 79.8431ZM423.317 76.9611L427.307 76.6821L427.307 76.6821L423.317 76.9611ZM421.971 74.231L419.174 77.0907L419.258 77.1728L419.347 77.2498L421.971 74.231ZM419.028 72.5122L417.493 76.206L417.601 76.2511L417.712 76.2897L419.028 72.5122ZM414.969 71.3834L414.045 75.2752L414.185 75.3084L414.327 75.3315L414.969 71.3834ZM410.81 70.6473L410.301 74.6148L410.325 74.6179L410.349 74.6206L410.81 70.6473ZM407.308 70.1227L408.005 66.184L407.974 66.1785L407.943 66.1735L407.308 70.1227ZM393.592 66.7177L392.226 70.4774L392.226 70.4774L393.592 66.7177ZM383.584 61.2561L381.065 64.3635L381.065 64.3636L383.584 61.2561ZM377.263 53.4827L373.646 55.1889L373.666 55.2322L373.687 55.275L377.263 53.4827ZM374.752 43.2619L370.762 43.5409L370.762 43.5409L374.752 43.2619ZM376.859 31.1773L373.256 29.4398L373.24 29.4725L373.225 29.5055L376.859 31.1773ZM384.263 21.4173L381.646 18.3924L381.628 18.4084L381.609 18.4246L384.263 21.4173ZM395.348 14.7381L393.887 11.0144L393.877 11.0185L393.866 11.0228L395.348 14.7381ZM238.875 80.3609L234.884 80.6399L234.884 80.64L238.875 80.3609ZM240.872 86.8956L237.464 88.9888L237.483 89.0203L237.503 89.0514L240.872 86.8956ZM245.4 91.0714L243.537 94.611L243.574 94.6303L243.611 94.6487L245.4 91.0714ZM251.774 92.2938L252.053 96.2841L252.054 96.2841L251.774 92.2938ZM258.173 90.1783L260.443 93.4717L260.443 93.4716L258.173 90.1783ZM262.332 85.3951L265.909 87.1848L265.926 87.1504L265.943 87.1156L262.332 85.3951ZM263.527 78.637L267.517 78.3581L267.517 78.358L263.527 78.637ZM259.758 24.7335L259.479 20.7432L255.489 21.0222L255.768 25.0125L259.758 24.7335ZM286.965 22.831L290.955 22.5519L290.676 18.5617L286.686 18.8407L286.965 22.831ZM290.815 77.884L294.805 77.605L294.805 77.605L290.815 77.884ZM286.973 96.3787L290.478 98.3074L290.478 98.3074L286.973 96.3787ZM273.67 109.888L275.704 113.333L275.714 113.327L275.724 113.321L273.67 109.888ZM253.418 115.797L253.697 119.787L253.697 119.787L253.418 115.797ZM232.413 112.773L230.836 116.449L230.867 116.463L230.899 116.476L232.413 112.773ZM217.487 101.238L214.285 103.635L214.285 103.635L217.487 101.238ZM211.109 83.4576L207.119 83.7366L207.119 83.7367L211.109 83.4576ZM207.259 28.4045L206.98 24.4143L202.99 24.6933L203.269 28.6836L207.259 28.4045ZM235.105 26.4573L239.095 26.1783L238.816 22.1881L234.826 22.4671L235.105 26.4573ZM356.305 21.9607L357.993 18.3345L357.993 18.3345L356.305 21.9607ZM368.305 32.0319L371.595 29.7576L371.595 29.7576L368.305 32.0319ZM373.499 47.5854L377.489 47.3064L377.489 47.3064L373.499 47.5854ZM370.574 64.4761L374.19 66.1862L374.19 66.1861L370.574 64.4761ZM360.136 76.7585L362.358 80.0846L362.381 80.0698L362.403 80.0546L360.136 76.7585ZM331.427 82.8738L331.148 78.8835L327.157 79.1625L327.436 83.1528L331.427 82.8738ZM333.284 109.442L333.563 113.432L337.554 113.153L337.275 109.163L333.284 109.442ZM305.695 111.371L301.704 111.65L301.983 115.64L305.974 115.361L305.695 111.371ZM299.442 21.9585L299.163 17.9682L295.173 18.2472L295.452 22.2375L299.442 21.9585ZM54.8251 62.1679L54.5461 58.1776L54.5461 58.1776L54.8251 62.1679ZM46.8845 64.263L45.101 60.6827L45.0785 60.6939L45.0562 60.7053L46.8845 64.263ZM40.8104 69.1802L37.734 66.6236L37.7313 66.6268L40.8104 69.1802ZM37.0595 76.1169L33.251 74.894L33.2333 74.9494L33.2171 75.0052L37.0595 76.1169ZM36.2443 84.6457L32.254 84.9247L32.254 84.9248L36.2443 84.6457ZM38.2386 92.9781L34.5883 94.6137L34.612 94.6668L34.6373 94.7191L38.2386 92.9781ZM42.9272 99.4529L40.1686 102.349L40.2344 102.412L40.303 102.472L42.9272 99.4529ZM49.6177 103.349L48.3023 107.127L48.326 107.135L48.3498 107.143L49.6177 103.349ZM57.7726 104.32L58.0517 108.31L58.0517 108.31L57.7726 104.32ZM65.5845 102.233L63.801 98.6524L63.7786 98.6635L63.7562 98.675L65.5845 102.233ZM71.6676 97.4432L68.5912 94.8867L68.5886 94.8899L71.6676 97.4432ZM75.4095 90.3788L71.601 89.156L71.5833 89.2113L71.5671 89.2671L75.4095 90.3788ZM76.3524 81.8411L80.3426 81.5621L80.3426 81.562L76.3524 81.8411ZM74.2305 73.5177L70.5802 75.1533L70.604 75.2064L70.6292 75.2587L74.2305 73.5177ZM69.5507 67.1704L66.7921 70.067L66.8579 70.1297L66.9265 70.1893L69.5507 67.1704ZM62.8514 63.1465L61.536 66.9241L61.5597 66.9323L61.5835 66.9403L62.8514 63.1465ZM153.369 55.2771L153.09 51.2868L153.09 51.2868L153.369 55.2771ZM145.429 57.3721L143.646 53.7917L143.623 53.8029L143.601 53.8144L145.429 57.3721ZM139.355 62.2893L136.279 59.7327L136.276 59.7359L139.355 62.2893ZM135.604 69.226L131.796 68.0031L131.778 68.0584L131.762 68.1143L135.604 69.226ZM134.788 77.7549L130.798 78.0339L130.798 78.0339L134.788 77.7549ZM136.783 86.0872L133.133 87.7228L133.157 87.7759L133.182 87.8282L136.783 86.0872ZM141.472 92.562L138.713 95.4586L138.779 95.5213L138.848 95.5809L141.472 92.562ZM148.162 96.4583L146.847 100.236L146.871 100.244L146.894 100.252L148.162 96.4583ZM156.316 97.429L156.595 101.419L156.595 101.419L156.316 97.429ZM164.128 95.3419L162.345 91.7615L162.322 91.7727L162.3 91.7841L164.128 95.3419ZM170.211 90.5524L167.135 87.9958L167.132 87.999L170.211 90.5524ZM173.953 83.488L170.145 82.2651L170.127 82.3205L170.111 82.3763L173.953 83.488ZM174.897 74.9502L178.887 74.6712L178.887 74.6711L174.897 74.9502ZM172.774 66.6268L169.124 68.2625L169.148 68.3155L169.173 68.3678L172.774 66.6268ZM168.094 60.2796L165.336 63.1762L165.401 63.2389L165.47 63.2984L168.094 60.2796ZM161.395 56.2557L160.08 60.0332L160.103 60.0415L160.127 60.0494L161.395 56.2557ZM516.447 15.1266L520.438 14.8475L520.438 14.8475L516.447 15.1266ZM516.643 30.7721L512.646 30.6088L512.645 30.6372L512.644 30.6655L516.643 30.7721ZM515.715 46.8819L519.7 47.2319L519.7 47.2319L515.715 46.8819ZM514.379 62.6356L514.658 66.6259L518.085 66.3862L518.365 62.9615L514.379 62.6356ZM497.774 63.7968L493.871 64.6743L494.625 68.0267L498.053 67.787L497.774 63.7968ZM494.256 48.3825L490.359 49.2836L490.359 49.2836L494.256 48.3825ZM490.968 32.5675L487.022 33.2236L487.028 33.258L487.034 33.2924L490.968 32.5675ZM489.113 17.038L485.123 17.317V17.317L489.113 17.038ZM488.354 6.18071L488.075 2.19046L484.084 2.46948L484.363 6.45974L488.354 6.18071ZM515.688 4.26929L519.678 3.99026L519.399 7.53636e-06L515.409 0.279033L515.688 4.26929ZM329.273 59.4063L325.282 59.6853L325.561 63.6756L329.552 63.3966L329.273 59.4063ZM341.6 57.6456L343.54 61.1436L343.633 61.0918L343.724 61.0352L341.6 57.6456ZM344.341 54.6306L340.834 52.7076L340.784 52.7991L340.739 52.893L344.341 54.6306ZM345.178 50.0788L349.169 49.7997L349.169 49.7996L345.178 50.0788ZM343.725 45.8162L340.473 48.1454L340.536 48.2329L340.603 48.3169L343.725 45.8162ZM340.617 43.595L339.183 47.329L339.288 47.3692L339.394 47.4035L340.617 43.595ZM328.165 43.5671L327.886 39.5768L323.896 39.8558L324.175 43.8461L328.165 43.5671ZM506.891 73.0427L507.17 77.0329C510.423 76.8055 512.462 77.547 513.824 78.7304L516.448 75.7116L519.072 72.6928C515.696 69.7578 511.364 68.7201 506.612 69.0524L506.891 73.0427ZM516.448 75.7116L513.824 78.7304C515.169 79.8998 516.204 81.8452 516.44 85.2109L520.43 84.9319L524.42 84.6529C524.084 79.8437 522.465 75.6418 519.072 72.6928L516.448 75.7116ZM520.43 84.9319L516.44 85.2108C516.637 88.0282 515.919 90.0963 514.478 91.7541L517.497 94.3783L520.516 97.0025C523.51 93.5583 524.747 89.3288 524.42 84.653L520.43 84.9319ZM517.497 94.3783L514.431 91.8093C513.09 93.4091 511.218 94.4013 508.398 94.5984L508.677 98.5887L508.956 102.579C513.63 102.252 517.638 100.438 520.563 96.9472L517.497 94.3783ZM508.677 98.5887L508.398 94.5984C505.146 94.8258 503.107 94.0844 501.745 92.9009L499.121 95.9197L496.497 98.9385C499.873 101.873 504.205 102.911 508.956 102.579L508.677 98.5887ZM499.121 95.9197L501.745 92.9009C500.4 91.7314 499.365 89.7866 499.129 86.4213L495.139 86.7004L491.149 86.9795C491.485 91.7886 493.105 95.9897 496.497 98.9385L499.121 95.9197ZM495.139 86.7004L499.13 86.4214C498.929 83.5605 499.633 81.4758 501.011 79.8309L497.945 77.262L494.879 74.693C491.992 78.1384 490.825 82.3466 491.149 86.9794L495.139 86.7004ZM497.945 77.262L500.964 79.8862C502.405 78.2285 504.353 77.23 507.17 77.0329L506.891 73.0427L506.612 69.0524C501.936 69.3795 497.92 71.1935 494.926 74.6377L497.945 77.262ZM53.0387 36.6209L53.3177 40.6112C59.9483 40.1475 65.9444 40.8108 71.3535 42.5324L72.5667 38.7208L73.7799 34.9092C67.2867 32.8426 60.2641 32.1059 52.7597 32.6306L53.0387 36.6209ZM72.5667 38.7208L71.3725 42.5384C76.9325 44.2777 81.7984 46.9109 86.011 50.4274L88.5743 47.3567L91.1377 44.286C86.0808 40.0646 80.2739 36.9406 73.7609 34.9033L72.5667 38.7208ZM88.5743 47.3567L86.0109 50.4274C90.2022 53.9261 93.5203 58.1799 95.9767 63.2276L99.5734 61.4773L103.17 59.7271C100.23 53.6856 96.2158 48.5251 91.1377 44.286L88.5743 47.3567ZM99.5734 61.4773L96.009 63.2926C98.5189 68.221 100.018 73.7808 100.455 80.0275L104.445 79.7484L108.435 79.4694C107.931 72.2617 106.183 65.6406 103.138 59.6621L99.5734 61.4773ZM104.445 79.7484L100.455 80.0275C100.898 86.3655 100.191 92.1722 98.3922 97.4938L102.182 98.7749L105.971 100.056C108.142 93.6336 108.945 86.7559 108.435 79.4694L104.445 79.7484ZM102.182 98.7749L98.3762 97.5423C96.6463 102.883 93.9523 107.557 90.2889 111.605L93.2547 114.289L96.2205 116.973C100.659 112.069 103.916 106.399 105.987 100.008L102.182 98.7749ZM93.2547 114.289L90.2889 111.605C86.6068 115.673 82.1547 118.958 76.8908 121.454L78.6047 125.069L80.3186 128.683C86.4847 125.759 91.8003 121.857 96.2204 116.973L93.2547 114.289ZM78.6047 125.069L76.8729 121.463C71.7507 123.923 65.9465 125.409 59.4076 125.867L59.6866 129.857L59.9656 133.847C67.3917 133.328 74.1995 131.622 80.3366 128.674L78.6047 125.069ZM59.6866 129.857L59.4076 125.867C52.7777 126.33 46.7307 125.671 41.2242 123.948L40.03 127.766L38.8358 131.584C45.4021 133.638 52.4599 134.372 59.9656 133.847L59.6866 129.857ZM40.03 127.766L41.2242 123.948C35.6645 122.209 30.7994 119.576 26.5867 116.059L24.0233 119.13L21.46 122.201C26.5167 126.422 32.3226 129.546 38.8358 131.584L40.03 127.766ZM24.0233 119.13L26.5867 116.059C22.3839 112.551 19.0137 108.285 16.4697 103.222L12.8956 105.018L9.32154 106.814C12.3442 112.83 16.3934 117.971 21.46 122.201L24.0233 119.13ZM12.8956 105.018L16.4924 103.268C14.0387 98.2258 12.5713 92.5958 12.1332 86.3317L8.14297 86.6108L4.15272 86.8898C4.6555 94.0799 6.3565 100.722 9.29887 106.769L12.8956 105.018ZM8.14297 86.6108L12.1332 86.3317C11.6887 79.9745 12.3615 74.2044 14.0864 68.9734L10.2875 67.7208L6.48871 66.4682C4.40124 72.7991 3.64455 79.6224 4.15272 86.8898L8.14297 86.6108ZM10.2875 67.7208L14.0768 69.002C15.8914 63.6349 18.6351 58.941 22.3087 54.8819L19.343 52.1978L16.3772 49.5137C11.9485 54.4072 8.65441 60.0625 6.49826 66.4396L10.2875 67.7208ZM19.343 52.1978L22.3087 54.8819C25.991 50.8133 30.4424 47.5284 35.7058 45.0325L33.9919 41.4182L32.2781 37.804C26.1119 40.7281 20.7972 44.63 16.3772 49.5137L19.343 52.1978ZM33.9919 41.4182L35.7058 45.0325C40.9243 42.5579 46.7795 41.0683 53.3177 40.6112L53.0387 36.6209L52.7596 32.6306C45.3326 33.15 38.4893 34.8586 32.2781 37.804L33.9919 41.4182ZM151.582 29.7301L151.861 33.7203C158.492 33.2566 164.489 33.9198 169.898 35.6415L171.111 31.8299L172.324 28.0184C165.831 25.9515 158.808 25.215 151.303 25.7398L151.582 29.7301ZM171.111 31.8299L169.917 35.6475C175.477 37.3867 180.342 40.02 184.555 43.5366L187.118 40.4658L189.681 37.3951C184.625 33.174 178.819 30.0498 172.305 28.0124L171.111 31.8299ZM187.118 40.4658L184.555 43.5366C188.746 47.0353 192.064 51.289 194.52 56.3368L198.117 54.5865L201.714 52.8362C198.774 46.7947 194.759 41.6342 189.681 37.3951L187.118 40.4658ZM198.117 54.5865L194.553 56.4018C197.063 61.3306 198.562 66.8902 198.999 73.1366L202.989 72.8575L206.98 72.5785C206.476 65.3703 204.726 58.7495 201.681 52.7712L198.117 54.5865ZM202.989 72.8575L198.999 73.1366C199.442 79.4743 198.735 85.281 196.936 90.603L200.725 91.8841L204.514 93.1652C206.686 86.743 207.489 79.8655 206.98 72.5785L202.989 72.8575ZM200.725 91.8841L196.92 90.6514C195.19 95.9919 192.496 100.666 188.832 104.714L191.798 107.398L194.764 110.082C199.203 105.178 202.46 99.5087 204.53 93.1168L200.725 91.8841ZM191.798 107.398L188.832 104.714C185.15 108.783 180.699 112.067 175.435 114.563L177.149 118.178L178.863 121.792C185.029 118.868 190.344 114.966 194.764 110.082L191.798 107.398ZM177.149 118.178L175.417 114.572C170.295 117.032 164.49 118.519 157.951 118.976L158.23 122.966L158.509 126.956C165.935 126.437 172.744 124.731 178.881 121.783L177.149 118.178ZM158.23 122.966L157.951 118.976C151.321 119.439 145.274 118.78 139.768 117.058L138.574 120.875L137.379 124.693C143.946 126.747 151.003 127.481 158.509 126.956L158.23 122.966ZM138.574 120.875L139.768 117.058C134.208 115.318 129.343 112.685 125.13 109.169L122.567 112.239L120.004 115.31C125.06 119.531 130.866 122.655 137.379 124.693L138.574 120.875ZM122.567 112.239L125.13 109.169C120.928 105.66 117.558 101.394 115.014 96.3314L111.44 98.1275L107.866 99.9236C110.889 105.938 114.937 111.08 120.004 115.31L122.567 112.239ZM111.44 98.1275L115.037 96.3773C112.583 91.3345 111.115 85.7047 110.677 79.4409L106.687 79.7199L102.696 79.999C103.199 87.1896 104.901 93.8314 107.843 99.8778L111.44 98.1275ZM106.687 79.7199L110.677 79.4409C110.232 73.084 110.906 67.3139 112.631 62.0825L108.832 60.8299L105.033 59.5773C102.946 65.9079 102.188 72.7311 102.696 79.9989L106.687 79.7199ZM108.832 60.8299L112.621 62.1111C114.436 56.7436 117.179 52.0499 120.852 47.9911L117.887 45.307L114.921 42.6229C110.492 47.5166 107.199 53.1719 105.043 59.5487L108.832 60.8299ZM117.887 45.307L120.852 47.9911C124.535 43.9224 128.986 40.6377 134.249 38.1416L132.535 34.5274L130.822 30.9132C124.655 33.8373 119.341 37.7391 114.921 42.6229L117.887 45.307ZM132.535 34.5274L134.249 38.1416C139.468 35.667 145.323 34.1775 151.861 33.7203L151.582 29.7301L151.303 25.7398C143.876 26.2592 137.033 27.9677 130.822 30.9132L132.535 34.5274ZM408.618 11.7564L408.897 15.7466C415.401 15.2918 420.67 15.5475 424.794 16.4091L425.612 12.4936L426.43 8.57819C421.348 7.51639 415.288 7.28017 408.339 7.76614L408.618 11.7564ZM425.612 12.4936L424.863 16.4228C429.06 17.2234 432.466 18.5441 435.176 20.2955L437.347 16.9359L439.518 13.5762C435.775 11.158 431.356 9.51705 426.361 8.56444L425.612 12.4936ZM437.347 16.9359L435.176 20.2955C438.068 22.1644 440.591 24.3945 442.757 26.9913L445.829 24.4289L448.9 21.8664C446.21 18.642 443.078 15.8768 439.518 13.5763L437.347 16.9359ZM445.829 24.4289L442.864 21.744L427.85 38.3249L430.815 41.0097L433.78 43.6946L448.794 27.1137L445.829 24.4289ZM430.815 41.0097L433.368 37.9307C431.128 36.0728 428.77 34.5628 426.291 33.4362L424.636 37.0777L422.981 40.7192C424.744 41.5206 426.505 42.6325 428.262 44.0888L430.815 41.0097ZM424.636 37.0777L426.405 33.4904C423.932 32.2703 421.359 31.4407 418.696 31.0191L418.071 34.9699L417.445 38.9208C419.282 39.2114 421.086 39.7865 422.866 40.665L424.636 37.0777ZM418.071 34.9699L418.878 31.0522C416.364 30.5343 413.849 30.3567 411.342 30.532L411.621 34.5223L411.9 38.5125C413.651 38.3901 415.436 38.5111 417.263 38.8877L418.071 34.9699ZM411.621 34.5223L411.342 30.532C409.174 30.6836 407.181 31.0108 405.438 31.5785L406.676 35.382L407.914 39.1855C408.848 38.8816 410.152 38.6348 411.9 38.5125L411.621 34.5223ZM406.676 35.382L405.666 31.5115C403.859 31.9831 402.097 32.807 400.721 34.2129L403.581 37.0101L406.44 39.8072C406.502 39.7436 406.804 39.4824 407.686 39.2525L406.676 35.382ZM403.581 37.0101L400.911 34.0317C399.13 35.6279 398.47 37.7812 398.62 39.9236L402.61 39.6448L406.6 39.366C406.594 39.2736 406.615 39.3579 406.548 39.5391C406.515 39.6273 406.469 39.718 406.411 39.8032C406.353 39.8878 406.295 39.949 406.251 39.9885L403.581 37.0101ZM402.61 39.6448L398.62 39.9238C398.789 42.348 400.034 44.3009 401.9 45.622L404.211 42.3571L406.522 39.0921C406.417 39.0174 406.452 39.0164 406.513 39.1199C406.541 39.1681 406.565 39.2217 406.581 39.2742C406.597 39.326 406.6 39.3594 406.6 39.3657L402.61 39.6448ZM404.211 42.3571L402.23 45.832C403.648 46.6406 405.247 47.2649 406.975 47.7423L408.04 43.8867L409.105 40.031C407.867 39.6891 406.913 39.293 406.192 38.8822L404.211 42.3571ZM408.04 43.8867L407.043 47.7604C408.719 48.1918 410.358 48.539 411.958 48.7993L412.6 44.8512L413.242 40.9031C411.9 40.6847 410.498 40.389 409.037 40.0129L408.04 43.8867ZM412.6 44.8512L412.219 48.833C412.995 48.9072 413.706 48.9751 414.353 49.0367C414.999 49.0984 415.58 49.1538 416.096 49.2031L416.477 45.2213L416.858 41.2395C416.34 41.19 415.758 41.1345 415.112 41.0729C414.466 41.0112 413.756 40.9435 412.981 40.8694L412.6 44.8512ZM416.477 45.2213L416.038 49.1971C420.557 49.6964 424.685 50.5412 428.434 51.714L429.628 47.8964L430.823 44.0788C426.523 42.7338 421.883 41.7943 416.916 41.2455L416.477 45.2213ZM429.628 47.8964L428.507 51.7359C432.17 52.806 435.312 54.2721 437.977 56.1003L440.24 52.8019L442.502 49.5036C439.055 47.1384 435.123 45.3342 430.75 44.0568L429.628 47.8964ZM440.24 52.8019L438.084 56.1715C440.641 57.8072 442.625 59.9497 444.075 62.651L447.6 60.7591L451.124 58.8672C449.032 54.9704 446.108 51.8079 442.395 49.4324L440.24 52.8019ZM447.6 60.7591L444.135 62.7574C445.616 65.3267 446.577 68.6101 446.867 72.7476L450.857 72.4686L454.847 72.1895C454.493 67.1306 453.283 62.6071 451.065 58.7607L447.6 60.7591ZM450.857 72.4686L446.867 72.7476C447.276 78.6054 446.127 83.3172 443.668 87.1233L447.027 89.2943L450.387 91.4652C453.95 85.9509 455.355 79.4453 454.847 72.1896L450.857 72.4686ZM447.027 89.2943L443.641 87.1652C441.14 91.1423 437.57 94.3368 432.788 96.7269L434.576 100.305L436.365 103.883C442.331 100.901 447.062 96.7548 450.414 91.4233L447.027 89.2943ZM434.576 100.305L432.835 96.7036C427.974 99.0539 422.385 100.485 416.008 100.931L416.288 104.921L416.567 108.911C423.815 108.404 430.418 106.758 436.317 103.906L434.576 100.305ZM416.288 104.921L416.008 100.931C409.558 101.382 403.92 101.078 399.055 100.081L398.253 104L397.45 107.919C403.176 109.091 409.563 109.401 416.567 108.911L416.288 104.921ZM398.253 104L399.132 100.098C394.28 99.0045 390.021 97.3357 386.316 95.1251L384.267 98.56L382.217 101.995C386.728 104.686 391.792 106.645 397.373 107.902L398.253 104ZM384.267 98.56L386.352 95.1465C382.625 92.8701 379.219 90.1333 376.13 86.928L373.25 89.7034L370.37 92.4789C373.924 96.1682 377.863 99.336 382.182 101.974L384.267 98.56ZM373.25 89.7034L376.412 92.1529L391.129 73.1543L387.966 70.7048L384.804 68.2553L370.088 87.2539L373.25 89.7034ZM387.966 70.7048L384.994 73.3813C389.93 78.8637 395.19 82.7039 400.823 84.4532L402.01 80.6332L403.196 76.8131C399.383 75.6289 395.28 72.8501 390.939 68.0283L387.966 70.7048ZM402.01 80.6332L400.908 84.4785C406.064 85.9553 410.982 86.5823 415.624 86.2578L415.345 82.2675L415.066 78.2772C411.533 78.5242 407.56 78.0621 403.111 76.7878L402.01 80.6332ZM415.345 82.2675L415.624 86.2578C417.443 86.1305 419.151 85.8678 420.718 85.4389L419.662 81.5809L418.606 77.7228C417.653 77.9836 416.482 78.1782 415.066 78.2772L415.345 82.2675ZM419.662 81.5809L420.96 85.3645C422.641 84.7876 424.275 83.8889 425.51 82.4677L422.492 79.8431L419.473 77.2186C419.442 77.2546 419.188 77.5144 418.364 77.7973L419.662 81.5809ZM422.492 79.8431L425.511 82.4673C426.998 80.7565 427.446 78.666 427.307 76.6821L423.317 76.9611L419.327 77.2401C419.342 77.4599 419.315 77.5205 419.328 77.4746C419.335 77.451 419.349 77.4096 419.377 77.3583C419.405 77.3067 419.438 77.2589 419.473 77.2189L422.492 79.8431ZM423.317 76.9611L427.307 76.6821C427.158 74.5428 426.235 72.6378 424.595 71.2122L421.971 74.231L419.347 77.2498C419.358 77.2598 419.365 77.2663 419.367 77.2687C419.369 77.2712 419.368 77.2703 419.365 77.266C419.362 77.2617 419.357 77.255 419.351 77.2461C419.345 77.2371 419.34 77.2273 419.335 77.217C419.33 77.2067 419.326 77.1974 419.323 77.1899C419.32 77.1823 419.319 77.1779 419.319 77.1772C419.318 77.1752 419.324 77.1942 419.327 77.2402L423.317 76.9611ZM421.971 74.231L424.768 71.3713C423.516 70.1474 421.983 69.3057 420.343 68.7347L419.028 72.5122L417.712 76.2897C418.528 76.5737 418.956 76.8775 419.174 77.0907L421.971 74.231ZM419.028 72.5122L420.563 68.8184C419.012 68.1742 417.356 67.719 415.612 67.4353L414.969 71.3834L414.327 75.3315C415.526 75.5265 416.575 75.8248 417.493 76.206L419.028 72.5122ZM414.969 71.3834L415.893 67.4915C414.353 67.1259 412.812 66.8528 411.271 66.674L410.81 70.6473L410.349 74.6206C411.569 74.7622 412.801 74.9799 414.045 75.2752L414.969 71.3834ZM410.81 70.6473L411.319 66.6798C410.071 66.5198 408.968 66.3544 408.005 66.184L407.308 70.1227L406.611 74.0615C407.727 74.259 408.959 74.4426 410.301 74.6148L410.81 70.6473ZM407.308 70.1227L407.943 66.1735C402.94 65.3691 398.621 64.2888 394.957 62.9581L393.592 66.7177L392.226 70.4774C396.465 72.0169 401.29 73.2066 406.673 74.072L407.308 70.1227ZM393.592 66.7177L394.957 62.9581C391.344 61.6455 388.417 60.0249 386.102 58.1485L383.584 61.2561L381.065 64.3636C384.193 66.8984 387.938 68.9198 392.226 70.4774L393.592 66.7177ZM383.584 61.2561L386.102 58.1486C383.799 56.2818 382.063 54.1314 380.839 51.6904L377.263 53.4827L373.687 55.275C375.447 58.7865 377.926 61.8189 381.065 64.3635L383.584 61.2561ZM377.263 53.4827L380.881 51.7765C379.718 49.3107 378.982 46.4006 378.743 42.9828L374.752 43.2619L370.762 43.5409C371.059 47.7866 371.996 51.6905 373.646 55.1889L377.263 53.4827ZM374.752 43.2619L378.743 42.9828C378.483 39.2645 379.083 35.9124 380.493 32.8491L376.859 31.1773L373.225 29.5055C371.218 33.869 370.415 38.5736 370.762 43.5409L374.752 43.2619ZM376.859 31.1773L380.462 32.9147C382.021 29.6808 384.164 26.8516 386.918 24.4099L384.263 21.4173L381.609 18.4246C378.078 21.5567 375.284 25.2349 373.256 29.4398L376.859 31.1773ZM384.263 21.4173L386.881 24.4421C389.754 21.9557 393.061 19.9567 396.83 18.4535L395.348 14.7381L393.866 11.0228C389.31 12.8398 385.228 15.2935 381.646 18.3924L384.263 21.4173ZM395.348 14.7381L396.809 18.4619C400.674 16.9456 404.699 16.0402 408.897 15.7466L408.618 11.7564L408.339 7.76614C403.339 8.11572 398.517 9.19836 393.887 11.0144L395.348 14.7381ZM238.875 80.3609L234.884 80.64C235.097 83.6758 235.93 86.4912 237.464 88.9888L240.872 86.8956L244.281 84.8025C243.497 83.5261 242.998 81.9846 242.865 80.0817L238.875 80.3609ZM240.872 86.8956L237.503 89.0514C239.024 91.4284 241.049 93.3013 243.537 94.611L245.4 91.0714L247.263 87.5318C246.021 86.8777 245.027 85.9665 244.242 84.7398L240.872 86.8956ZM245.4 91.0714L243.611 94.6487C246.238 95.9633 249.083 96.4917 252.053 96.2841L251.774 92.2938L251.496 88.3035C249.868 88.4173 248.463 88.1312 247.19 87.4941L245.4 91.0714ZM251.774 92.2938L252.054 96.2841C255.138 96.0683 257.981 95.1685 260.443 93.4717L258.173 90.1783L255.903 86.8848C254.773 87.6637 253.349 88.1739 251.495 88.3035L251.774 92.2938ZM258.173 90.1783L260.443 93.4716C262.794 91.8512 264.631 89.7398 265.909 87.1848L262.332 85.3951L258.754 83.6053C258.081 84.9519 257.144 86.0293 255.903 86.8849L258.173 90.1783ZM262.332 85.3951L265.943 87.1156C267.238 84.3969 267.733 81.4458 267.517 78.3581L263.527 78.637L259.537 78.9159C259.666 80.7669 259.365 82.3215 258.721 83.6745L262.332 85.3951ZM263.527 78.637L267.517 78.358L263.748 24.4544L259.758 24.7335L255.768 25.0125L259.537 78.916L263.527 78.637ZM259.758 24.7335L260.037 28.7237L287.244 26.8212L286.965 22.831L286.686 18.8407L259.479 20.7432L259.758 24.7335ZM286.965 22.831L282.975 23.11L286.824 78.1631L290.815 77.884L294.805 77.605L290.955 22.5519L286.965 22.831ZM290.815 77.884L286.824 78.163C287.252 84.2751 286.104 89.6628 283.469 94.4499L286.973 96.3787L290.478 98.3074C293.917 92.0592 295.33 85.1174 294.805 77.605L290.815 77.884ZM286.973 96.3787L283.469 94.4499C280.801 99.2981 276.89 103.302 271.617 106.456L273.67 109.888L275.724 113.321C282.114 109.498 287.072 104.495 290.478 98.3074L286.973 96.3787ZM273.67 109.888L271.636 106.444C266.499 109.478 260.369 111.301 253.139 111.807L253.418 115.797L253.697 119.787C261.965 119.209 269.337 117.093 275.704 113.333L273.67 109.888ZM253.418 115.797L253.139 111.807C245.91 112.312 239.534 111.364 233.927 109.071L232.413 112.773L230.899 116.476C237.8 119.298 245.428 120.365 253.697 119.787L253.418 115.797ZM232.413 112.773L233.99 109.097C228.414 106.706 224.015 103.283 220.688 98.84L217.487 101.238L214.285 103.635C218.509 109.275 224.061 113.543 230.836 116.449L232.413 112.773ZM217.487 101.238L220.688 98.84C217.413 94.4662 215.527 89.2905 215.099 83.1785L211.109 83.4576L207.119 83.7367C207.644 91.2489 210.01 97.9266 214.285 103.635L217.487 101.238ZM211.109 83.4576L215.099 83.1786L211.249 28.1255L207.259 28.4045L203.269 28.6836L207.119 83.7366L211.109 83.4576ZM207.259 28.4045L207.538 32.3948L235.384 30.4476L235.105 26.4573L234.826 22.4671L206.98 24.4143L207.259 28.4045ZM235.105 26.4573L231.115 26.7364L234.884 80.6399L238.875 80.3609L242.865 80.0818L239.095 26.1783L235.105 26.4573ZM339.678 19.1449L339.957 23.1352C345.498 22.7477 350.351 23.601 354.616 25.5869L356.305 21.9607L357.993 18.3345C352.352 15.7078 346.12 14.6847 339.399 15.1546L339.678 19.1449ZM356.305 21.9607L354.616 25.5869C358.938 27.5993 362.381 30.4956 365.014 34.3062L368.305 32.0319L371.595 29.7576C368.136 24.7526 363.577 20.9347 357.993 18.3345L356.305 21.9607ZM368.305 32.0319L365.014 34.3062C367.607 38.0574 369.136 42.5344 369.509 47.8644L373.499 47.5854L377.489 47.3064C377.028 40.7147 375.096 34.8221 371.595 29.7576L368.305 32.0319ZM373.499 47.5854L369.509 47.8644C369.901 53.4782 369.017 58.4119 366.958 62.7661L370.574 64.4761L374.19 66.1861C376.901 60.4518 377.966 54.1249 377.489 47.3064L373.499 47.5854ZM370.574 64.4761L366.958 62.7661C364.872 67.1756 361.857 70.7214 357.87 73.4624L360.136 76.7585L362.403 80.0546C367.56 76.5085 371.504 71.8655 374.19 66.1862L370.574 64.4761ZM360.136 76.7585L357.914 73.4324C353.98 76.0607 349.313 77.6133 343.793 77.9992L344.073 81.9895L344.352 85.9797C351.095 85.5082 357.136 83.5731 362.358 80.0846L360.136 76.7585ZM344.073 81.9895L343.793 77.9992L331.148 78.8835L331.427 82.8738L331.706 86.864L344.352 85.9797L344.073 81.9895ZM331.427 82.8738L327.436 83.1528L329.294 109.721L333.284 109.442L337.275 109.163L335.417 82.5947L331.427 82.8738ZM333.284 109.442L333.005 105.451L305.416 107.381L305.695 111.371L305.974 115.361L333.563 113.432L333.284 109.442ZM305.695 111.371L309.685 111.092L303.433 21.6794L299.442 21.9585L295.452 22.2375L301.704 111.65L305.695 111.371ZM299.442 21.9585L299.721 25.9487L339.957 23.1352L339.678 19.1449L339.399 15.1546L299.163 17.9682L299.442 21.9585ZM54.8251 62.1679L54.5461 58.1776C51.1717 58.4136 48.0071 59.235 45.101 60.6827L46.8845 64.263L48.668 67.8434C50.558 66.902 52.6878 66.3271 55.1041 66.1581L54.8251 62.1679ZM46.8845 64.263L45.0562 60.7053C42.2429 62.1511 39.7992 64.1385 37.734 66.6236L40.8104 69.1802L43.8868 71.7367C45.2945 70.0427 46.9004 68.7521 48.7128 67.8207L46.8845 64.263ZM40.8104 69.1802L37.7313 66.6268C35.7284 69.0421 34.2405 71.8126 33.251 74.894L37.0595 76.1169L40.868 77.3398C41.565 75.1692 42.5779 73.3151 43.8894 71.7335L40.8104 69.1802ZM37.0595 76.1169L33.2171 75.0052C32.313 78.1303 32.011 81.4497 32.254 84.9247L36.2443 84.6457L40.2345 84.3667C40.0488 81.7107 40.29 79.3438 40.9019 77.2286L37.0595 76.1169ZM36.2443 84.6457L32.254 84.9248C32.497 88.3998 33.258 91.6449 34.5883 94.6137L38.2386 92.9781L41.8889 91.3425C40.9885 89.333 40.4203 87.0228 40.2345 84.3667L36.2443 84.6457ZM38.2386 92.9781L34.6373 94.7191C36.0391 97.6187 37.8827 100.172 40.1686 102.349L42.9272 99.4529L45.6859 96.5564C44.1216 95.0665 42.8389 93.3037 41.8398 91.2371L38.2386 92.9781ZM42.9272 99.4529L40.303 102.472C42.6831 104.541 45.3557 106.101 48.3023 107.127L49.6177 103.349L50.9331 99.5717C48.9682 98.8875 47.1801 97.8498 45.5515 96.4341L42.9272 99.4529ZM49.6177 103.349L48.3498 107.143C51.4283 108.172 54.6763 108.546 58.0517 108.31L57.7726 104.32L57.4936 100.33C55.0783 100.498 52.889 100.225 50.8855 99.5555L49.6177 103.349ZM57.7726 104.32L58.0517 108.31C61.425 108.074 64.5657 107.254 67.4128 105.79L65.5845 102.233L63.7562 98.675C61.9778 99.5889 59.9106 100.161 57.4935 100.33L57.7726 104.32ZM65.5845 102.233L67.3681 105.813C70.2483 104.378 72.7223 102.438 74.7466 99.9965L71.6676 97.4432L68.5886 94.8899C67.2985 96.4456 65.7168 97.698 63.801 98.6524L65.5845 102.233ZM71.6676 97.4432L74.744 99.9997C76.8338 97.4849 78.3413 94.6379 79.2519 91.4905L75.4095 90.3788L71.5671 89.2671C70.9616 91.3599 69.9742 93.2224 68.5912 94.8867L71.6676 97.4432ZM75.4095 90.3788L79.218 91.6017C80.2337 88.4384 80.5884 85.077 80.3426 81.5621L76.3524 81.8411L72.3621 82.1201C72.5451 84.7363 72.2718 87.0671 71.601 89.156L75.4095 90.3788ZM76.3524 81.8411L80.3426 81.562C80.0968 78.0472 79.2778 74.7678 77.8317 71.7767L74.2305 73.5177L70.6292 75.2587C71.5841 77.2339 72.1792 79.5039 72.3621 82.1201L76.3524 81.8411ZM74.2305 73.5177L77.8808 71.882C76.5344 68.8775 74.6297 66.2854 72.175 64.1516L69.5507 67.1704L66.9265 70.1893C68.4805 71.5402 69.6958 73.1797 70.5802 75.1533L74.2305 73.5177ZM69.5507 67.1704L72.3093 64.2739C69.9556 62.0322 67.2123 60.3865 64.1192 59.3528L62.8514 63.1465L61.5835 66.9403C63.5723 67.6049 65.2955 68.6417 66.7921 70.067L69.5507 67.1704ZM62.8514 63.1465L64.1667 59.369C61.1428 58.316 57.9183 57.9419 54.5461 58.1776L54.8251 62.1679L55.104 66.1582C57.5221 65.9891 59.6485 66.2668 61.536 66.9241L62.8514 63.1465ZM153.369 55.2771L153.09 51.2868C149.715 51.5228 146.551 52.3443 143.646 53.7917L145.429 57.3721L147.212 60.9525C149.103 60.0111 151.232 59.4362 153.648 59.2673L153.369 55.2771ZM145.429 57.3721L143.601 53.8144C140.787 55.2602 138.344 57.2477 136.279 59.7327L139.355 62.2893L142.431 64.8458C143.839 63.1519 145.445 61.8612 147.257 60.9298L145.429 57.3721ZM139.355 62.2893L136.276 59.7359C134.273 62.1512 132.785 64.9217 131.796 68.0031L135.604 69.226L139.413 70.4489C140.11 68.2783 141.122 66.4241 142.434 64.8426L139.355 62.2893ZM135.604 69.226L131.762 68.1143C130.858 71.2386 130.555 74.5579 130.798 78.0339L134.788 77.7549L138.778 77.4759C138.592 74.8208 138.834 72.4537 139.446 70.3377L135.604 69.226ZM134.788 77.7549L130.798 78.0339C131.041 81.51 131.803 84.7547 133.133 87.7228L136.783 86.0872L140.433 84.4515C139.533 82.4413 138.964 80.131 138.778 77.4759L134.788 77.7549ZM136.783 86.0872L133.182 87.8282C134.584 90.7278 136.427 93.2814 138.713 95.4586L141.472 92.562L144.23 89.6655C142.666 88.1756 141.384 86.4129 140.384 84.3461L136.783 86.0872ZM141.472 92.562L138.848 95.5809C141.228 97.6499 143.9 99.2098 146.847 100.236L148.162 96.4583L149.478 92.6808C147.513 91.9966 145.725 90.959 144.096 89.5432L141.472 92.562ZM148.162 96.4583L146.894 100.252C149.973 101.281 153.22 101.655 156.595 101.419L156.316 97.429L156.037 93.4387C153.622 93.6076 151.434 93.3341 149.43 92.6646L148.162 96.4583ZM156.316 97.429L156.595 101.419C159.969 101.183 163.109 100.363 165.956 98.8996L164.128 95.3419L162.3 91.7841C160.521 92.6981 158.454 93.2697 156.037 93.4388L156.316 97.429ZM164.128 95.3419L165.912 98.9223C168.792 97.4875 171.266 95.5468 173.29 93.1057L170.211 90.5524L167.132 87.999C165.842 89.5548 164.26 90.8072 162.345 91.7615L164.128 95.3419ZM170.211 90.5524L173.288 93.1089C175.377 90.5941 176.885 87.7471 177.795 84.5997L173.953 83.488L170.111 82.3763C169.505 84.4692 168.518 86.3316 167.135 87.9958L170.211 90.5524ZM173.953 83.488L177.762 84.7109C178.777 81.5484 179.133 78.1871 178.887 74.6712L174.897 74.9502L170.907 75.2292C171.09 77.8445 170.816 80.1754 170.145 82.2651L173.953 83.488ZM174.897 74.9502L178.887 74.6711C178.641 71.1553 177.821 67.8762 176.375 64.8858L172.774 66.6268L169.173 68.3678C170.128 70.3438 170.724 72.614 170.907 75.2292L174.897 74.9502ZM172.774 66.6268L176.424 64.9911C175.078 61.9867 173.173 59.3946 170.719 57.2608L168.094 60.2796L165.47 63.2984C167.024 64.6493 168.239 66.2889 169.124 68.2625L172.774 66.6268ZM168.094 60.2796L170.853 57.383C168.499 55.1415 165.756 53.4956 162.663 52.4619L161.395 56.2557L160.127 60.0494C162.116 60.714 163.839 61.7509 165.336 63.1762L168.094 60.2796ZM161.395 56.2557L162.71 52.4781C159.686 51.4253 156.462 51.051 153.09 51.2868L153.369 55.2771L153.648 59.2673C156.066 59.0982 158.192 59.376 160.08 60.0332L161.395 56.2557ZM516.447 15.1266L512.457 15.4056C512.797 20.2719 512.861 25.339 512.646 30.6088L516.643 30.7721L520.639 30.9355C520.866 25.3926 520.8 20.0293 520.438 14.8475L516.447 15.1266ZM516.643 30.7721L512.644 30.6655C512.505 35.8976 512.2 41.1866 511.731 46.532L515.715 46.8819L519.7 47.2319C520.183 41.7286 520.497 36.2773 520.641 30.8788L516.643 30.7721ZM515.715 46.8819L511.731 46.532C511.254 51.964 510.808 57.2236 510.392 62.3098L514.379 62.6356L518.365 62.9615C518.78 57.8922 519.224 52.6486 519.7 47.2319L515.715 46.8819ZM514.379 62.6356L514.1 58.6454L497.495 59.8065L497.774 63.7968L498.053 67.787L514.658 66.6259L514.379 62.6356ZM497.774 63.7968L501.676 62.9192C500.556 57.94 499.382 52.7936 498.153 47.4814L494.256 48.3825L490.359 49.2836C491.584 54.5819 492.755 59.7124 493.871 64.6743L497.774 63.7968ZM494.256 48.3825L498.153 47.4814C496.94 42.2334 495.856 37.0202 494.902 31.8426L490.968 32.5675L487.034 33.2924C488.011 38.5906 489.119 43.9213 490.359 49.2836L494.256 48.3825ZM490.968 32.5675L494.914 31.9114C494.047 26.6988 493.445 21.6483 493.103 16.759L489.113 17.038L485.123 17.317C485.483 22.4758 486.117 27.7783 487.022 33.2236L490.968 32.5675ZM489.113 17.038L493.103 16.759L492.344 5.90169L488.354 6.18071L484.363 6.45974L485.123 17.317L489.113 17.038ZM488.354 6.18071L488.633 10.171L515.967 8.25955L515.688 4.26929L515.409 0.279033L488.075 2.19046L488.354 6.18071ZM515.688 4.26929L511.698 4.54832L512.457 15.4056L516.447 15.1266L520.438 14.8475L519.678 3.99026L515.688 4.26929ZM329.273 59.4063L329.552 63.3966L337.598 62.8339L337.319 58.8436L337.04 54.8534L328.994 55.4161L329.273 59.4063ZM337.319 58.8436L337.598 62.8339C339.714 62.686 341.723 62.1513 343.54 61.1436L341.6 57.6456L339.66 54.1477C339.005 54.5107 338.161 54.775 337.04 54.8534L337.319 58.8436ZM341.6 57.6456L343.724 61.0352C345.555 59.8877 347 58.3255 347.944 56.3683L344.341 54.6306L340.739 52.893C340.487 53.4152 340.104 53.8626 339.476 54.2561L341.6 57.6456ZM344.341 54.6306L347.849 56.5537C348.986 54.479 349.333 52.1533 349.169 49.7997L345.178 50.0788L341.188 50.3578C341.274 51.5807 341.063 52.2908 340.834 52.7076L344.341 54.6306ZM345.178 50.0788L349.169 49.7996C349.005 47.4627 348.342 45.1823 346.847 43.3155L343.725 45.8162L340.603 48.3169C340.795 48.5568 341.101 49.1187 341.188 50.3579L345.178 50.0788ZM343.725 45.8162L346.977 43.4871C345.688 41.6872 343.919 40.4541 341.84 39.7865L340.617 43.595L339.394 47.4035C339.941 47.579 340.245 47.8269 340.473 48.1454L343.725 45.8162ZM340.617 43.595L342.052 39.861C340.112 39.1161 338.048 38.8662 335.933 39.0141L336.212 43.0044L336.491 46.9946C337.611 46.9163 338.484 47.0606 339.183 47.329L340.617 43.595ZM336.212 43.0044L335.933 39.0141L327.886 39.5768L328.165 43.5671L328.444 47.5573L336.491 46.9946L336.212 43.0044ZM328.165 43.5671L324.175 43.8461L325.282 59.6853L329.273 59.4063L333.263 59.1273L332.155 43.288L328.165 43.5671Z" fill="white" mask="url(#path-1-outside-1_2129_4575)"/>
</g>
<defs>
<filter id="filter0_di_2129_4575" x="0" y="-4" width="528.471" height="146.011" filterUnits="userSpaceOnUse" color-interpolation-filters="sRGB">
<feFlood flood-opacity="0" result="BackgroundImageFix"/>
<feColorMatrix in="SourceAlpha" type="matrix" values="0 0 0 0 0 0 0 0 0 0 0 0 0 0 0 0 0 0 127 0" result="hardAlpha"/>
<feOffset dy="4"/>
<feGaussianBlur stdDeviation="2"/>
<feComposite in2="hardAlpha" operator="out"/>
<feColorMatrix type="matrix" values="0 0 0 0 0 0 0 0 0 0 0 0 0 0 0 0 0 0 0.16 0"/>
<feBlend mode="normal" in2="BackgroundImageFix" result="effect1_dropShadow_2129_4575"/>
<feBlend mode="normal" in="SourceGraphic" in2="effect1_dropShadow_2129_4575" result="shape"/>
<feColorMatrix in="SourceAlpha" type="matrix" values="0 0 0 0 0 0 0 0 0 0 0 0 0 0 0 0 0 0 127 0" result="hardAlpha"/>
<feOffset dy="-4"/>
<feGaussianBlur stdDeviation="2"/>
<feComposite in2="hardAlpha" operator="arithmetic" k2="-1" k3="1"/>
<feColorMatrix type="matrix" values="0 0 0 0 0 0 0 0 0 0 0 0 0 0 0 0 0 0 0.16 0"/>
<feBlend mode="normal" in2="shape" result="effect2_innerShadow_2129_4575"/>
</filter>
</defs>
</svg>
